<svg width="44" height="18" viewBox="0 0 44 18" fill="none" xmlns="http://www.w3.org/2000/svg">
<path d="M12.7864 15.21C12.0514 15.9225 11.2489 15.81 10.4764 15.4725C9.6589 15.1275 8.9089 15.1125 8.0464 15.4725C6.9664 15.9375 6.3964 15.8025 5.7514 15.21C2.0914 11.4375 2.6314 5.6925 6.7864 5.4825C7.7989 5.535 8.5039 6.0375 9.0964 6.0825C9.9814 5.9025 10.8289 5.385 11.7739 5.4525C12.9064 5.5425 13.7614 5.9925 14.3239 6.8025C11.9839 8.205 12.5389 11.2875 14.6839 12.15C14.2564 13.275 13.7014 14.3925 12.7789 15.2175L12.7864 15.21ZM9.0214 5.4375C8.9089 3.765 10.2664 2.385 11.8264 2.25C12.0439 4.185 10.0714 5.625 9.0214 5.4375Z" fill="#ffffff"/>
<line x1="21.5" y1="16" x2="21.5" y2="2" stroke="#ffffff" stroke-opacity="0.26"/>
<path d="M35.7155 8.71129L37.9333 6.49354L30.77 2.46754C30.2953 2.21104 29.8505 2.17504 29.4605 2.45554L35.7155 8.71129ZM38.3113 11.3078L40.6168 10.011C41.0668 9.75904 41.3135 9.40204 41.3135 9.00604C41.3135 8.61079 41.0667 8.25304 40.6175 8.00104L38.5303 6.82879L36.1805 9.17779L38.3113 11.3078ZM29.075 3.00079C29.027 3.14854 29 3.31354 29 3.49429V14.523C29 14.8088 29.063 15.0548 29.177 15.2505L35.2498 9.17704L29.075 3.00079ZM35.7155 9.64204L29.6765 15.6818C29.792 15.726 29.9165 15.7493 30.0477 15.7493C30.2817 15.7493 30.5255 15.6803 30.7737 15.5423L37.715 11.6445L35.7155 9.64204Z" fill="#ffffff"/>
</svg>
