<svg width="2080" height="1710" viewBox="0 0 2080 1710" fill="none" xmlns="http://www.w3.org/2000/svg">
<circle cx="50" cy="50" r="50" fill="white"/>
<circle cx="270" cy="50" r="50" fill="white"/>
<circle cx="490" cy="50" r="50" fill="white"/>
<circle cx="710" cy="50" r="50" fill="white"/>
<circle cx="930" cy="50" r="50" fill="white"/>
<circle cx="1150" cy="50" r="50" fill="white"/>
<circle cx="1370" cy="50" r="50" fill="white"/>
<circle cx="1590" cy="50" r="50" fill="white"/>
<circle cx="1810" cy="50" r="50" fill="white"/>
<circle cx="2030" cy="50" r="50" fill="white"/>
<circle cx="50" cy="280" r="50" fill="white"/>
<circle cx="270" cy="280" r="50" fill="white"/>
<circle cx="490" cy="280" r="50" fill="white"/>
<circle cx="710" cy="280" r="50" fill="white"/>
<circle cx="930" cy="280" r="50" fill="white"/>
<circle cx="1150" cy="280" r="50" fill="white"/>
<circle cx="1370" cy="280" r="50" fill="white"/>
<circle cx="1590" cy="280" r="50" fill="white"/>
<circle cx="1810" cy="280" r="50" fill="white"/>
<circle cx="2030" cy="280" r="50" fill="white"/>
<circle cx="50" cy="510" r="50" fill="white"/>
<circle cx="270" cy="510" r="50" fill="white"/>
<circle cx="490" cy="510" r="50" fill="white"/>
<circle cx="710" cy="510" r="50" fill="white"/>
<circle cx="930" cy="510" r="50" fill="white"/>
<circle cx="1150" cy="510" r="50" fill="white"/>
<circle cx="1370" cy="510" r="50" fill="white"/>
<circle cx="1590" cy="510" r="50" fill="white"/>
<circle cx="1810" cy="510" r="50" fill="white"/>
<circle cx="2030" cy="510" r="50" fill="white"/>
<circle cx="50" cy="740" r="50" fill="white"/>
<circle cx="270" cy="740" r="50" fill="white"/>
<circle cx="490" cy="740" r="50" fill="white"/>
<circle cx="710" cy="740" r="50" fill="white"/>
<circle cx="930" cy="740" r="50" fill="white"/>
<circle cx="1150" cy="740" r="50" fill="white"/>
<circle cx="1370" cy="740" r="50" fill="white"/>
<circle cx="1590" cy="740" r="50" fill="white"/>
<circle cx="1810" cy="740" r="50" fill="white"/>
<circle cx="2030" cy="740" r="50" fill="white"/>
<circle cx="50" cy="970" r="50" fill="white"/>
<circle cx="270" cy="970" r="50" fill="white"/>
<circle cx="490" cy="970" r="50" fill="white"/>
<circle cx="710" cy="970" r="50" fill="white"/>
<circle cx="930" cy="970" r="50" fill="white"/>
<circle cx="1150" cy="970" r="50" fill="white"/>
<circle cx="1370" cy="970" r="50" fill="white"/>
<circle cx="1590" cy="970" r="50" fill="white"/>
<circle cx="1810" cy="970" r="50" fill="white"/>
<circle cx="2030" cy="970" r="50" fill="white"/>
<circle cx="50" cy="1200" r="50" fill="white"/>
<circle cx="270" cy="1200" r="50" fill="white"/>
<circle cx="490" cy="1200" r="50" fill="white"/>
<circle cx="710" cy="1200" r="50" fill="white"/>
<circle cx="930" cy="1200" r="50" fill="white"/>
<circle cx="1150" cy="1200" r="50" fill="white"/>
<circle cx="1370" cy="1200" r="50" fill="white"/>
<circle cx="1590" cy="1200" r="50" fill="white"/>
<circle cx="1810" cy="1200" r="50" fill="white"/>
<circle cx="2030" cy="1200" r="50" fill="white"/>
<circle cx="50" cy="1430" r="50" fill="white"/>
<circle cx="270" cy="1430" r="50" fill="white"/>
<circle cx="490" cy="1430" r="50" fill="white"/>
<circle cx="710" cy="1430" r="50" fill="white"/>
<circle cx="930" cy="1430" r="50" fill="white"/>
<circle cx="1150" cy="1430" r="50" fill="white"/>
<circle cx="1370" cy="1430" r="50" fill="white"/>
<circle cx="1590" cy="1430" r="50" fill="white"/>
<circle cx="1810" cy="1430" r="50" fill="white"/>
<circle cx="2030" cy="1430" r="50" fill="white"/>
<circle cx="50" cy="1660" r="50" fill="white"/>
<circle cx="270" cy="1660" r="50" fill="white"/>
<circle cx="490" cy="1660" r="50" fill="white"/>
<circle cx="710" cy="1660" r="50" fill="white"/>
<circle cx="930" cy="1660" r="50" fill="white"/>
<circle cx="1150" cy="1660" r="50" fill="white"/>
<circle cx="1370" cy="1660" r="50" fill="white"/>
<circle cx="1590" cy="1660" r="50" fill="white"/>
<circle cx="1810" cy="1660" r="50" fill="white"/>
<circle cx="2030" cy="1660" r="50" fill="white"/>
</svg>
