<svg height="1500" viewBox="0 0 1500 1500" width="1500" xmlns="http://www.w3.org/2000/svg"><path d="M189.028 589.786h18.145v152.24h-18.145z" fill="#231f20"/><path d="M209.2 744.053h-22.199V587.759H209.2zM191.055 740h14.091V591.813h-14.091z" fill="#231f20"/><path d="M189.028 437.546h18.145v152.24h-18.145z" fill="#fff"/><path d="M209.2 591.813h-22.199V435.52H209.2zm-18.145-4.054h14.091V439.573h-14.091zm37.395 79.262h18.145v152.24H228.45z" fill="#231f20"/><path d="M248.621 821.288h-22.199V664.994h22.199zm-18.145-4.054h14.091V669.048h-14.091z" fill="#231f20"/><path d="M228.45 514.781h18.145v152.24H228.45z" fill="#fff"/><path d="M248.621 669.048h-22.199V512.754h22.199zm-18.145-4.054h14.091V516.808h-14.091zm37.395 72.715h18.145v152.24h-18.145z" fill="#231f20"/><path d="M288.043 891.976h-22.199V735.682h22.199zm-18.145-4.054h14.091V739.736h-14.091z" fill="#231f20"/><path d="M267.871 585.469h18.145v152.24h-18.145z" fill="#fff"/><path d="M288.043 739.736h-22.199V583.442h22.199zm-18.145-4.054h14.091V587.496h-14.091zm37.394-98.373h18.145v152.24h-18.145z" fill="#231f20"/><path d="M327.464 791.575h-22.199V635.282h22.199zm-18.145-4.054h14.091V639.335h-14.091z" fill="#231f20"/><path d="M307.292 485.068h18.145v152.24h-18.145z" fill="#fff"/><path d="M327.464 639.335h-22.199V483.041h22.199zm-18.145-4.053h14.091V487.095h-14.091zm37.395 93.48h18.145v152.24h-18.145z" fill="#231f20"/><path d="M366.886 883.029h-22.199V726.735h22.199zm-18.145-4.053h14.091V730.789h-14.091z" fill="#231f20"/><path d="M346.714 576.522h18.145v152.24h-18.145z" fill="#fff"/><path d="M366.886 730.789h-22.199V574.496h22.199zm-18.145-4.054h14.091V578.549h-14.091zm37.394 61.093h18.145v152.24h-18.145z" fill="#231f20"/><path d="M406.307 942.095h-22.199V785.801h22.199zm-18.145-4.054h14.091V789.855h-14.091z" fill="#231f20"/><path d="M386.135 635.588h18.145v152.24h-18.145z" fill="#fff"/><path d="M406.307 789.855h-22.199V633.561h22.199zm-18.145-4.054h14.091V637.615h-14.091zm37.394 58.96h18.145v152.24h-18.145z" fill="#231f20"/><path d="M445.728 999.028H423.53V842.734h22.199v156.294zm-18.145-4.053h14.091V846.788h-14.091z" fill="#231f20"/><path d="M425.556 692.521h18.145v152.24h-18.145z" fill="#fff"/><path d="M445.728 846.788H423.53V690.495h22.199v156.293zm-18.145-4.054h14.091V694.548h-14.091zm37.395 34.884h18.145v152.24h-18.145z" fill="#231f20"/><path d="M485.15 1031.885h-22.199V875.591h22.199zm-18.145-4.053h14.091V879.645h-14.091z" fill="#231f20"/><path d="M464.978 725.378h18.145v152.24h-18.145z" fill="#fff"/><path d="M485.15 879.645h-22.199V723.351h22.199zm-18.145-4.054h14.091V727.405h-14.091zm37.394-77.798h18.145v152.24h-18.145z" fill="#231f20"/><path d="M524.571 952.06h-22.199V795.766h22.199zm-18.145-4.054h14.091V799.819h-14.091z" fill="#231f20"/><path d="M504.399 645.552h18.145v152.24h-18.145z" fill="#fff"/><path d="M524.571 799.819h-22.199V643.526h22.199zm-18.145-4.053h14.091V647.58h-14.091zm37.395 39.255h18.145v152.24h-18.145z" fill="#231f20"/><path d="M563.992 989.288h-22.199V832.994h22.199zm-18.145-4.054h14.091V837.048h-14.091z" fill="#231f20"/><path d="M543.821 682.781h18.145v152.24h-18.145z" fill="#fff"/><path d="M563.992 837.048h-22.199V680.754h22.199zm-18.145-4.054h14.091V684.808h-14.091zm37.395-107.709h18.145v152.24h-18.145z" fill="#231f20"/><path d="M603.414 879.552h-22.199V723.258h22.199zm-18.145-4.054h14.091V727.312h-14.091z" fill="#231f20"/><path d="M583.242 573.045h18.145v152.24h-18.145z" fill="#fff"/><path d="M603.414 727.312h-22.199V571.018h22.199zm-18.145-4.054h14.091V575.071h-14.091zm37.394-52.898h18.145V822.6h-18.145z" fill="#231f20"/><path d="M642.835 824.626h-22.199V668.333h22.199zm-18.145-4.053h14.091V672.387H624.69z" fill="#231f20"/><path d="M622.663 518.12h18.145v152.24h-18.145z" fill="#fff"/><path d="M642.835 672.387h-22.199V516.093h22.199zm-18.145-4.054h14.091V520.146H624.69zm37.395-33.408h18.145v152.24h-18.145z" fill="#231f20"/><path d="M682.257 789.192h-22.199V632.898h22.199zm-18.145-4.054h14.091V636.952h-14.091z" fill="#231f20"/><path d="M662.085 482.685h18.145v152.24h-18.145z" fill="#fff"/><path d="M682.257 636.952h-22.199V480.658h22.199zm-18.145-4.054h14.091V484.712h-14.091zm37.394 49.883h18.145v152.24h-18.145z" fill="#231f20"/><path d="M721.678 837.048h-22.199V680.754h22.199zm-18.145-4.054h14.091V684.808h-14.091z" fill="#231f20"/><path d="M701.506 530.541h18.145v152.24h-18.145z" fill="#fff"/><path d="M721.678 684.808h-22.199V528.514h22.199zm-18.145-4.054h14.091V532.568h-14.091zm37.394-138.15h18.145v152.24h-18.145z" fill="#231f20"/><path d="M761.099 696.872H738.9V540.578h22.199zm-18.145-4.054h14.091V544.631h-14.091z" fill="#231f20"/><path d="M740.927 390.364h18.145v152.24h-18.145z" fill="#fff"/><path d="M761.099 544.631H738.9V388.337h22.199zm-18.145-4.053h14.091V392.391h-14.091zm37.395 49.208h18.145v152.24h-18.145z" fill="#231f20"/><path d="M800.521 744.053h-22.199V587.759h22.199zM782.376 740h14.091V591.813h-14.091z" fill="#231f20"/><path d="M780.349 437.546h18.145v152.24h-18.145z" fill="#fff"/><path d="M800.521 591.813h-22.199V435.52h22.199zm-18.145-4.054h14.091V439.573h-14.091zm37.394 64.883h18.145v152.24H819.77z" fill="#231f20"/><path d="M839.942 806.909h-22.199V650.616h22.199zm-18.145-4.054h14.091V654.669h-14.091z" fill="#231f20"/><path d="M819.77 500.402h18.145v152.24H819.77z" fill="#fff"/><path d="M839.942 654.669h-22.199V498.375h22.199zm-18.145-4.053h14.091V502.429h-14.091zm37.395-13.307h18.145v152.24h-18.145z" fill="#231f20"/><path d="M879.364 791.575h-22.199V635.282h22.199zm-18.145-4.054h14.091V639.335h-14.091z" fill="#231f20"/><path d="M859.192 485.068h18.145v152.24h-18.145z" fill="#fff"/><path d="M879.364 639.335h-22.199V483.041h22.199zm-18.145-4.053h14.091V487.095h-14.091zm37.394 41.732h18.145v152.24h-18.145z" fill="#231f20"/><path d="M918.785 831.281h-22.199V674.987h22.199zm-18.145-4.053h14.091V679.041H900.64z" fill="#231f20"/><path d="M898.613 524.774h18.145v152.24h-18.145z" fill="#fff"/><path d="M918.785 679.041h-22.199V522.748h22.199zm-18.145-4.054h14.091V526.801H900.64zm37.394-125.642h18.145v152.24h-18.145z" fill="#231f20"/><path d="M958.206 703.611h-22.199V547.318h22.199zm-18.145-4.053h14.091V551.372h-14.091z" fill="#231f20"/><path d="M938.034 397.104h18.145v152.24h-18.145z" fill="#fff"/><path d="M958.206 551.372h-22.199V395.078h22.199zm-18.145-4.054h14.091V399.131h-14.091zm37.395 58.96h18.145v152.24h-18.145z" fill="#231f20"/><path d="M997.628 760.545h-22.199V604.251h22.199zm-18.145-4.054h14.091V608.305h-14.091z" fill="#231f20"/><path d="M977.456 454.038h18.145v152.24h-18.145z" fill="#fff"/><path d="M997.628 608.305h-22.199V452.011h22.199zm-18.145-4.054h14.091V456.065h-14.091zm37.394 34.884h18.145v152.24h-18.145z" fill="#231f20"/><path d="M1037.049 793.402h-22.199V637.108h22.199zm-18.145-4.054h14.091V641.162h-14.091z" fill="#231f20"/><path d="M1016.877 486.895h18.145v152.24h-18.145z" fill="#fff"/><path d="M1037.049 641.162h-22.199V484.868h22.199zm-18.145-4.054h14.091V488.921h-14.091zm37.394-70.124h18.145v152.24h-18.145z" fill="#231f20"/><path d="M1076.471 721.251h-22.199V564.958h22.199zm-18.145-4.054h14.091V569.011h-14.091z" fill="#231f20"/><path d="M1056.298 414.744h18.145v152.24h-18.145z" fill="#fff"/><path d="M1076.471 569.011h-22.199V412.717h22.199zm-18.145-4.053h14.091V416.771h-14.091zm37.394 39.255h18.145v152.24h-18.145z" fill="#231f20"/><path d="M1115.892 758.479h-22.199V602.186h22.199zm-18.145-4.053h14.091V606.24h-14.091z" fill="#231f20"/><path d="M1095.72 451.973h18.145v152.24h-18.145z" fill="#fff"/><path d="M1115.892 606.24h-22.199V449.946h22.199zm-18.145-4.054h14.091V453.999h-14.091zm37.394-107.71h18.145v152.24h-18.145z" fill="#231f20"/><path d="M1155.313 648.743h-22.199V492.45h22.199zm-18.145-4.054h14.091V496.503h-14.091z" fill="#231f20"/><path d="M1135.141 342.236h18.145v152.24h-18.145z" fill="#fff"/><path d="M1155.313 496.503h-22.199V340.209h22.199zm-18.145-4.053h14.091V344.263h-14.091zm37.395 74.534h18.145v152.24h-18.145z" fill="#231f20"/><path d="M1194.735 721.251h-22.199V564.958h22.199zm-18.145-4.054h14.091V569.011h-14.091z" fill="#231f20"/><path d="M1174.563 414.744h18.145v152.24h-18.145z" fill="#fff"/><path d="M1194.735 569.011h-22.199V412.717h22.199zm-18.145-4.053h14.091V416.771h-14.091zm37.394 100.948h18.145v152.24h-18.145z" fill="#231f20"/><path d="M1234.156 820.173h-22.199V663.879h22.199zm-18.145-4.053h14.091V667.933h-14.091z" fill="#231f20"/><path d="M1213.984 513.666h18.145v152.24h-18.145z" fill="#fff"/><path d="M1234.156 667.933h-22.199V511.64h22.199zm-18.145-4.054h14.091V515.693h-14.091zm37.394 104.762h18.145v152.24h-18.145z" fill="#231f20"/><path d="M1273.578 922.908h-22.199V766.615h22.199zm-18.146-4.054h14.091V770.668h-14.091z" fill="#231f20"/><path d="M1253.405 616.401h18.145v152.24h-18.145z" fill="#fff"/><path d="M1273.578 770.668h-22.199V614.375h22.199zm-18.146-4.053h14.091V618.428h-14.091zm37.395-51.36h18.145v152.24h-18.145z" fill="#231f20"/><path d="M1312.999 869.521H1290.8V713.228h22.199zm-18.146-4.053h14.092V717.282h-14.092z" fill="#231f20"/><path d="M1292.827 563.015h18.145v152.24h-18.145z" fill="#fff"/><path d="M1312.999 717.282H1290.8V560.988h22.199zm-18.146-4.054h14.092V565.042h-14.092zm-534.572 370.348c0-.68.54-1.22 1.21-1.22.67 0 1.22.54 1.22 1.22 0 .67-.55 1.21-1.22 1.21-.67 0-1.21-.54-1.21-1.21zm-8.11 0c0-.68.54-1.22 1.22-1.22.67 0 1.21.54 1.21 1.22 0 .67-.54 1.21-1.21 1.21-.68 0-1.22-.54-1.22-1.21zm-8.11 0c0-.68.55-1.22 1.22-1.22.67 0 1.21.54 1.21 1.22 0 .67-.54 1.21-1.21 1.21-.67 0-1.22-.54-1.22-1.21zm-8.1 0c0-.68.54-1.22 1.21-1.22.67 0 1.22.54 1.22 1.22 0 .67-.55 1.21-1.22 1.21-.67 0-1.21-.54-1.21-1.21zm-8.11 0c0-.68.54-1.22 1.21-1.22.68 0 1.22.54 1.22 1.22 0 .67-.54 1.21-1.22 1.21-.67 0-1.21-.54-1.21-1.21zm-8.11 0c0-.68.55-1.22 1.22-1.22.67 0 1.21.54 1.21 1.22 0 .67-.54 1.21-1.21 1.21-.67 0-1.22-.54-1.22-1.21zm-8.11 0c0-.68.55-1.22 1.22-1.22.67 0 1.22.54 1.22 1.22 0 .67-.55 1.21-1.22 1.21-.67 0-1.22-.54-1.22-1.21zm-8.1 0c0-.68.54-1.22 1.21-1.22.68 0 1.22.54 1.22 1.22 0 .67-.54 1.21-1.22 1.21-.67 0-1.21-.54-1.21-1.21zm-8.11 0c0-.68.54-1.22 1.22-1.22.67 0 1.21.54 1.21 1.22 0 .67-.54 1.21-1.21 1.21-.68 0-1.22-.54-1.22-1.21zm-8.11 0c0-.68.55-1.22 1.22-1.22.67 0 1.22.54 1.22 1.22 0 .67-.55 1.21-1.22 1.21-.67 0-1.22-.54-1.22-1.21zm-8.1 0c0-.68.54-1.22 1.21-1.22.67 0 1.22.54 1.22 1.22 0 .67-.55 1.21-1.22 1.21-.67 0-1.21-.54-1.21-1.21zm-8.11 0c0-.68.54-1.22 1.22-1.22.67 0 1.21.54 1.21 1.22 0 .67-.54 1.21-1.21 1.21-.68 0-1.22-.54-1.22-1.21zm-8.11 0c0-.68.55-1.22 1.22-1.22.67 0 1.21.54 1.21 1.22 0 .67-.54 1.21-1.21 1.21-.67 0-1.22-.54-1.22-1.21zm-8.11 0c0-.68.55-1.22 1.22-1.22.67 0 1.22.54 1.22 1.22 0 .67-.55 1.21-1.22 1.21-.67 0-1.22-.54-1.22-1.21zm-8.1 0c0-.68.54-1.22 1.22-1.22.67 0 1.21.54 1.21 1.22 0 .67-.54 1.21-1.21 1.21-.68 0-1.22-.54-1.22-1.21zm-8.11 0c0-.68.55-1.22 1.22-1.22.67 0 1.21.54 1.21 1.22 0 .67-.54 1.21-1.21 1.21-.67 0-1.22-.54-1.22-1.21zm-8.11 0c0-.68.55-1.22 1.22-1.22.67 0 1.22.54 1.22 1.22 0 .67-.55 1.21-1.22 1.21-.67 0-1.22-.54-1.22-1.21zm-8.1 0c0-.68.54-1.22 1.21-1.22.68 0 1.22.54 1.22 1.22 0 .67-.54 1.21-1.22 1.21-.67 0-1.21-.54-1.21-1.21zm-8.11 0c0-.68.55-1.22 1.22-1.22.67 0 1.21.54 1.21 1.22 0 .67-.54 1.21-1.21 1.21-.67 0-1.22-.54-1.22-1.21zm-8.11 0c0-.68.55-1.22 1.22-1.22.67 0 1.22.54 1.22 1.22 0 .67-.55 1.21-1.22 1.21-.67 0-1.22-.54-1.22-1.21zm-8.1 0c0-.68.54-1.22 1.21-1.22.67 0 1.22.54 1.22 1.22 0 .67-.55 1.21-1.22 1.21-.67 0-1.21-.54-1.21-1.21zm-8.11 0c0-.68.54-1.22 1.22-1.22.67 0 1.21.54 1.21 1.22 0 .67-.54 1.21-1.21 1.21-.68 0-1.22-.54-1.22-1.21zm-8.11 0c0-.68.55-1.22 1.22-1.22.67 0 1.22.54 1.22 1.22 0 .67-.55 1.21-1.22 1.21-.67 0-1.22-.54-1.22-1.21zm-8.1 0c0-.68.54-1.22 1.21-1.22.67 0 1.22.54 1.22 1.22 0 .67-.55 1.21-1.22 1.21-.67 0-1.21-.54-1.21-1.21zm-8.11 0c0-.68.54-1.22 1.21-1.22.68 0 1.22.54 1.22 1.22 0 .67-.54 1.21-1.22 1.21-.67 0-1.21-.54-1.21-1.21zm-8.11 0c0-.68.55-1.22 1.22-1.22.67 0 1.21.54 1.21 1.22 0 .67-.54 1.21-1.21 1.21-.67 0-1.22-.54-1.22-1.21zm-8.11 0c0-.68.55-1.22 1.22-1.22.67 0 1.22.54 1.22 1.22 0 .67-.55 1.21-1.22 1.21-.67 0-1.22-.54-1.22-1.21zm-8.1 0c0-.68.54-1.22 1.22-1.22.67 0 1.21.54 1.21 1.22 0 .67-.54 1.21-1.21 1.21-.68 0-1.22-.54-1.22-1.21zm-8.11 0c0-.68.55-1.22 1.22-1.22.67 0 1.21.54 1.21 1.22 0 .67-.54 1.21-1.21 1.21-.67 0-1.22-.54-1.22-1.21zm-8.11 0c0-.68.55-1.22 1.22-1.22.67 0 1.22.54 1.22 1.22 0 .67-.55 1.21-1.22 1.21-.67 0-1.22-.54-1.22-1.21zm-8.1 0c0-.68.54-1.22 1.21-1.22.67 0 1.22.54 1.22 1.22 0 .67-.55 1.21-1.22 1.21-.67 0-1.21-.54-1.21-1.21zm-8.11 0c0-.68.54-1.22 1.22-1.22.67 0 1.21.54 1.21 1.22 0 .67-.54 1.21-1.21 1.21-.68 0-1.22-.54-1.22-1.21zm-8.11 0c0-.68.55-1.22 1.22-1.22.67 0 1.21.54 1.21 1.22 0 .67-.54 1.21-1.21 1.21-.67 0-1.22-.54-1.22-1.21zm-8.1 0c0-.68.54-1.22 1.21-1.22.67 0 1.22.54 1.22 1.22 0 .67-.55 1.21-1.22 1.21-.67 0-1.21-.54-1.21-1.21zm-8.11 0c0-.68.54-1.22 1.22-1.22.67 0 1.21.54 1.21 1.22 0 .67-.54 1.21-1.21 1.21-.68 0-1.22-.54-1.22-1.21zm-8.11 0c0-.68.55-1.22 1.22-1.22.67 0 1.21.54 1.21 1.22 0 .67-.54 1.21-1.21 1.21-.67 0-1.22-.54-1.22-1.21zm-8.1 0c0-.68.54-1.22 1.21-1.22.67 0 1.22.54 1.22 1.22 0 .67-.55 1.21-1.22 1.21-.67 0-1.21-.54-1.21-1.21zm-8.11 0c0-.68.54-1.22 1.21-1.22.68 0 1.22.54 1.22 1.22 0 .67-.54 1.21-1.22 1.21-.67 0-1.21-.54-1.21-1.21zm307.98-.08c0-.68.55-1.22 1.22-1.22.67 0 1.21.54 1.21 1.22 0 .67-.54 1.21-1.21 1.21-.67 0-1.22-.54-1.22-1.21zm-315.59-.42c0-.68.55-1.22 1.22-1.22.67 0 1.21.54 1.21 1.22 0 .67-.54 1.21-1.21 1.21-.67 0-1.22-.54-1.22-1.21zm315.59-7.69c0-.67.55-1.22 1.22-1.22.67 0 1.21.55 1.21 1.22 0 .67-.54 1.21-1.21 1.21-.67 0-1.22-.54-1.22-1.21zm-315.59-.42c0-.67.55-1.22 1.22-1.22.67 0 1.21.55 1.21 1.22 0 .67-.54 1.22-1.21 1.22-.67 0-1.22-.55-1.22-1.22zm315.59-7.69c0-.67.55-1.22 1.22-1.22.67 0 1.21.55 1.21 1.22 0 .67-.54 1.22-1.21 1.22-.67 0-1.22-.55-1.22-1.22zm-315.59-.42c0-.67.55-1.21 1.22-1.21.67 0 1.21.54 1.21 1.21 0 .67-.54 1.22-1.21 1.22-.67 0-1.22-.55-1.22-1.22zm315.59-7.68c0-.68.55-1.22 1.22-1.22.67 0 1.21.54 1.21 1.22 0 .67-.54 1.21-1.21 1.21-.67 0-1.22-.54-1.22-1.21zm-315.59-.42c0-.68.55-1.22 1.22-1.22.67 0 1.21.54 1.21 1.22 0 .67-.54 1.21-1.21 1.21-.67 0-1.22-.54-1.22-1.21zm315.59-7.69c0-.67.55-1.22 1.22-1.22.67 0 1.21.55 1.21 1.22 0 .67-.54 1.21-1.21 1.21-.67 0-1.22-.54-1.22-1.21zm-315.59-.42c0-.67.55-1.22 1.22-1.22.67 0 1.21.55 1.21 1.22 0 .67-.54 1.21-1.21 1.21-.67 0-1.22-.54-1.22-1.21zm315.59-7.69c0-.67.55-1.22 1.22-1.22.67 0 1.21.55 1.21 1.22 0 .67-.54 1.22-1.21 1.22-.67 0-1.22-.55-1.22-1.22zm-315.59-.42c0-.67.55-1.22 1.22-1.22.67 0 1.21.55 1.21 1.22 0 .67-.54 1.22-1.21 1.22-.67 0-1.22-.55-1.22-1.22zm315.59-7.69c0-.67.55-1.21 1.22-1.21.67 0 1.21.54 1.21 1.21 0 .67-.54 1.22-1.21 1.22-.67 0-1.22-.55-1.22-1.22zm-315.59-.41c0-.68.55-1.22 1.22-1.22.67 0 1.21.54 1.21 1.22 0 .67-.54 1.21-1.21 1.21-.67 0-1.22-.54-1.22-1.21zm315.59-7.69c0-.68.55-1.22 1.22-1.22.67 0 1.21.54 1.21 1.22 0 .67-.54 1.21-1.21 1.21-.67 0-1.22-.54-1.22-1.21zm-315.59-.42c0-.67.55-1.22 1.22-1.22.67 0 1.21.55 1.21 1.22 0 .67-.54 1.21-1.21 1.21-.67 0-1.22-.54-1.22-1.21zm315.59-7.69c0-.67.55-1.22 1.22-1.22.67 0 1.21.55 1.21 1.22 0 .67-.54 1.21-1.21 1.21-.67 0-1.22-.54-1.22-1.21zm-315.59-.42c0-.67.55-1.22 1.22-1.22.67 0 1.21.55 1.21 1.22 0 .67-.54 1.22-1.21 1.22-.67 0-1.22-.55-1.22-1.22zm315.59-7.69c0-.67.55-1.21 1.22-1.21.67 0 1.21.54 1.21 1.21 0 .67-.54 1.22-1.21 1.22-.67 0-1.22-.55-1.22-1.22zm-315.59-.42c0-.67.55-1.21 1.22-1.21.67 0 1.21.54 1.21 1.21 0 .68-.54 1.22-1.21 1.22-.67 0-1.22-.54-1.22-1.22zm315.59-7.68c0-.68.55-1.22 1.22-1.22.67 0 1.21.54 1.21 1.22 0 .67-.54 1.21-1.21 1.21-.67 0-1.22-.54-1.22-1.21zm-315.59-.42c0-.67.55-1.22 1.22-1.22.67 0 1.21.55 1.21 1.22 0 .67-.54 1.21-1.21 1.21-.67 0-1.22-.54-1.22-1.21zm315.59-7.69c0-.67.55-1.22 1.22-1.22.67 0 1.21.55 1.21 1.22 0 .67-.54 1.22-1.21 1.22-.67 0-1.22-.55-1.22-1.22zm-315.59-.42c0-.67.55-1.22 1.22-1.22.67 0 1.21.55 1.21 1.22 0 .67-.54 1.22-1.21 1.22-.67 0-1.22-.55-1.22-1.22zm315.59-7.69c0-.67.55-1.21 1.22-1.21.67 0 1.21.54 1.21 1.21 0 .67-.54 1.22-1.21 1.22-.67 0-1.22-.55-1.22-1.22zm-315.59-.42c0-.67.55-1.21 1.22-1.21.67 0 1.21.54 1.21 1.21 0 .67-.54 1.22-1.21 1.22-.67 0-1.22-.55-1.22-1.22zm315.59-7.69c0-.67.55-1.21 1.22-1.21.67 0 1.21.54 1.21 1.21 0 .68-.54 1.22-1.21 1.22-.67 0-1.22-.54-1.22-1.22zm-315.59-.41c0-.68.55-1.22 1.22-1.22.67 0 1.21.54 1.21 1.22 0 .67-.54 1.21-1.21 1.21-.67 0-1.22-.54-1.22-1.21zm315.59-7.69c0-.67.55-1.22 1.22-1.22.67 0 1.21.55 1.21 1.22 0 .67-.54 1.21-1.21 1.21-.67 0-1.22-.54-1.22-1.21zm-315.59-.42c0-.67.55-1.22 1.22-1.22.67 0 1.21.55 1.21 1.22 0 .67-.54 1.22-1.21 1.22-.67 0-1.22-.55-1.22-1.22zm315.59-7.69c0-.67.55-1.22 1.22-1.22.67 0 1.21.55 1.21 1.22 0 .67-.54 1.22-1.21 1.22-.67 0-1.22-.55-1.22-1.22zm-315.59-.42c0-.67.55-1.21 1.22-1.21.67 0 1.21.54 1.21 1.21 0 .67-.54 1.22-1.21 1.22-.67 0-1.22-.55-1.22-1.22zm315.59-7.69c0-.67.55-1.21 1.22-1.21.67 0 1.21.54 1.21 1.21 0 .68-.54 1.22-1.21 1.22-.67 0-1.22-.54-1.22-1.22zm-315.59-.42c0-.67.55-1.21 1.22-1.21.67 0 1.21.54 1.21 1.21 0 .68-.54 1.22-1.21 1.22-.67 0-1.22-.54-1.22-1.22zm315.59-7.68c0-.68.55-1.22 1.22-1.22.67 0 1.21.54 1.21 1.22 0 .67-.54 1.21-1.21 1.21-.67 0-1.22-.54-1.22-1.21zm-315.59-.42c0-.67.55-1.22 1.22-1.22.67 0 1.21.55 1.21 1.22 0 .67-.54 1.21-1.21 1.21-.67 0-1.22-.54-1.22-1.21zm315.59-7.69c0-.67.55-1.22 1.22-1.22.67 0 1.21.55 1.21 1.22 0 .67-.54 1.22-1.21 1.22-.67 0-1.22-.55-1.22-1.22zm-315.59-.42c0-.67.55-1.22 1.22-1.22.67 0 1.21.55 1.21 1.22 0 .67-.54 1.22-1.21 1.22-.67 0-1.22-.55-1.22-1.22zm315.59-7.69c0-.67.55-1.21 1.22-1.21.67 0 1.21.54 1.21 1.21 0 .67-.54 1.22-1.21 1.22-.67 0-1.22-.55-1.22-1.22zm-315.59-.42c0-.67.55-1.21 1.22-1.21.67 0 1.21.54 1.21 1.21 0 .68-.54 1.22-1.21 1.22-.67 0-1.22-.54-1.22-1.22zm315.59-7.68c0-.68.55-1.22 1.22-1.22.67 0 1.21.54 1.21 1.22 0 .67-.54 1.21-1.21 1.21-.67 0-1.22-.54-1.22-1.21zm-315.59-.42c0-.67.55-1.22 1.22-1.22.67 0 1.21.55 1.21 1.22 0 .67-.54 1.21-1.21 1.21-.67 0-1.22-.54-1.22-1.21zm315.59-7.69c0-.67.55-1.22 1.22-1.22.67 0 1.21.55 1.21 1.22 0 .67-.54 1.21-1.21 1.21-.67 0-1.22-.54-1.22-1.21zm-315.59-.42c0-.67.55-1.22 1.22-1.22.67 0 1.21.55 1.21 1.22 0 .67-.54 1.22-1.21 1.22-.67 0-1.22-.55-1.22-1.22zm315.59-7.69c0-.67.55-1.21 1.22-1.21.67 0 1.21.54 1.21 1.21 0 .67-.54 1.22-1.21 1.22-.67 0-1.22-.55-1.22-1.22zm-315.59-.42c0-.67.55-1.21 1.22-1.21.67 0 1.21.54 1.21 1.21 0 .67-.54 1.22-1.21 1.22-.67 0-1.22-.55-1.22-1.22zm315.59-7.68c0-.68.55-1.22 1.22-1.22.67 0 1.21.54 1.21 1.22 0 .67-.54 1.21-1.21 1.21-.67 0-1.22-.54-1.22-1.21zm-315.59-.42c0-.67.55-1.22 1.22-1.22.67 0 1.21.55 1.21 1.22 0 .67-.54 1.21-1.21 1.21-.67 0-1.22-.54-1.22-1.21zm315.59-7.69c0-.67.55-1.22 1.22-1.22.67 0 1.21.55 1.21 1.22 0 .67-.54 1.21-1.21 1.21-.67 0-1.22-.54-1.22-1.21zm-315.59-.42c0-.67.55-1.22 1.22-1.22.67 0 1.21.55 1.21 1.22 0 .67-.54 1.21-1.21 1.21-.67 0-1.22-.54-1.22-1.21zm315.59-7.69c0-.67.55-1.22 1.22-1.22.67 0 1.21.55 1.21 1.22 0 .67-.54 1.22-1.21 1.22-.67 0-1.22-.55-1.22-1.22zm-315.59-.42c0-.67.55-1.21 1.22-1.21.67 0 1.21.54 1.21 1.21 0 .67-.54 1.22-1.21 1.22-.67 0-1.22-.55-1.22-1.22zm315.59-7.69c0-.67.55-1.21 1.22-1.21.67 0 1.21.54 1.21 1.21 0 .67-.54 1.22-1.21 1.22-.67 0-1.22-.55-1.22-1.22zm-315.59-.41c0-.68.55-1.22 1.22-1.22.67 0 1.21.54 1.21 1.22 0 .67-.54 1.21-1.21 1.21-.67 0-1.22-.54-1.22-1.21zm315.59-7.69c0-.68.55-1.22 1.22-1.22.67 0 1.21.54 1.21 1.22 0 .67-.54 1.21-1.21 1.21-.67 0-1.22-.54-1.22-1.21zm-315.59-.42c0-.67.55-1.22 1.22-1.22.67 0 1.21.55 1.21 1.22 0 .67-.54 1.21-1.21 1.21-.67 0-1.22-.54-1.22-1.21zm315.59-7.69c0-.67.55-1.22 1.22-1.22.67 0 1.21.55 1.21 1.22 0 .67-.54 1.22-1.21 1.22-.67 0-1.22-.55-1.22-1.22zm-315.59-.42c0-.67.55-1.21 1.22-1.21.67 0 1.21.54 1.21 1.21 0 .67-.54 1.22-1.21 1.22-.67 0-1.22-.55-1.22-1.22zm315.59-7.69c0-.67.55-1.21 1.22-1.21.67 0 1.21.54 1.21 1.21 0 .67-.54 1.22-1.21 1.22-.67 0-1.22-.55-1.22-1.22zm-315.59-.42c0-.67.55-1.21 1.22-1.21.67 0 1.21.54 1.21 1.21 0 .68-.54 1.22-1.21 1.22-.67 0-1.22-.54-1.22-1.22zm315.59-7.68c0-.68.55-1.22 1.22-1.22.67 0 1.21.54 1.21 1.22 0 .67-.54 1.21-1.21 1.21-.67 0-1.22-.54-1.22-1.21zm-315.59-.42c0-.67.55-1.22 1.22-1.22.67 0 1.21.55 1.21 1.22 0 .67-.54 1.21-1.21 1.21-.67 0-1.22-.54-1.22-1.21zm315.59-7.69c0-.67.55-1.22 1.22-1.22.67 0 1.21.55 1.21 1.22 0 .67-.54 1.22-1.21 1.22-.67 0-1.22-.55-1.22-1.22zm-315.59-.42c0-.67.55-1.22 1.22-1.22.67 0 1.21.55 1.21 1.22 0 .67-.54 1.22-1.21 1.22-.67 0-1.22-.55-1.22-1.22zm315.59-7.69c0-.67.55-1.21 1.22-1.21.67 0 1.21.54 1.21 1.21 0 .67-.54 1.22-1.21 1.22-.67 0-1.22-.55-1.22-1.22zm-315.59-.42c0-.67.55-1.21 1.22-1.21.67 0 1.21.54 1.21 1.21 0 .67-.54 1.22-1.21 1.22-.67 0-1.22-.55-1.22-1.22zm315.59-7.69c0-.67.55-1.21 1.22-1.21.67 0 1.21.54 1.21 1.21 0 .68-.54 1.22-1.21 1.22-.67 0-1.22-.54-1.22-1.22zm-315.59-.41c0-.68.55-1.22 1.22-1.22.67 0 1.21.54 1.21 1.22 0 .67-.54 1.21-1.21 1.21-.67 0-1.22-.54-1.22-1.21zm315.59-7.69c0-.67.55-1.22 1.22-1.22.67 0 1.21.55 1.21 1.22 0 .67-.54 1.21-1.21 1.21-.67 0-1.22-.54-1.22-1.21zm-315.59-.42c0-.67.55-1.22 1.22-1.22.67 0 1.21.55 1.21 1.22 0 .67-.54 1.22-1.21 1.22-.67 0-1.22-.55-1.22-1.22zm315.59-7.69c0-.67.55-1.22 1.22-1.22.67 0 1.21.55 1.21 1.22 0 .67-.54 1.22-1.21 1.22-.67 0-1.22-.55-1.22-1.22zm-315.59-.42c0-.67.55-1.21 1.22-1.21.67 0 1.21.54 1.21 1.21 0 .67-.54 1.22-1.21 1.22-.67 0-1.22-.55-1.22-1.22zm315.59-7.69c0-.67.55-1.21 1.22-1.21.67 0 1.21.54 1.21 1.21 0 .68-.54 1.22-1.21 1.22-.67 0-1.22-.54-1.22-1.22zm-315.59-.42c0-.67.55-1.21 1.22-1.21.67 0 1.21.54 1.21 1.21 0 .68-.54 1.22-1.21 1.22-.67 0-1.22-.54-1.22-1.22zm315.59-7.68c0-.68.55-1.22 1.22-1.22.67 0 1.21.54 1.21 1.22 0 .67-.54 1.21-1.21 1.21-.67 0-1.22-.54-1.22-1.21zm-315.59-.42c0-.67.55-1.22 1.22-1.22.67 0 1.21.55 1.21 1.22 0 .67-.54 1.21-1.21 1.21-.67 0-1.22-.54-1.22-1.21zm315.59-7.69c0-.67.55-1.22 1.22-1.22.67 0 1.21.55 1.21 1.22 0 .67-.54 1.22-1.21 1.22-.67 0-1.22-.55-1.22-1.22zm-315.59-.42c0-.67.55-1.22 1.22-1.22.67 0 1.21.55 1.21 1.22 0 .67-.54 1.22-1.21 1.22-.67 0-1.22-.55-1.22-1.22zm315.59-7.69c0-.67.55-1.21 1.22-1.21.67 0 1.21.54 1.21 1.21 0 .67-.54 1.22-1.21 1.22-.67 0-1.22-.55-1.22-1.22zm-315.59-.41c0-.68.55-1.22 1.22-1.22.67 0 1.21.54 1.21 1.22 0 .67-.54 1.21-1.21 1.21-.67 0-1.22-.54-1.22-1.21zm315.59-7.69c0-.68.55-1.22 1.22-1.22.67 0 1.21.54 1.21 1.22 0 .67-.54 1.21-1.21 1.21-.67 0-1.22-.54-1.22-1.21zm-315.59-.42c0-.67.55-1.22 1.22-1.22.67 0 1.21.55 1.21 1.22 0 .67-.54 1.21-1.21 1.21-.67 0-1.22-.54-1.22-1.21zm315.59-7.69c0-.67.55-1.22 1.22-1.22.67 0 1.21.55 1.21 1.22 0 .67-.54 1.21-1.21 1.21-.67 0-1.22-.54-1.22-1.21zm-315.59-.42c0-.67.55-1.22 1.22-1.22.67 0 1.21.55 1.21 1.22 0 .67-.54 1.22-1.21 1.22-.67 0-1.22-.55-1.22-1.22zm315.59-7.69c0-.67.55-1.21 1.22-1.21.67 0 1.21.54 1.21 1.21 0 .67-.54 1.22-1.21 1.22-.67 0-1.22-.55-1.22-1.22zm-315.59-.42c0-.67.55-1.21 1.22-1.21.67 0 1.21.54 1.21 1.21 0 .67-.54 1.22-1.21 1.22-.67 0-1.22-.55-1.22-1.22zm315.59-7.68c0-.68.55-1.22 1.22-1.22.67 0 1.21.54 1.21 1.22 0 .67-.54 1.21-1.21 1.21-.67 0-1.22-.54-1.22-1.21zm-315.59-.42c0-.67.55-1.22 1.22-1.22.67 0 1.21.55 1.21 1.22 0 .67-.54 1.21-1.21 1.21-.67 0-1.22-.54-1.22-1.21zm315.59-7.69c0-.67.55-1.22 1.22-1.22.67 0 1.21.55 1.21 1.22 0 .67-.54 1.21-1.21 1.21-.67 0-1.22-.54-1.22-1.21zm-315.59-.42c0-.67.55-1.22 1.22-1.22.67 0 1.21.55 1.21 1.22 0 .67-.54 1.21-1.21 1.21-.67 0-1.22-.54-1.22-1.21zm315.59-7.69c0-.67.55-1.21 1.22-1.21.67 0 1.21.54 1.21 1.21 0 .67-.54 1.22-1.21 1.22-.67 0-1.22-.55-1.22-1.22zm-315.59-.42c0-.67.55-1.21 1.22-1.21.67 0 1.21.54 1.21 1.21 0 .67-.54 1.22-1.21 1.22-.67 0-1.22-.55-1.22-1.22zm315.59-7.69c0-.67.55-1.21 1.22-1.21.67 0 1.21.54 1.21 1.21 0 .67-.54 1.22-1.21 1.22-.67 0-1.22-.55-1.22-1.22zm-315.59-.41c0-.68.55-1.22 1.22-1.22.67 0 1.21.54 1.21 1.22 0 .67-.54 1.21-1.21 1.21-.67 0-1.22-.54-1.22-1.21zm315.59-7.69c0-.67.55-1.22 1.22-1.22.67 0 1.21.55 1.21 1.22 0 .67-.54 1.21-1.21 1.21-.67 0-1.22-.54-1.22-1.21zm-315.59-.42c0-.67.55-1.22 1.22-1.22.67 0 1.21.55 1.21 1.22 0 .67-.54 1.21-1.21 1.21-.67 0-1.22-.54-1.22-1.21zm315.59-7.69c0-.67.55-1.22 1.22-1.22.67 0 1.21.55 1.21 1.22 0 .67-.54 1.22-1.21 1.22-.67 0-1.22-.55-1.22-1.22zm-315.59-.42c0-.67.55-1.21 1.22-1.21.67 0 1.21.54 1.21 1.21 0 .67-.54 1.22-1.21 1.22-.67 0-1.22-.55-1.22-1.22zm315.59-7.69c0-.67.55-1.21 1.22-1.21.67 0 1.21.54 1.21 1.21 0 .68-.54 1.22-1.21 1.22-.67 0-1.22-.54-1.22-1.22zm-315.59-.42c0-.67.55-1.21 1.22-1.21.67 0 1.21.54 1.21 1.21 0 .68-.54 1.22-1.21 1.22-.67 0-1.22-.54-1.22-1.22zm315.59-7.68c0-.68.55-1.22 1.22-1.22.67 0 1.21.54 1.21 1.22 0 .67-.54 1.21-1.21 1.21-.67 0-1.22-.54-1.22-1.21zm-315.59-.42c0-.67.55-1.22 1.22-1.22.67 0 1.21.55 1.21 1.22 0 .67-.54 1.21-1.21 1.21-.67 0-1.22-.54-1.22-1.21zm315.59-7.69c0-.67.55-1.22 1.22-1.22.67 0 1.21.55 1.21 1.22 0 .67-.54 1.22-1.21 1.22-.67 0-1.22-.55-1.22-1.22zm-315.59-.42c0-.67.55-1.22 1.22-1.22.67 0 1.21.55 1.21 1.22 0 .67-.54 1.22-1.21 1.22-.67 0-1.22-.55-1.22-1.22zm315.59-7.69c0-.67.55-1.21 1.22-1.21.67 0 1.21.54 1.21 1.21 0 .67-.54 1.22-1.21 1.22-.67 0-1.22-.55-1.22-1.22zm-315.59-.42c0-.67.55-1.21 1.22-1.21.67 0 1.21.54 1.21 1.21 0 .68-.54 1.22-1.21 1.22-.67 0-1.22-.54-1.22-1.22zm315.59-7.68c0-.68.55-1.22 1.22-1.22.67 0 1.21.54 1.21 1.22 0 .67-.54 1.21-1.21 1.21-.67 0-1.22-.54-1.22-1.21zm-315.59-.42c0-.68.55-1.22 1.22-1.22.67 0 1.21.54 1.21 1.22 0 .67-.54 1.21-1.21 1.21-.67 0-1.22-.54-1.22-1.21zm315.59-7.69c0-.67.55-1.22 1.22-1.22.67 0 1.21.55 1.21 1.22 0 .67-.54 1.21-1.21 1.21-.67 0-1.22-.54-1.22-1.21zm-315.59-.42c0-.67.55-1.22 1.22-1.22.67 0 1.21.55 1.21 1.22 0 .67-.54 1.22-1.21 1.22-.67 0-1.22-.55-1.22-1.22zm315.59-7.69c0-.67.55-1.22 1.22-1.22.67 0 1.21.55 1.21 1.22 0 .67-.54 1.22-1.21 1.22-.67 0-1.22-.55-1.22-1.22zm-315.59-.42c0-.67.55-1.21 1.22-1.21.67 0 1.21.54 1.21 1.21 0 .67-.54 1.22-1.21 1.22-.67 0-1.22-.55-1.22-1.22zm315.59-7.69c0-.67.55-1.21 1.22-1.21.67 0 1.21.54 1.21 1.21 0 .68-.54 1.22-1.21 1.22-.67 0-1.22-.54-1.22-1.22zm-315.59-.41c0-.68.55-1.22 1.22-1.22.67 0 1.21.54 1.21 1.22 0 .67-.54 1.21-1.21 1.21-.67 0-1.22-.54-1.22-1.21zm315.59-7.69c0-.67.55-1.22 1.22-1.22.67 0 1.21.55 1.21 1.22 0 .67-.54 1.21-1.21 1.21-.67 0-1.22-.54-1.22-1.21zm-315.59-.42c0-.67.55-1.22 1.22-1.22.67 0 1.21.55 1.21 1.22 0 .67-.54 1.21-1.21 1.21-.67 0-1.22-.54-1.22-1.21zm315.59-7.69c0-.67.55-1.22 1.22-1.22.67 0 1.21.55 1.21 1.22 0 .67-.54 1.22-1.21 1.22-.67 0-1.22-.55-1.22-1.22zm-315.59-.42c0-.67.55-1.21 1.22-1.21.67 0 1.21.54 1.21 1.21 0 .67-.54 1.22-1.21 1.22-.67 0-1.22-.55-1.22-1.22zm315.59-7.69c0-.67.55-1.21 1.22-1.21.67 0 1.21.54 1.21 1.21 0 .67-.54 1.22-1.21 1.22-.67 0-1.22-.55-1.22-1.22zm-315.59-.41c0-.68.55-1.22 1.22-1.22.67 0 1.21.54 1.21 1.22 0 .67-.54 1.21-1.21 1.21-.67 0-1.22-.54-1.22-1.21zm315.59-7.69c0-.67.55-1.22 1.22-1.22.67 0 1.21.55 1.21 1.22 0 .67-.54 1.21-1.21 1.21-.67 0-1.22-.54-1.22-1.21zm-315.59-.42c0-.67.55-1.22 1.22-1.22.67 0 1.21.55 1.21 1.22 0 .67-.54 1.21-1.21 1.21-.67 0-1.22-.54-1.22-1.21zm315.59-7.69c0-.67.55-1.22 1.22-1.22.67 0 1.21.55 1.21 1.22 0 .67-.54 1.21-1.21 1.21-.67 0-1.22-.54-1.22-1.21zm-315.59-.42c0-.67.55-1.21 1.22-1.21.67 0 1.21.54 1.21 1.21 0 .67-.54 1.22-1.21 1.22-.67 0-1.22-.55-1.22-1.22zm315.59-7.69c0-.67.55-1.21 1.22-1.21.67 0 1.21.54 1.21 1.21 0 .67-.54 1.22-1.21 1.22-.67 0-1.22-.55-1.22-1.22zm-315.59-.42c0-.67.55-1.21 1.22-1.21.67 0 1.21.54 1.21 1.21 0 .68-.54 1.22-1.21 1.22-.67 0-1.22-.54-1.22-1.22zm315.59-7.68c0-.68.55-1.22 1.22-1.22.67 0 1.21.54 1.21 1.22 0 .67-.54 1.21-1.21 1.21-.67 0-1.22-.54-1.22-1.21zm-315.59-.42c0-.67.55-1.22 1.22-1.22.67 0 1.21.55 1.21 1.22 0 .67-.54 1.21-1.21 1.21-.67 0-1.22-.54-1.22-1.21zm315.59-7.69c0-.67.55-1.22 1.22-1.22.67 0 1.21.55 1.21 1.22 0 .67-.54 1.21-1.21 1.21-.67 0-1.22-.54-1.22-1.21zm-315.59-.42c0-.67.55-1.22 1.22-1.22.67 0 1.21.55 1.21 1.22 0 .67-.54 1.22-1.21 1.22-.67 0-1.22-.55-1.22-1.22zm315.59-7.69c0-.67.55-1.21 1.22-1.21.67 0 1.21.54 1.21 1.21 0 .67-.54 1.22-1.21 1.22-.67 0-1.22-.55-1.22-1.22zm-315.59-.42c0-.67.55-1.21 1.22-1.21.67 0 1.21.54 1.21 1.21 0 .67-.54 1.22-1.21 1.22-.67 0-1.22-.55-1.22-1.22zm315.59-7.69c0-.67.55-1.21 1.22-1.21.67 0 1.21.54 1.21 1.21 0 .68-.54 1.22-1.21 1.22-.67 0-1.22-.54-1.22-1.22zm-315.59-.41c0-.68.55-1.22 1.22-1.22.67 0 1.21.54 1.21 1.22 0 .67-.54 1.21-1.21 1.21-.67 0-1.22-.54-1.22-1.21zm315.59-7.69c0-.67.55-1.22 1.22-1.22.67 0 1.21.55 1.21 1.22 0 .67-.54 1.21-1.21 1.21-.67 0-1.22-.54-1.22-1.21zm-315.59-.42c0-.67.55-1.22 1.22-1.22.67 0 1.21.55 1.21 1.22 0 .67-.54 1.22-1.21 1.22-.67 0-1.22-.55-1.22-1.22zm315.59-7.69c0-.67.55-1.22 1.22-1.22.67 0 1.21.55 1.21 1.22 0 .67-.54 1.22-1.21 1.22-.67 0-1.22-.55-1.22-1.22zm-315.59-.42c0-.67.55-1.21 1.22-1.21.67 0 1.21.54 1.21 1.21 0 .67-.54 1.22-1.21 1.22-.67 0-1.22-.55-1.22-1.22zm315.59-7.69c0-.67.55-1.21 1.22-1.21.67 0 1.21.54 1.21 1.21 0 .68-.54 1.22-1.21 1.22-.67 0-1.22-.54-1.22-1.22zm-315.59-.41c0-.68.55-1.22 1.22-1.22.67 0 1.21.54 1.21 1.22 0 .67-.54 1.21-1.21 1.21-.67 0-1.22-.54-1.22-1.21zm315.59-7.69c0-.67.55-1.22 1.22-1.22.67 0 1.21.55 1.21 1.22 0 .67-.54 1.21-1.21 1.21-.67 0-1.22-.54-1.22-1.21zm-315.59-.42c0-.67.55-1.22 1.22-1.22.67 0 1.21.55 1.21 1.22 0 .67-.54 1.21-1.21 1.21-.67 0-1.22-.54-1.22-1.21zm315.59-7.69c0-.67.55-1.22 1.22-1.22.67 0 1.21.55 1.21 1.22 0 .67-.54 1.22-1.21 1.22-.67 0-1.22-.55-1.22-1.22zm-315.59-.42c0-.67.55-1.22 1.22-1.22.67 0 1.21.55 1.21 1.22 0 .67-.54 1.22-1.21 1.22-.67 0-1.22-.55-1.22-1.22zm315.59-7.69c0-.67.55-1.21 1.22-1.21.67 0 1.21.54 1.21 1.21 0 .67-.54 1.22-1.21 1.22-.67 0-1.22-.55-1.22-1.22zm-315.59-.41c0-.68.55-1.22 1.22-1.22.67 0 1.21.54 1.21 1.22 0 .67-.54 1.21-1.21 1.21-.67 0-1.22-.54-1.22-1.21zm315.59-7.69c0-.68.55-1.22 1.22-1.22.67 0 1.21.54 1.21 1.22 0 .67-.54 1.21-1.21 1.21-.67 0-1.22-.54-1.22-1.21zm-315.59-.42c0-.67.55-1.22 1.22-1.22.67 0 1.21.55 1.21 1.22 0 .67-.54 1.21-1.21 1.21-.67 0-1.22-.54-1.22-1.21zm315.59-7.69c0-.67.55-1.22 1.22-1.22.67 0 1.21.55 1.21 1.22 0 .67-.54 1.21-1.21 1.21-.67 0-1.22-.54-1.22-1.21zm-315.59-.42c0-.67.55-1.22 1.22-1.22.67 0 1.21.55 1.21 1.22 0 .67-.54 1.22-1.21 1.22-.67 0-1.22-.55-1.22-1.22zm315.59-7.69c0-.67.55-1.21 1.22-1.21.67 0 1.21.54 1.21 1.21 0 .67-.54 1.22-1.21 1.22-.67 0-1.22-.55-1.22-1.22zm-315.59-.42c0-.67.55-1.21 1.22-1.21.67 0 1.21.54 1.21 1.21 0 .68-.54 1.22-1.21 1.22-.67 0-1.22-.54-1.22-1.22zm315.59-7.68c0-.68.55-1.22 1.22-1.22.67 0 1.21.54 1.21 1.22 0 .67-.54 1.21-1.21 1.21-.67 0-1.22-.54-1.22-1.21zm-315.59-.42c0-.67.55-1.22 1.22-1.22.67 0 1.21.55 1.21 1.22 0 .67-.54 1.21-1.21 1.21-.67 0-1.22-.54-1.22-1.21zm315.59-7.69c0-.67.55-1.22 1.22-1.22.67 0 1.21.55 1.21 1.22 0 .67-.54 1.21-1.21 1.21-.67 0-1.22-.54-1.22-1.21zm-315.59-.42c0-.67.55-1.22 1.22-1.22.67 0 1.21.55 1.21 1.22 0 .67-.54 1.21-1.21 1.21-.67 0-1.22-.54-1.22-1.21zm315.59-7.69c0-.67.55-1.22 1.22-1.22.67 0 1.21.55 1.21 1.22 0 .67-.54 1.22-1.21 1.22-.67 0-1.22-.55-1.22-1.22zm-315.59-.42c0-.67.55-1.21 1.22-1.21.67 0 1.21.54 1.21 1.21 0 .67-.54 1.22-1.21 1.22-.67 0-1.22-.55-1.22-1.22zm315.59-7.69c0-.67.55-1.21 1.22-1.21.67 0 1.21.54 1.21 1.21 0 .67-.54 1.22-1.21 1.22-.67 0-1.22-.55-1.22-1.22zm-315.59-.41c0-.68.55-1.22 1.22-1.22.67 0 1.21.54 1.21 1.22 0 .67-.54 1.21-1.21 1.21-.67 0-1.22-.54-1.22-1.21zm315.59-7.69c0-.68.55-1.22 1.22-1.22.67 0 1.21.54 1.21 1.22 0 .67-.54 1.21-1.21 1.21-.67 0-1.22-.54-1.22-1.21zm-315.59-.42c0-.67.55-1.22 1.22-1.22.67 0 1.21.55 1.21 1.22 0 .67-.54 1.22-1.21 1.22-.67 0-1.22-.55-1.22-1.22zm315.59-7.69c0-.67.55-1.22 1.22-1.22.67 0 1.21.55 1.21 1.22 0 .67-.54 1.22-1.21 1.22-.67 0-1.22-.55-1.22-1.22zm-315.59-.42c0-.67.55-1.21 1.22-1.21.67 0 1.21.54 1.21 1.21 0 .67-.54 1.22-1.21 1.22-.67 0-1.22-.55-1.22-1.22zm315.59-7.69c0-.67.55-1.21 1.22-1.21.67 0 1.21.54 1.21 1.21 0 .67-.54 1.22-1.21 1.22-.67 0-1.22-.55-1.22-1.22zm-315.59-.42c0-.67.55-1.21 1.22-1.21.67 0 1.21.54 1.21 1.21 0 .68-.54 1.22-1.21 1.22-.67 0-1.22-.54-1.22-1.22zm315.59-7.68c0-.68.55-1.22 1.22-1.22.67 0 1.21.54 1.21 1.22 0 .67-.54 1.21-1.21 1.21-.67 0-1.22-.54-1.22-1.21zm-315.59-.42c0-.67.55-1.22 1.22-1.22.67 0 1.21.55 1.21 1.22 0 .67-.54 1.21-1.21 1.21-.67 0-1.22-.54-1.22-1.21zm315.59-7.69c0-.67.55-1.22 1.22-1.22.67 0 1.21.55 1.21 1.22 0 .67-.54 1.22-1.21 1.22-.67 0-1.22-.55-1.22-1.22zm-315.59-.42c0-.67.55-1.22 1.22-1.22.67 0 1.21.55 1.21 1.22 0 .67-.54 1.22-1.21 1.22-.67 0-1.22-.55-1.22-1.22zm315.59-7.69c0-.67.55-1.21 1.22-1.21.67 0 1.21.54 1.21 1.21 0 .67-.54 1.22-1.21 1.22-.67 0-1.22-.55-1.22-1.22zm-315.59-.42c0-.67.55-1.21 1.22-1.21.67 0 1.21.54 1.21 1.21 0 .68-.54 1.22-1.21 1.22-.67 0-1.22-.54-1.22-1.22zm315.59-7.68c0-.68.55-1.22 1.22-1.22.67 0 1.21.54 1.21 1.22 0 .67-.54 1.21-1.21 1.21-.67 0-1.22-.54-1.22-1.21zm-315.59-.42c0-.68.55-1.22 1.22-1.22.67 0 1.21.54 1.21 1.22 0 .67-.54 1.21-1.21 1.21-.67 0-1.22-.54-1.22-1.21zm315.59-7.69c0-.67.55-1.22 1.22-1.22.67 0 1.21.55 1.21 1.22 0 .67-.54 1.21-1.21 1.21-.67 0-1.22-.54-1.22-1.21zm-315.59-.42c0-.67.55-1.22 1.22-1.22.67 0 1.21.55 1.21 1.22 0 .67-.54 1.22-1.21 1.22-.67 0-1.22-.55-1.22-1.22zm315.59-7.69c0-.67.55-1.22 1.22-1.22.67 0 1.21.55 1.21 1.22 0 .67-.54 1.22-1.21 1.22-.67 0-1.22-.55-1.22-1.22zm-315.59-.42c0-.67.55-1.21 1.22-1.21.67 0 1.21.54 1.21 1.21 0 .67-.54 1.22-1.21 1.22-.67 0-1.22-.55-1.22-1.22zm315.59-7.68c0-.68.55-1.22 1.22-1.22.67 0 1.21.54 1.21 1.22 0 .67-.54 1.21-1.21 1.21-.67 0-1.22-.54-1.22-1.21zm-315.59-.42c0-.68.55-1.22 1.22-1.22.67 0 1.21.54 1.21 1.22 0 .67-.54 1.21-1.21 1.21-.67 0-1.22-.54-1.22-1.21zm315.59-7.69c0-.67.55-1.22 1.22-1.22.67 0 1.21.55 1.21 1.22 0 .67-.54 1.21-1.21 1.21-.67 0-1.22-.54-1.22-1.21zm-315.59-.42c0-.67.55-1.22 1.22-1.22.67 0 1.21.55 1.21 1.22 0 .67-.54 1.21-1.21 1.21-.67 0-1.22-.54-1.22-1.21zm315.59-7.69c0-.67.55-1.22 1.22-1.22.67 0 1.21.55 1.21 1.22 0 .67-.54 1.22-1.21 1.22-.67 0-1.22-.55-1.22-1.22zm-315.59-.42c0-.67.55-1.21 1.22-1.21.67 0 1.21.54 1.21 1.21 0 .67-.54 1.22-1.21 1.22-.67 0-1.22-.55-1.22-1.22zm315.59-7.69c0-.17.04-.34.11-.5-.07-.15-.11-.32-.11-.5 0-.67.55-1.21 1.22-1.21.67 0 1.21.54 1.21 1.21 0 .18-.03.35-.1.5.07.16.1.33.1.5 0 .67-.54 1.22-1.21 1.22-.67 0-1.22-.55-1.22-1.22zm-315.59-.41c0-.68.55-1.22 1.22-1.22.67 0 1.21.54 1.21 1.22 0 .67-.54 1.21-1.21 1.21-.67 0-1.22-.54-1.22-1.21zm307.48-.59c0-.67.55-1.21 1.22-1.21.67 0 1.22.54 1.22 1.21 0 .67-.55 1.22-1.22 1.22-.67 0-1.22-.55-1.22-1.22zm-8.1 0c0-.67.54-1.21 1.21-1.21.68 0 1.22.54 1.22 1.21 0 .67-.54 1.22-1.22 1.22-.67 0-1.21-.55-1.21-1.22zm-8.11 0c0-.67.54-1.21 1.22-1.21.67 0 1.21.54 1.21 1.21 0 .67-.54 1.22-1.21 1.22-.68 0-1.22-.55-1.22-1.22zm-8.11 0c0-.67.55-1.21 1.22-1.21.67 0 1.22.54 1.22 1.21 0 .67-.55 1.22-1.22 1.22-.67 0-1.22-.55-1.22-1.22zm-8.1 0c0-.67.54-1.21 1.21-1.21.68 0 1.22.54 1.22 1.21 0 .67-.54 1.22-1.22 1.22-.67 0-1.21-.55-1.21-1.22zm-8.11 0c0-.67.54-1.21 1.22-1.21.67 0 1.21.54 1.21 1.21 0 .67-.54 1.22-1.21 1.22-.68 0-1.22-.55-1.22-1.22zm-8.11 0c0-.67.55-1.21 1.22-1.21.67 0 1.22.54 1.22 1.21 0 .67-.55 1.22-1.22 1.22-.67 0-1.22-.55-1.22-1.22zm-8.1 0c0-.67.54-1.21 1.21-1.21.67 0 1.22.54 1.22 1.21 0 .67-.55 1.22-1.22 1.22-.67 0-1.21-.55-1.21-1.22zm-8.11 0c0-.67.54-1.21 1.22-1.21.67 0 1.21.54 1.21 1.21 0 .67-.54 1.22-1.21 1.22-.68 0-1.22-.55-1.22-1.22zm-8.11 0c0-.67.55-1.21 1.22-1.21.67 0 1.21.54 1.21 1.21 0 .67-.54 1.22-1.21 1.22-.67 0-1.22-.55-1.22-1.22zm-8.1 0c0-.67.54-1.21 1.21-1.21.67 0 1.22.54 1.22 1.21 0 .67-.55 1.22-1.22 1.22-.67 0-1.21-.55-1.21-1.22zm-8.11 0c0-.67.54-1.21 1.21-1.21.68 0 1.22.54 1.22 1.21 0 .67-.54 1.22-1.22 1.22-.67 0-1.21-.55-1.21-1.22zm-8.11 0c0-.67.55-1.21 1.22-1.21.67 0 1.21.54 1.21 1.21 0 .67-.54 1.22-1.21 1.22-.67 0-1.22-.55-1.22-1.22zm-8.11 0c0-.67.55-1.21 1.22-1.21.67 0 1.22.54 1.22 1.21 0 .67-.55 1.22-1.22 1.22-.67 0-1.22-.55-1.22-1.22zm-8.1 0c0-.67.54-1.21 1.21-1.21.67 0 1.22.54 1.22 1.21 0 .67-.55 1.22-1.22 1.22-.67 0-1.21-.55-1.21-1.22zm-8.11 0c0-.67.54-1.21 1.22-1.21.67 0 1.21.54 1.21 1.21 0 .67-.54 1.22-1.21 1.22-.68 0-1.22-.55-1.22-1.22zm-8.11 0c0-.67.55-1.21 1.22-1.21.67 0 1.22.54 1.22 1.21 0 .67-.55 1.22-1.22 1.22-.67 0-1.22-.55-1.22-1.22zm-8.1 0c0-.67.54-1.21 1.21-1.21.67 0 1.22.54 1.22 1.21 0 .67-.55 1.22-1.22 1.22-.67 0-1.21-.55-1.21-1.22zm-8.11 0c0-.67.54-1.21 1.21-1.21.68 0 1.22.54 1.22 1.21 0 .67-.54 1.22-1.22 1.22-.67 0-1.21-.55-1.21-1.22zm-8.11 0c0-.67.55-1.21 1.22-1.21.67 0 1.21.54 1.21 1.21 0 .67-.54 1.22-1.21 1.22-.67 0-1.22-.55-1.22-1.22zm-8.11 0c0-.67.55-1.21 1.22-1.21.67 0 1.22.54 1.22 1.21 0 .67-.55 1.22-1.22 1.22-.67 0-1.22-.55-1.22-1.22zm-8.1 0c0-.67.54-1.21 1.22-1.21.67 0 1.21.54 1.21 1.21 0 .67-.54 1.22-1.21 1.22-.68 0-1.22-.55-1.22-1.22zm-8.11 0c0-.67.55-1.21 1.22-1.21.67 0 1.21.54 1.21 1.21 0 .67-.54 1.22-1.21 1.22-.67 0-1.22-.55-1.22-1.22zm-8.11 0c0-.67.55-1.21 1.22-1.21.67 0 1.22.54 1.22 1.21 0 .67-.55 1.22-1.22 1.22-.67 0-1.22-.55-1.22-1.22zm-8.1 0c0-.67.54-1.21 1.21-1.21.68 0 1.22.54 1.22 1.21 0 .67-.54 1.22-1.22 1.22-.67 0-1.21-.55-1.21-1.22zm-8.11 0c0-.67.55-1.21 1.22-1.21.67 0 1.21.54 1.21 1.21 0 .67-.54 1.22-1.21 1.22-.67 0-1.22-.55-1.22-1.22zm-8.11 0c0-.67.55-1.21 1.22-1.21.67 0 1.22.54 1.22 1.21 0 .67-.55 1.22-1.22 1.22-.67 0-1.22-.55-1.22-1.22zm-8.1 0c0-.67.54-1.21 1.21-1.21.67 0 1.22.54 1.22 1.21 0 .67-.55 1.22-1.22 1.22-.67 0-1.21-.55-1.21-1.22zm-8.11 0c0-.67.54-1.21 1.22-1.21.67 0 1.21.54 1.21 1.21 0 .67-.54 1.22-1.21 1.22-.68 0-1.22-.55-1.22-1.22zm-8.11 0c0-.67.55-1.21 1.22-1.21.67 0 1.21.54 1.21 1.21 0 .67-.54 1.22-1.21 1.22-.67 0-1.22-.55-1.22-1.22zm-8.1 0c0-.67.54-1.21 1.21-1.21.67 0 1.22.54 1.22 1.21 0 .67-.55 1.22-1.22 1.22-.67 0-1.21-.55-1.21-1.22zm-8.11 0c0-.67.54-1.21 1.21-1.21.68 0 1.22.54 1.22 1.21 0 .67-.54 1.22-1.22 1.22-.67 0-1.21-.55-1.21-1.22zm-8.11 0c0-.67.55-1.21 1.22-1.21.67 0 1.21.54 1.21 1.21 0 .67-.54 1.22-1.21 1.22-.67 0-1.22-.55-1.22-1.22zm-8.11 0c0-.67.55-1.21 1.22-1.21.67 0 1.22.54 1.22 1.21 0 .67-.55 1.22-1.22 1.22-.67 0-1.22-.55-1.22-1.22zm-8.1 0c0-.67.54-1.21 1.21-1.21.68 0 1.22.54 1.22 1.21 0 .67-.54 1.22-1.22 1.22-.67 0-1.21-.55-1.21-1.22zm-8.11 0c0-.67.54-1.21 1.22-1.21.67 0 1.21.54 1.21 1.21 0 .67-.54 1.22-1.21 1.22-.68 0-1.22-.55-1.22-1.22zm-8.11 0c0-.67.55-1.21 1.22-1.21.67 0 1.22.54 1.22 1.21 0 .67-.55 1.22-1.22 1.22-.67 0-1.22-.55-1.22-1.22zm-8.1 0c0-.67.54-1.21 1.21-1.21.67 0 1.22.54 1.22 1.21 0 .67-.55 1.22-1.22 1.22-.67 0-1.21-.55-1.21-1.22z" fill="#231f20"/><path d="m947.678 1130.243-89.808-24.064-89.809-24.064 24.065 89.808 24.064 89.809 44.047-59.867 44.317 44.317 27.575-27.575-44.317-44.317z" fill="#231f20"/><circle cx="997.096" cy="1142.179" fill="#fff" r="35.092"/><g fill="#231f20"><path d="M997.096 1179.298c-20.467 0-37.119-16.652-37.119-37.119s16.652-37.119 37.119-37.119 37.119 16.651 37.119 37.119-16.652 37.119-37.119 37.119zm0-70.184c-18.232 0-33.065 14.833-33.065 33.065s14.833 33.065 33.065 33.065 33.065-14.833 33.065-33.065-14.833-33.065-33.065-33.065z"/><path d="m1015.451 1173.598-3.987-.732c.012-.065 1.168-6.573-.188-13.387-1.729-8.687-6.624-13.837-14.55-15.307l.739-3.985c18.467 3.423 19.84 23.352 17.986 33.411z"/><path d="M1030.855 1145.078c-.05-.043-5.108-4.298-11.688-6.53-8.386-2.845-15.295-1.182-20.531 4.947l-3.082-2.633c12.198-14.279 30.144-5.505 37.928 1.129z"/><path d="M995.185 1142.855c-6.269-17.704 10.304-28.858 19.942-32.282l1.359 3.819c-.062.022-6.276 2.275-11.499 6.856-6.659 5.841-8.671 12.655-5.98 20.254z"/><path d="M996.726 1144.171c-18.467-3.423-19.84-23.352-17.986-33.411l3.987.732c-.012.065-1.168 6.573.188 13.387 1.729 8.687 6.625 13.837 14.55 15.306z"/><path d="M982.475 1151.179c-8.627 0-17.056-4.798-21.767-8.812l2.627-3.086c.05.043 5.108 4.298 11.688 6.53 8.388 2.847 15.295 1.181 20.531-4.948l3.082 2.633c-4.816 5.638-10.531 7.683-16.161 7.683z"/><path d="m979.064 1173.785-1.359-3.819c.062-.022 6.276-2.275 11.499-6.856 6.659-5.841 8.671-12.656 5.981-20.254l3.821-1.353c6.269 17.704-10.304 28.858-19.942 32.282zM869.369 238.268l-5.108 11.5 5.108 11.499-11.499-5.108-11.5 5.108 5.103-11.499-5.103-11.5 11.5 5.109zm385.759 129.098-5.109 11.499 5.109 11.499-11.5-5.108-11.499 5.108 5.102-11.499-5.102-11.499 11.499 5.108zm-197.107 574.873-5.109 11.499 5.109 11.5-11.499-5.109-11.5 5.109 5.103-11.5-5.103-11.499 11.5 5.108zM387.858 406.857l-5.109 11.499 5.109 11.5-11.5-5.109-11.499 5.109 5.102-11.5-5.102-11.499 11.499 5.109zm-99.415 625.592-5.109 11.5 5.109 11.499-11.5-5.108-11.499 5.108 5.102-11.499-5.102-11.5 11.499 5.109z"/></g></svg>