<svg height="1500" viewBox="0 0 1500 1500" width="1500" xmlns="http://www.w3.org/2000/svg"><clipPath id="a"><circle cx="-846.621" cy="753.175" r="528.824"/></clipPath><clipPath id="b"><ellipse cx="490.682" cy="811.725" rx="85.146" ry="135.232" transform="matrix(.9738 -.2276 .2276 .9738 -171.8843 132.9965)"/></clipPath><g clip-path="url(#a)" fill="#231f20"><path clip-rule="evenodd" d="M31.175 1188.784c-.781.138-1.59.542-2.33.444-1.274-.188-.663-1.692-1.345-2.374-.28-.273-.436-.677-.665-1.006-.443-.626-1.422-.746-2.143-.231-.488.346-1.126.686-1.328 1.173-1.233 3.056-2.968 5.639-5.915 7.33-.63.37-1.059 1.166-1.466 1.84a21.108 21.108 0 0 0-1.355 2.67c-.9 2.128-2.39 3.622-4.426 4.708-2.299 1.227-4.475 2.663-6.748 3.93-1.883 1.05-3.262 3-5.707 3.074-.518.013-1.062.524-1.533.89-2.987 2.36-5.794 4.913-8.48 7.606-2.161 2.156-3.527 4.788-4.893 7.435-.384.76.122 2.203 1.002 2.559 1.859.757 3.76 1.391 4.937 3.181.222.337.507.63.791.917 1.381 1.366 3.204 1.541 4.974.764 2.983-1.332 4.92-4.089 7.798-5.551.844-1.348 1.668-2.714 2.548-4.042.551-.837 1.102-1.697 1.812-2.377 1.033-.995 1.727-2.185 2.381-3.433 2.337-4.533 1.79-3.343 5.86-5.606 1.126-.626 2.272-.591 3.479-.591 1.305.008 2.138-.724 1.883-1.759-.491-2.061-.02-3.494 1.949-4.449.697-.339 1.343-.931 1.799-1.561 2.023-2.757 4.446-5.148 6.765-7.64a3.453 3.453 0 0 0 .927-2.159c.044-.8.1-1.601.128-1.95.161-.633.213-.824.256-1.018.095-.393.192-.781.262-1.177.036-.195.004-.404.024-.606.043-.444-.726-1.086-1.241-.991z" fill-rule="evenodd"/><path d="M-7.53 1235.504c-1.431 0-2.762-.548-3.843-1.618-.336-.338-.681-.697-.968-1.134-.841-1.279-2.22-1.832-3.817-2.472l-.506-.204c-.756-.306-1.387-1-1.726-1.901-.334-.891-.323-1.804.033-2.506 1.387-2.689 2.817-5.459 5.143-7.78 2.91-2.917 5.723-5.438 8.596-7.709l.211-.167c.518-.418 1.228-.989 2.121-1.011 1.208-.037 2.129-.755 3.195-1.585.586-.458 1.193-.931 1.891-1.32 1-.558 1.981-1.147 2.961-1.738 1.231-.74 2.504-1.506 3.809-2.203 1.86-.992 3.074-2.278 3.822-4.047.415-.985.9-1.94 1.441-2.84l.121-.201c.424-.712.952-1.599 1.818-2.104 2.361-1.355 4.058-3.475 5.348-6.674.324-.782.994-1.228 1.532-1.586l.266-.181a3.04 3.04 0 0 1 2.263-.528 2.658 2.658 0 0 1 1.752 1.08c.113.162.21.329.306.498.062.11.157.276.201.322.596.596.714 1.347.792 1.843l.024.15c.206-.031.476-.11.724-.183.32-.094.641-.185.958-.241.679-.124 1.447.134 2.052.69.545.502.824 1.141.763 1.753-.003.039-.001.079 0 .119a3.11 3.11 0 0 1-.04.597c-.068.391-.164.784-.26 1.181-.042.183-.077.322-.149.603l-.1.392c-.03.382-.078 1.093-.117 1.802a4.827 4.827 0 0 1-1.277 2.992c-.502.54-1.002 1.067-1.502 1.595-1.783 1.883-3.627 3.829-5.171 5.933-.615.852-1.432 1.556-2.294 1.975-1.293.627-1.603 1.366-1.23 2.931.201.817.038 1.623-.464 2.259-.579.734-1.564 1.154-2.705 1.154h-.209c-1.046-.001-1.874-.003-2.637.422-.896.498-1.573.833-2.109 1.099-1.575.779-1.575.779-3.21 3.949-.637 1.215-1.415 2.603-2.643 3.785-.567.544-1.039 1.261-1.538 2.021l-.084.128c-.625.944-1.221 1.905-1.815 2.865l-.715 1.15a1.33 1.33 0 0 1-.53.484c-1.225.623-2.289 1.531-3.415 2.493-1.328 1.135-2.702 2.309-4.444 3.087-.892.388-1.776.581-2.625.581zm5.383-23.822c-.137.066-.41.286-.578.421l-.239.189c-2.782 2.197-5.517 4.65-8.354 7.494-2.031 2.026-3.363 4.607-4.65 7.103-.021.141.166.609.325.705l.482.193c1.761.706 3.758 1.506 5.061 3.489.15.228.37.455.621.708 1.162 1.15 2.537.896 3.483.481 1.381-.617 2.55-1.616 3.788-2.674 1.105-.943 2.244-1.917 3.602-2.665l.52-.836c.609-.982 1.219-1.967 1.857-2.931l.081-.123c.559-.851 1.137-1.73 1.921-2.481.842-.812 1.458-1.821 2.121-3.088 1.862-3.611 2.101-3.979 4.402-5.117.507-.251 1.148-.567 1.994-1.038 1.373-.765 2.744-.77 3.946-.761l.185.001c.388-.007.592-.107.621-.137-.706-2.75.192-4.758 2.625-5.938.457-.222.941-.647 1.296-1.14 1.649-2.247 3.552-4.256 5.393-6.198.494-.521.988-1.043 1.478-1.569.35-.382.539-.819.57-1.328a87.45 87.45 0 0 1 .13-1.978c.006-.074.019-.147.037-.22l.129-.507c.06-.235.09-.352.116-.469l.025-.104c.08-.327.16-.651.219-.981-.11.03-.221.063-.332.096-.609.178-1.3.382-2.062.277-1.754-.258-1.99-1.764-2.09-2.406-.02-.127-.048-.31-.076-.398-.273-.282-.454-.601-.6-.859-.054-.095-.105-.19-.167-.277.001.017-.13-.002-.262.093-.11.078-.221.152-.333.227-.184.123-.492.328-.566.427-1.492 3.718-3.555 6.257-6.457 7.922-.259.151-.591.709-.857 1.156l-.127.213a19.698 19.698 0 0 0-1.268 2.498c-.987 2.335-2.632 4.092-5.031 5.372-1.244.663-2.487 1.411-3.688 2.135a108.6 108.6 0 0 1-3.038 1.782c-.518.288-1.018.679-1.548 1.092-1.242.969-2.647 2.064-4.705 2.149zm-.061.003h-.006zm33.626-21.581h-.001zm-.243-1.32h.01z"/></g><g clip-path="url(#a)" fill="#231f20"><path clip-rule="evenodd" d="M60.596 1163.475c-.574-.352-1.149-.253-1.699.016-.356.174-.662.448-1.002.658-2.331 1.435-2.906 1.402-4.751-.174-.941-.8-1.654-1.661-1.736-3.009-.088-1.398-.376-2.781-.655-4.147a5.266 5.266 0 0 0-.649-1.668c-.146-.253-.558-.381-.884-.484-.091-.036-.329.211-.4.369-.174.364-.233.771-.433 1.117a2.178 2.178 0 0 1-.733.777c-.316.202-1.197-.697-1.113-1.193.473-2.734.234-5.548.92-8.254.416-1.648.332-3.034-.831-4.47-1.369-1.672-2.272-3.721-4.102-5.056-.433-.317-.586-1.015-.875-1.537a2.051 2.051 0 0 0-.361-.473c-.329-.305-.682-.309-.982 0-.131.135-.266.336-.262.502.019 1.578 1.391 2.969.67 4.644-.521 1.19-.29 2.296.131 3.48a39.56 39.56 0 0 1 1.402 5.218c.344 1.712 1.332 3.358.514 5.231-.185.437.216 1.141.397 1.705.246.753.539 1.486.764 2.116-.276 1.953-.387 3.752-1.127 5.443-.794 1.836-1.507 3.702-2.24 5.559-.393.984-1.022 1.661-2.061 2.01-.942.317-1.873.714-2.737 1.201-1.43.816-1.823 3.034-.75 4.176.955 1.022 1.986 1.973 2.987 2.965.948.919 1.11 2.075 1.015 3.308-.071 1.035-.416 1.958-1.058 2.763-1.137 1.399-2.317 2.761-3.403 4.184-.182.242-.152.882.047 1.117a16.082 16.082 0 0 0 2.079 2.096c.246.198.781.226 1.11.118 1.57-.531 2.754-1.637 3.884-2.773 1.977-1.983 3.962-3.964 5.789-6.076 1.708-1.977 3.151-4.062 3.261-6.902.064-1.446 1.312-2.432 2.922-2.563.4-.029.807.07 1.2 0 .363-.068.964-.222 1.018-.446.464-1.933 2.03-2.888 3.349-4.096.562-.515.935-1.308 1.224-2.041.444-1.117.749-2.282 1.097-3.425.204-.682-.199-1.515-.936-1.986z" fill-rule="evenodd"/><path d="M37.342 1195.189c-.522 0-1.078-.135-1.503-.475a17.482 17.482 0 0 1-2.278-2.293c-.597-.704-.642-2.035-.082-2.777.744-.976 1.531-1.923 2.292-2.84.381-.459.764-.919 1.141-1.383.455-.571.707-1.231.76-2.009.085-1.1-.092-1.749-.61-2.251-.331-.327-.654-.641-.978-.953a58.726 58.726 0 0 1-2.056-2.059c-.772-.822-1.11-2.004-.925-3.24.194-1.29.938-2.418 1.99-3.019.892-.503 1.89-.942 2.973-1.308.617-.207.976-.564 1.244-1.235l.446-1.135c.574-1.465 1.168-2.979 1.809-4.46.528-1.207.694-2.507.887-4.013.032-.248.063-.498.098-.751l-.139-.373c-.174-.467-.36-.965-.526-1.473-.04-.125-.09-.249-.141-.376-.24-.606-.568-1.437-.218-2.268.394-.901.179-1.722-.204-2.986-.141-.466-.287-.948-.389-1.458a38.207 38.207 0 0 0-1.354-5.045c-.451-1.267-.818-2.797-.092-4.456.212-.494.048-.997-.262-1.842-.24-.655-.511-1.397-.521-2.248-.018-.665.392-1.195.638-1.45.816-.84 1.99-.859 2.86-.054.239.227.443.49.616.794.124.223.224.452.321.683.069.163.174.41.231.48 1.35.976 2.233 2.289 3.089 3.56.403.601.785 1.167 1.208 1.684 1.703 2.104 1.479 4.124 1.094 5.649-.357 1.408-.443 2.866-.534 4.41a77.76 77.76 0 0 1-.102 1.543c.409-.363.979-.588 1.589-.345.373.113 1.142.355 1.549 1.058.402.685.675 1.392.807 2.094l.019.089c.277 1.361.564 2.769.656 4.221.048.775.379 1.317 1.267 2.072 1.366 1.167 1.366 1.169 3.177.052.109-.066.211-.142.314-.216.228-.164.485-.35.802-.504 1.341-.654 2.367-.335 2.99.046l.021.014c1.259.804 1.876 2.244 1.5 3.504l-.255.854c-.258.879-.526 1.787-.881 2.682-.316.802-.781 1.817-1.565 2.535-.27.247-.548.484-.827.72-.994.843-1.852 1.57-2.124 2.7-.267 1.11-1.58 1.357-2.075 1.451-.396.071-.74.049-1.017.03-.113-.008-.225-.021-.336-.011-.801.065-1.641.489-1.676 1.284-.127 3.281-1.798 5.65-3.585 7.72-1.796 2.076-3.756 4.042-5.651 5.942l-.203.203c-1.22 1.226-2.565 2.475-4.405 3.098a2.823 2.823 0 0 1-.874.134zm-1.495-4.22c.465.539.969 1.044 1.51 1.514 1.318-.433 2.341-1.392 3.363-2.419l.204-.204c1.863-1.867 3.789-3.799 5.521-5.802 1.696-1.965 2.845-3.75 2.935-6.076.092-2.077 1.8-3.656 4.154-3.85.247-.016.481-.007.714.009.132.009.296.02.358.008l.124-.025c.577-1.629 1.764-2.635 2.824-3.533.252-.214.505-.428.75-.651.383-.351.687-1.049.882-1.544.312-.783.55-1.594.802-2.451l.26-.873c-.001-.048-.098-.283-.363-.457-.043-.023-.123-.051-.4.083-.146.071-.277.174-.411.271-.156.112-.313.225-.477.324-2.823 1.738-4.006 1.684-6.325-.296-.963-.819-2.086-2.011-2.205-3.948-.08-1.265-.348-2.579-.607-3.851l-.022-.11a6.674 6.674 0 0 0-.012-.061c-.283.43-.66.8-1.077 1.052-.523.335-1.227.298-1.857-.121-.61-.403-1.453-1.388-1.273-2.444.193-1.118.26-2.25.331-3.448.094-1.602.192-3.257.611-4.911.363-1.438.208-2.332-.573-3.296-.499-.608-.934-1.255-1.354-1.88-.634-.942-1.24-1.841-2.017-2.546a3.928 3.928 0 0 1-.265 2.192c-.297.679-.253 1.331.163 2.5a40.806 40.806 0 0 1 1.454 5.408c.081.401.204.803.326 1.205.387 1.279.864 2.859.188 4.61.038.123.109.303.16.434.073.184.144.366.199.536.151.464.325.928.487 1.36.093.249.182.488.263.714.073.205.095.425.065.641-.05.354-.095.704-.139 1.049-.209 1.64-.407 3.188-1.088 4.744-.62 1.434-1.205 2.926-1.771 4.369l-.45 1.146c-.558 1.396-1.527 2.333-2.882 2.788-.921.312-1.765.681-2.505 1.099-.334.19-.589.606-.66 1.082-.062.411.023.787.229 1.006.625.669 1.276 1.299 1.965 1.966.33.319.661.64.988.964 1.455 1.41 1.501 3.167 1.409 4.365a6.184 6.184 0 0 1-1.347 3.496c-.391.481-.779.948-1.167 1.415a88.043 88.043 0 0 0-1.992 2.447zm-.224-.266.017.021-.017-.021zm13.1-34.789.044.017c-.015-.007-.03-.011-.044-.017zm.223-.084zm-2.001-.04-.015.009zm3.098-.203-.006.013a.053.053 0 0 1 .006-.013zm-8.655-19.172v.018-.018z"/></g><g clip-path="url(#a)" fill="#231f20"><path clip-rule="evenodd" d="M25.603 1050.626c.488.178 1.126-.033 1.689-.12.098-.01.174-.276.256-.428-.147-.356-.205-.791-.444-1.073a609.809 609.809 0 0 0-6.701-7.615c-.797-.888-1.679-1.704-2.548-2.525-.282-.269-.618-.551-.982-.657-.33-.091-.82-.08-1.055.115-.253.202-.451.717-.38 1.018.638 2.632 2.41 4.553 4.231 6.399 1.805 1.834 3.379 3.995 5.934 4.886z" fill-rule="evenodd"/><path d="M26.043 1052.039a2.61 2.61 0 0 1-.891-.148c-2.362-.826-3.915-2.504-5.417-4.126a50.2 50.2 0 0 0-1.022-1.084c-2.008-2.034-3.871-4.104-4.579-7.023-.192-.808.181-1.852.848-2.383.65-.538 1.62-.533 2.248-.36.672.196 1.181.626 1.552.979l.268.254c.788.742 1.602 1.511 2.353 2.347a615.643 615.643 0 0 1 6.715 7.631c.349.411.487.86.587 1.188.026.087.051.174.084.254.153.373.131.796-.061 1.151-.126.294-.449 1.04-1.304 1.125l-.273.055c-.33.065-.707.14-1.108.14zm1.044-2.859a1.085 1.085 0 0 0-.131.021l.131-.021zm-10.065-9.256c.693 1.82 2.049 3.298 3.603 4.872.368.374.724.759 1.08 1.144 1.171 1.265 2.285 2.468 3.705 3.155a647.956 647.956 0 0 0-6.006-6.809c-.676-.753-1.415-1.45-2.197-2.188z"/></g><g clip-path="url(#a)" fill="#231f20"><path clip-rule="evenodd" d="M33.474 1008.481c-.437-1.141-1.261-1.899-2.311-2.457-.289.241-.807.471-.807.722a13.73 13.73 0 0 0 .205 2.864c.128.762 1.089 1.07 1.921.714.819-.349 1.241-1.179.992-1.843z" fill-rule="evenodd"/><path d="M31.772 1011.814c-.476 0-.94-.112-1.346-.334a2.314 2.314 0 0 1-1.19-1.648 15.017 15.017 0 0 1-.223-3.132c-.001-.849.714-1.322 1.099-1.576.068-.044.137-.087.192-.132a1.34 1.34 0 0 1 1.487-.153c1.457.773 2.417 1.808 2.936 3.163l.003.008c.511 1.362-.247 2.922-1.724 3.55a3.163 3.163 0 0 1-1.234.254zm.108-2.445.001.006-.001-.006zm-.155-1.245c.025.336.063.669.115.999a.51.51 0 0 0 .115-.033.469.469 0 0 0 .238-.198 2.856 2.856 0 0 0-.468-.768z"/></g><g clip-path="url(#a)" fill="#231f20"><path clip-rule="evenodd" d="M7.779 976.348c.115.053.37-.047.484-.162.111-.098.226-.367.167-.473-.38-.649-.808-1.278-1.22-1.917-.028.016-.06.031-.087.051-.561-.791-1.095-1.608-1.701-2.353-.191-.233-.572-.337-.887-.41-.282-.065-.457 1.107-.27 1.618.639 1.733 1.878 2.881 3.514 3.646z" fill-rule="evenodd"/><path d="M7.867 977.706a1.539 1.539 0 0 1-.656-.142c-2.071-.97-3.486-2.449-4.205-4.396-.261-.715-.232-2.203.402-2.92a1.452 1.452 0 0 1 1.432-.471c.366.086 1.127.263 1.622.868.477.585.902 1.198 1.313 1.791l.167.239a1.3 1.3 0 0 1 .397.395l.339.521c.313.479.625.957.911 1.444.462.818.023 1.749-.433 2.154-.279.284-.774.517-1.289.517z"/></g><g clip-path="url(#a)" fill="#231f20"><path clip-rule="evenodd" d="M3.156 978.263c.241.024.7-.357.784-.629.09-.306-.041-.79-.246-1.043-.773-.938-1.768-1.504-3.026-1.438-.333.154-.723.24-.992.467-.357.302-.131 1.186.246 1.522.935.806 2.091.97 3.234 1.121z" fill-rule="evenodd"/><path d="M3.171 979.605c-.05 0-.101-.002-.151-.008l-.04-.004c-1.194-.157-2.68-.353-3.935-1.436-.55-.489-.901-1.322-.891-2.085.008-.604.241-1.129.656-1.479.36-.304.76-.454 1.053-.563.083-.031.166-.062.244-.097.154-.071.32-.112.49-.121 1.596-.074 3.026.58 4.134 1.924.416.513.744 1.438.498 2.275-.246.794-1.152 1.594-2.058 1.594z"/></g><g clip-path="url(#a)"><path d="M-1.514 971.323a2.42 2.42 0 0 1-1.06-.266l-.011-.006c-1.692-.838-2.849-1.938-3.536-3.359-.265-.546-.218-1.273.119-1.808.178-.342.534-.563.725-.682.313-.226.763-.342 1.14-.253 1.798.414 3.19 1.355 4.137 2.8.545.795.331 1.829.252 2.127-.194.79-.713 1.143-1.004 1.279a1.762 1.762 0 0 1-.762.168zm-.729-2.101zm-.104-.016-.001.007.001-.007zm-1.358-2.685.002.004-.002-.004z" fill="#231f20"/></g><g fill="#231f20"><g clip-path="url(#a)"><path clip-rule="evenodd" d="M7.212 981.246c-.067.162-.031.421.051.588.492.927 1.241 1.604 2.283 1.699.444.043.937-.384 1.359-.579-.087-.387-.074-.63-.182-.777-.622-.851-1.533-1.215-2.532-1.418-.448-.1-.812.056-.979.487z" fill-rule="evenodd"/><path d="M9.615 984.878a1.93 1.93 0 0 1-.198-.01c-1.394-.127-2.583-.981-3.339-2.405-.223-.449-.356-1.108-.113-1.714.402-1.024 1.413-1.548 2.518-1.301.948.191 2.354.607 3.325 1.936.263.356.319.729.36 1 .012.078.024.17.048.275a1.342 1.342 0 0 1-.747 1.513c-.088.04-.178.098-.272.154-.396.236-.925.552-1.582.552zm-1.69-2.803h.001-.001zm-.713-.829h.01z"/></g><g clip-path="url(#a)"><path clip-rule="evenodd" d="M35.298 1014.76a12.367 12.367 0 0 0-.855-1.45c-.095-.134-.356-.201-.538-.189-.127.007-.317.182-.357.31-.309 1.322-.023 2.095.86 2.385.309-.164.646-.288.912-.497.091-.069.058-.395-.022-.559z" fill-rule="evenodd"/><path d="M34.407 1017.158c-.141 0-.283-.021-.419-.066-.747-.246-2.411-1.123-1.748-3.965.206-.671.816-1.304 1.592-1.346.501-.037 1.269.143 1.702.748a13.82 13.82 0 0 1 .971 1.645c.273.563.401 1.617-.368 2.209-.292.229-.609.38-.864.502a6.651 6.651 0 0 0-.24.117 1.323 1.323 0 0 1-.626.156zm.083-2.894-.003.003.003-.003z"/></g><g clip-path="url(#a)"><path clip-rule="evenodd" d="M30.862 1042.693c.078-.329-.036-.768-.191-1.089-.198-.424-.571-.492-.88-.226-.127.115-.253.349-.226.495.075.356.162.766.393 1.015.32.368.784.269.904-.195z" fill-rule="evenodd"/><path d="M30.398 1044.454a1.935 1.935 0 0 1-1.454-.687c-.453-.488-.591-1.14-.692-1.616-.132-.715.227-1.395.637-1.768.494-.426 1.088-.587 1.656-.466.58.124 1.069.532 1.342 1.12.145.298.479 1.124.28 1.965l-.006.025c-.182.706-.691 1.222-1.361 1.379a1.706 1.706 0 0 1-.402.048zm.464-1.761h.01zm-1.189-.282a.888.888 0 0 0 .607.145zm-.051-.038.689.178a.735.735 0 0 0 .358-.157.71.71 0 0 0 .226-.447.81.81 0 0 0-.709-.151.839.839 0 0 0-.615.534c.015.013.032.029.051.043zm-.159-.183.003.006-.003-.006z"/></g><g clip-path="url(#a)"><path clip-rule="evenodd" d="M37.42 1015.296c.102-.02.145-.273.213-.42-.093-.141-.159-.343-.282-.394-.082-.044-.353.105-.377.212-.121.472.065.71.446.602z" fill-rule="evenodd"/><path d="M37.247 1016.665c-.437 0-.839-.158-1.149-.462-.216-.211-.689-.812-.422-1.845.098-.436.449-.84.953-1.07.559-.257 1.011-.148 1.27-.033.508.225.733.648.842.854.255.389.307.913.11 1.335-.083.255-.322.968-1.107 1.155a2.016 2.016 0 0 1-.497.066zm-.453-.963c.26.117.519.131.722.096l-.096-.502.14.493a.994.994 0 0 0 .184-.06c.251-.115.463-.405.539-.737.017-.08-.024-.438-.323-.722a1.072 1.072 0 0 0-.374-.23l-.235.441.192-.455a.873.873 0 0 0-.472-.026 1.266 1.266 0 0 0-.579.344l1.14.532-1.059.695c.061.045.134.091.221.131zm.033.014.003.001-.003-.001zm-.003-.001.002.001-.002-.001zm-.09-.043.006.003-.006-.003zm-.009-.004a.031.031 0 0 0 .01.005l-.01-.005zm-.004-.002.003.002-.003-.002z"/></g><g clip-path="url(#a)"><path clip-rule="evenodd" d="M37.743 1023.028c.302-.064.584-.218.872-.333-.098-.139-.175-.349-.313-.409-.387-.174-.72-.04-.848.349-.027.096.223.403.289.393z" fill-rule="evenodd"/><path d="M37.741 1024.37c-.305 0-.735-.101-1.136-.553-.431-.485-.588-1.036-.441-1.551.196-.599.568-1.021 1.063-1.239.503-.221 1.08-.209 1.625.035.489.211.729.629.844.829.236.336.314.777.197 1.171a1.353 1.353 0 0 1-.78.879l-.21.091a4.438 4.438 0 0 1-.882.31c-.021.004-.042.009-.064.012a1.48 1.48 0 0 1-.216.016zm-.155-.951c.052.035.114.07.185.101.104.048.323.061.539-.036a.77.77 0 0 0 .419-.428c.149-.52-.016-.906-.117-1.02a1.036 1.036 0 0 0-.358-.244l.361.903zm.158-.391h.01z"/></g><g clip-path="url(#a)"><path clip-rule="evenodd" d="m41.044 1029.074-.356-.072.111.448z" fill-rule="evenodd"/><path d="M40.8 1030.792a1.342 1.342 0 0 1-1.303-1.019l-.111-.448a1.343 1.343 0 0 1 1.573-1.638l.356.073a1.34 1.34 0 0 1 .853 2.048l-.245.375a1.34 1.34 0 0 1-1.123.609z"/></g><g clip-path="url(#a)"><path clip-rule="evenodd" d="M33.647 1045.459c-.46.091-.626.424-.445.851.07.155.29.38.386.364.44-.103.586-.428.468-.867-.14-.118-.305-.367-.409-.348z" fill-rule="evenodd"/><path d="M33.617 1048.005c-.838 0-1.42-.658-1.639-1.145-.261-.616-.249-1.223.023-1.735.271-.511.763-.859 1.386-.982l.013-.003c.803-.152 1.312.406 1.503.615.206.176.379.441.449.703.203.751.011 1.3-.185 1.627-.269.449-.722.769-1.274.897a1.565 1.565 0 0 1-.276.023zm-.357-1.264c.169.054.389.084.635.038l-.12-.641zm.52-.61.127.645a.76.76 0 0 0 .465-.393c.14-.264.104-.506.065-.597-.18-.4-.732-.494-1.067-.436a.75.75 0 0 0-.505.354.676.676 0 0 0-.105.453l.969-.262-.082-.437.086.436.323-.087z"/></g><path d="M783.904 826.347c-14.69.001-32.202-6.97-52.694-15.125-52.032-20.707-123.291-49.066-221.264 1.854l-1.406-2.705c43.912-22.822 86.346-31.993 129.728-28.042 37.078 3.379 68.678 15.955 94.069 26.06 28.853 11.483 51.643 20.553 67.986 10.667 17.034-10.3 27.379-41.149 33.544-100.027 4.53-43.267 21.04-89.071 46.489-128.975 29.683-46.543 71.467-85.227 120.835-111.87l1.448 2.684c-48.913 26.396-90.309 64.72-119.713 110.826-25.199 39.513-41.545 84.847-46.027 127.653-6.274 59.919-17.068 91.476-34.999 102.318-5.443 3.293-11.44 4.681-17.996 4.682z"/><path d="M963.274 563.52c-.148-.554-3.592-13.744-.694-30.926 2.159-12.798 8.336-29.774 24.803-44.317-20.621 7.58-38.494 4.946-50.78.766-16.496-5.614-26.465-14.912-26.881-15.306l2.092-2.218c.098.093 9.986 9.293 25.89 14.677 21.247 7.193 42.587 4.537 63.431-7.896l1.562 2.619c-49.761 29.681-36.616 81.295-36.477 81.812zm-69.925 472.408c-.121-.601-12.742-60.695-68.408-115.705-32.684-32.298-73.605-56.561-121.627-72.115-60.1-19.466-131.56-25.276-212.395-17.262l-.301-3.035c81.311-8.057 153.229-2.192 213.757 17.437 48.49 15.724 89.817 40.262 122.836 72.934 56.254 55.662 69.004 116.538 69.126 117.147zM486.298 792.141l-1.948-2.346c59.79-49.677 90.642-118.842 105.996-168.116 16.647-53.424 19.164-95.577 19.187-95.996l3.044.17c-.023.424-2.562 42.953-19.32 96.732-15.477 49.668-46.596 119.402-106.959 169.556z"/><path d="m503.651 880.022-1.104-2.842c49.336-19.162 89.576-40.342 123.017-64.748 29.824-21.767 53.569-45.664 72.591-73.058 35.416-51.003 48.341-104.986 62.025-162.14 15.937-66.56 32.416-135.385 87.451-199.527l2.314 1.986c-54.557 63.583-70.948 132.044-86.8 198.251-13.753 57.44-26.743 111.694-62.486 163.169-19.219 27.677-43.195 51.812-73.297 73.781-33.657 24.566-74.124 45.869-123.711 65.128z"/><path d="M697.978 1072.99c-4.487 0-8.993-.323-13.479-.984-14.317-2.108-23.03-6.845-25.897-14.078-2.693-6.794-.091-15.248 7.734-25.128 17.236-21.763 57.551-47.466 106.816-69.1-13.133-26.016-41.433-50.542-82.423-71.315-54.2-27.467-129.717-48.47-224.454-62.424l.444-3.017c95.062 14.002 170.894 35.104 225.388 62.721 41.648 21.106 70.437 46.149 83.843 72.814a622.673 622.673 0 0 1 45.46-17.585c86.49-29.629 174.965-39.932 249.127-29.008l-.444 3.017c-73.69-10.855-161.656-.6-247.694 28.876a622.139 622.139 0 0 0-45.127 17.442 86.066 86.066 0 0 1 1.864 4.347c9.814 24.761 6.271 49.694-9.975 70.207-16.576 20.927-43.497 33.214-71.183 33.215zm76.497-106.551c-48.86 21.427-88.77 46.814-105.75 68.254-6.999 8.837-9.52 16.483-7.289 22.111 2.436 6.146 10.345 10.246 23.506 12.186 31.114 4.58 63.231-7.629 81.827-31.107 15.542-19.623 18.926-43.485 9.531-67.191a82.786 82.786 0 0 0-1.825-4.253zm-87.725-198.04c-78.964 0-145.14-8.667-196.375-19.189l.613-2.986c109.136 22.412 286.298 36.381 510.529-24.349l.797 2.943c-119.58 32.387-225.829 43.581-315.564 43.581z"/></g><path d="m1006.7 638.05 233.396-64.22 40.003 145.389-233.396 64.219z" fill="#fff"/><path d="m1045.604 785.282-40.813-148.322 236.328-65.028 40.813 148.322zM1008.54 639.09l39.195 142.443 230.448-63.411-39.195-142.443z" fill="#231f20"/><path d="m1150.566 704.788-144.529-65.374 1.257-2.778 142.22 64.329 89.289-128.032 2.501 1.744z" fill="#231f20"/><path d="m1168.804 676.451 1.128-2.831 110.667 44.06-1.127 2.831zm-123.359 106.061 72.563-94.456 2.418 1.857-72.563 94.456z" fill="#231f20"/><path d="m569.135 505.805 6.37-142.699 88.892 3.969-6.371 142.699z" fill="#fff"/><path d="m659.499 511.377-91.938-4.107 6.511-145.745 91.938 4.106zm-88.755-7.018 85.845 3.836 6.238-139.654-85.845-3.835z" fill="#231f20"/><path d="m570.28 506.839-2.256-2.05 61.621-67.765-55.333-72.988 2.43-1.842 56.863 75.008z" fill="#231f20"/><path d="m618.368 420.218 44.844-54.122 2.348 1.945-44.845 54.123zm-1.443 32.502 2.511-1.73 39.854 57.898-2.511 1.729z" fill="#231f20"/><path d="m941.879 1042.464 38.596 137.528-85.67 24.043-38.596-137.529z" fill="#fff"/><path d="m893.788 1205.949-39.425-140.463 88.605-24.87 39.425 140.463zm-35.665-138.352 37.776 134.592 82.734-23.222-37.776-134.592z" fill="#231f20"/><path d="m979.647 1181.278-77.479-53.445 38.353-85.958 2.784 1.242-37.321 83.643 75.395 52.008z" fill="#231f20"/><path d="m893.47 1203.505 25.663-65.44 2.839 1.114-25.663 65.439zm-38.154-135.814 1.844-2.427 55.971 42.517-1.844 2.428z" fill="#231f20"/><ellipse cx="490.682" cy="811.725" fill="#231f20" rx="85.146" ry="135.232" transform="matrix(.9738 -.2276 .2276 .9738 -171.8843 132.9965)"/><g clip-path="url(#b)"><path d="M686.899 768.476c-55.886 0-110.477-4.36-162.825-13.025-112.088-18.554-175.857-50.894-176.488-51.219l1.395-2.711c.627.322 64.076 32.482 175.743 50.946 65.582 10.844 134.715 14.909 205.486 12.093 88.464-3.525 179.745-17.887 271.309-42.686l.797 2.943c-91.821 24.868-183.365 39.266-272.091 42.793-14.514.578-28.968.866-43.326.866z" fill="#fff"/></g><g clip-path="url(#b)"><path d="m371.907 848.925-.717-2.963c50.944-12.321 95.166-36.807 131.438-72.774 29.039-28.796 53.088-64.981 71.478-107.553 31.338-72.542 35.388-139.287 35.426-139.952l3.044.17c-.037.671-4.12 67.957-35.671 140.992-18.545 42.93-42.814 79.437-72.13 108.508-36.672 36.365-81.376 61.119-132.868 73.572z" fill="#fff"/></g><g clip-path="url(#b)"><path d="m388.494 908.391-2.195-2.117c38.376-39.797 76.447-70.412 113.155-90.994 31.763-17.81 63.614-28.702 94.669-32.375 57.18-6.77 102.112 11.117 138.214 25.484 28.852 11.481 51.642 20.552 67.987 10.667 17.034-10.3 27.379-41.149 33.544-100.027 4.53-43.267 21.04-89.071 46.489-128.975 29.683-46.543 71.467-85.227 120.835-111.87l1.448 2.684c-48.913 26.396-90.309 64.72-119.713 110.826-25.199 39.513-41.545 84.847-46.027 127.653-6.274 59.919-17.068 91.476-34.999 102.318-17.642 10.668-41.053 1.353-70.692-10.443-35.782-14.239-80.315-31.962-136.729-25.29-30.654 3.626-62.125 14.395-93.536 32.007-36.447 20.437-74.281 50.869-112.45 90.452z" fill="#fff"/></g><g clip-path="url(#b)"><path d="M697.851 1072.98c-4.446 0-8.91-.319-13.353-.975-14.317-2.108-23.03-6.845-25.896-14.078-2.693-6.794-.091-15.248 7.733-25.128 17.284-21.823 57.78-47.61 107.233-69.282-13.021-26.406-41.567-51.221-83.066-72.103-54.199-27.273-129.638-47.949-224.221-61.453-122.16-17.448-245.974 24.997-247.21 25.429l-1.003-2.879c1.243-.434 125.735-43.122 248.644-25.568 94.911 13.551 170.665 34.326 225.161 61.747 42.156 21.214 71.195 46.549 84.494 73.609a622.513 622.513 0 0 1 45.043-17.405c86.49-29.629 174.965-39.93 249.127-29.009l-.444 3.017c-73.691-10.853-161.656-.599-247.694 28.877a622.6 622.6 0 0 0-44.736 17.273 86.383 86.383 0 0 1 1.436 3.38c10.006 25.03 6.466 50.277-9.968 71.091-16.642 21.075-43.606 33.457-71.28 33.457zm77.015-106.713c-49.037 21.463-89.116 46.93-106.141 68.426-6.999 8.837-9.52 16.483-7.289 22.111 2.436 6.146 10.345 10.246 23.506 12.186 31.038 4.564 63.144-7.736 81.794-31.356 15.729-19.92 19.114-44.095 9.53-68.069a81.387 81.387 0 0 0-1.4-3.298z" fill="#fff"/></g><g clip-path="url(#b)"><path d="m378.441 919.104-.744-2.957c77.251-19.452 139.671-41.898 190.825-68.622 45.634-23.84 81.273-50.613 108.953-81.85 51.504-58.121 66.661-121.422 82.707-188.439 15.937-66.56 32.416-135.386 87.451-199.528l2.314 1.986c-54.556 63.583-70.948 132.044-86.8 198.252-16.137 67.398-31.38 131.06-83.39 189.752-27.931 31.519-63.854 58.515-109.824 82.529-51.368 26.836-114.005 49.365-191.492 68.877z" fill="#fff"/></g><g clip-path="url(#b)"><path d="M893.349 1035.928c-.046-.229-4.8-23.226-21.373-53.472-15.284-27.894-44.04-67.842-94.235-99.745-44.157-28.066-97.858-45.668-159.613-52.315-74.914-8.066-162.478-.038-260.265 23.855l-.724-2.962c98.157-23.984 186.097-32.03 261.374-23.919 62.231 6.707 116.376 24.475 160.931 52.811 50.761 32.282 79.832 72.712 95.28 100.943 16.755 30.62 21.568 53.971 21.615 54.203z" fill="#fff"/></g><path d="m575.552 928.3 12.706 19.244 22.797 3.472-19.244 12.705-3.472 22.797-12.712-19.234-22.791-3.482 19.244-12.705zm351.24-107.918 12.706 19.244 22.797 3.472-19.244 12.706-3.472 22.797-12.712-19.235-22.791-3.481 19.244-12.706zM674.855 557.459l12.705 19.244 22.798 3.472-19.244 12.706-3.473 22.797-12.711-19.235-22.791-3.481 19.244-12.706zm258.629 36.505 12.706 19.244 22.797 3.472-19.244 12.705-3.472 22.797-12.712-19.234-22.791-3.482 19.244-12.705zm-557.205 50.695 12.705 19.243 22.797 3.473-19.243 12.705-3.473 22.797-12.711-19.234-22.791-3.482 19.244-12.705zm679.29 328.313 28.217-52.374-4.528-59.318 93.611 70.007c2.793 2.089 4.079 5.506 3.355 8.918-.724 3.411-3.286 6.012-6.686 6.787zm27.241-105.229 4.084 53.516-25.456 47.249 107.422-24.488c2.262-.516 3.899-2.178 4.38-4.447s-.34-4.454-2.198-5.844zM891.343 418.472l-33.987-48.826-54.97-22.749 104.736-51.907.677 1.366-.677-1.366c3.124-1.549 6.754-1.152 9.471 1.034s3.88 5.646 3.036 9.029zm-81.587-71.825 49.592 20.522 30.661 44.049 26.662-106.903c.561-2.25-.183-4.462-1.99-5.916-1.808-1.453-4.126-1.706-6.206-.677z" fill="#231f20"/></svg>