<svg height="1500" viewBox="0 0 1500 1500" width="1500" xmlns="http://www.w3.org/2000/svg"><path d="M520.795 858.893H704.26v2.557H520.795z" fill="#231f20"/><path d="M611.249 768.438h2.557v183.466h-2.557z" fill="#231f20"/><path d="m613.548 952.673-2.041-1.539c.303-.402 30.319-40.814 30.319-90.963s-30.017-90.562-30.319-90.964l2.041-1.539c.309.409 30.835 41.476 30.835 92.503 0 51.026-30.526 92.093-30.835 92.502z" fill="#231f20"/><path d="M612.527 953.182c-51.286 0-93.011-41.725-93.011-93.011 0-51.287 41.725-93.012 93.011-93.012s93.011 41.725 93.011 93.012c0 51.286-41.724 93.011-93.011 93.011zm0-183.466c-49.877 0-90.454 40.578-90.454 90.455s40.577 90.454 90.454 90.454 90.454-40.577 90.454-90.454-40.577-90.455-90.454-90.455z" fill="#231f20"/><path d="m612.933 953.115-.812-2.424c.151-.051 15.282-5.23 30.198-18.942 13.724-12.618 30.084-35.278 30.084-71.578 0-36.301-16.36-58.961-30.084-71.578-14.916-13.713-30.047-18.893-30.198-18.943l.812-2.424c.635.212 15.723 5.363 31.036 19.41 14.138 12.97 30.991 36.255 30.991 73.535 0 37.279-16.854 60.564-30.991 73.534-15.314 14.047-30.401 19.198-31.036 19.41z" fill="#231f20"/><path d="M611.507 952.673c-.309-.409-30.836-41.476-30.836-92.502 0-51.027 30.527-92.095 30.836-92.503l2.041 1.539c-.303.402-30.32 40.815-30.32 90.964s30.018 90.561 30.32 90.963z" fill="#231f20"/><path d="M612.122 953.115c-.635-.212-15.724-5.363-31.036-19.41-14.139-12.97-30.992-36.255-30.992-73.534 0-37.28 16.854-60.565 30.992-73.535 15.312-14.047 30.401-19.198 31.036-19.41l.812 2.424c-.151.051-15.283 5.23-30.198 18.943-13.725 12.617-30.085 35.277-30.085 71.578 0 36.3 16.36 58.96 30.085 71.578 14.915 13.712 30.047 18.892 30.198 18.942z" fill="#231f20"/><path d="M694.064 902.431c-9.134-3.923-35.362-13.045-81.536-13.045-46.17 0-72.401 9.122-81.536 13.044l-1.008-2.35c9.279-3.984 35.899-13.251 82.544-13.251 46.648 0 73.266 9.268 82.544 13.252zM552.7 930.394l-1.09-2.312c10.337-4.87 29.297-10.675 60.917-10.675 31.446 0 50.362 5.749 60.694 10.571l-1.082 2.316c-10.097-4.713-28.635-10.331-59.612-10.331-31.147 0-49.726 5.672-59.827 10.431zm59.827-96.881c-46.643 0-73.264-9.268-82.544-13.252l1.008-2.35c9.136 3.923 35.368 13.045 81.536 13.045 46.172 0 72.401-9.123 81.536-13.046l1.008 2.35c-9.279 3.984-35.897 13.253-82.544 13.253zm0-30.578c-31.62 0-50.58-5.805-60.917-10.675l1.09-2.312c10.101 4.759 28.68 10.431 59.827 10.431 30.978 0 49.516-5.618 59.612-10.331l1.082 2.316c-10.331 4.822-29.247 10.571-60.694 10.571z" fill="#231f20"/><path d="M273.916 359.867h613.557v474.47c0 14.267-11.566 25.834-25.834 25.834h-561.89c-14.267 0-25.834-11.566-25.834-25.834v-474.47z" fill="#fff"/><path d="M861.64 861.449H299.749c-14.949 0-27.111-12.163-27.111-27.112V358.589h616.113v475.748c0 14.949-12.162 27.112-27.111 27.112zM275.194 361.146v473.191c0 13.54 11.016 24.556 24.555 24.556H861.64c13.539 0 24.555-11.016 24.555-24.556V361.146z" fill="#231f20"/><path d="M299.749 247.441h561.89c14.268 0 25.834 11.566 25.834 25.834v86.592H273.916v-86.592c0-14.268 11.566-25.834 25.833-25.834z" fill="#fff"/><path d="M888.751 361.146H272.638v-87.871c0-14.949 12.162-27.111 27.111-27.111H861.64c14.949 0 27.111 12.162 27.111 27.111zm-613.557-2.557h611v-85.314c0-13.539-11.016-24.555-24.555-24.555h-561.89c-13.539 0-24.555 11.016-24.555 24.555z" fill="#231f20"/><ellipse cx="343.277" cy="303.654" fill="#231f20" rx="18.228" ry="17.761"/><path d="M343.276 322.693c-10.756 0-19.506-8.541-19.506-19.039 0-10.499 8.75-19.04 19.506-19.04s19.507 8.541 19.507 19.04c0 10.498-8.751 19.039-19.507 19.039zm0-35.522c-9.346 0-16.949 7.395-16.949 16.483s7.604 16.482 16.949 16.482c9.347 0 16.95-7.394 16.95-16.482s-7.603-16.483-16.95-16.483z" fill="#231f20"/><ellipse cx="406.268" cy="303.654" fill="#231f20" rx="18.228" ry="17.761"/><path d="M406.268 322.693c-10.756 0-19.507-8.541-19.507-19.039 0-10.499 8.751-19.04 19.507-19.04s19.507 8.541 19.507 19.04c0 10.498-8.751 19.039-19.507 19.039zm0-35.522c-9.347 0-16.95 7.395-16.95 16.483s7.604 16.482 16.95 16.482 16.95-7.394 16.95-16.482-7.604-16.483-16.95-16.483z" fill="#231f20"/><ellipse cx="469.259" cy="303.654" fill="#231f20" rx="18.228" ry="17.761"/><path d="M469.259 322.693c-10.756 0-19.507-8.541-19.507-19.039 0-10.499 8.751-19.04 19.507-19.04s19.507 8.541 19.507 19.04c0 10.498-8.751 19.039-19.507 19.039zm0-35.522c-9.347 0-16.95 7.395-16.95 16.483s7.604 16.482 16.95 16.482 16.95-7.394 16.95-16.482-7.603-16.483-16.95-16.483z" fill="#231f20"/><circle cx="580.694" cy="611.169" fill="#fff" r="145.053"/><path d="M580.694 757.5c-80.688 0-146.331-65.644-146.331-146.331s65.644-146.331 146.331-146.331 146.331 65.644 146.331 146.331S661.382 757.5 580.694 757.5zm0-290.105c-79.277 0-143.774 64.497-143.774 143.774s64.497 143.774 143.774 143.774 143.774-64.497 143.774-143.774-64.496-143.774-143.774-143.774z" fill="#231f20"/><path d="M612.527 698.478h613.557v474.47c0 14.267-11.566 25.834-25.834 25.834H638.36c-14.268 0-25.834-11.566-25.834-25.834v-474.47z" fill="#fff"/><path d="M1200.25 1200.06H638.36c-14.949 0-27.111-12.162-27.111-27.111V697.2h616.113v475.748c0 14.95-12.162 27.112-27.112 27.112zM613.806 699.757v473.191c0 13.54 11.016 24.555 24.555 24.555h561.89c13.54 0 24.556-11.015 24.556-24.555V699.757z" fill="#231f20"/><path d="M638.361 586.053h561.89c14.267 0 25.834 11.566 25.834 25.834v86.592H612.527v-86.592c0-14.268 11.566-25.834 25.834-25.834z" fill="#231f20"/><path d="M1227.362 699.757H611.249v-87.871c0-14.949 12.162-27.111 27.111-27.111h561.89c14.95 0 27.112 12.162 27.112 27.111zM613.806 697.2h611v-85.314c0-13.539-11.016-24.555-24.556-24.555H638.36c-13.539 0-24.555 11.016-24.555 24.555V697.2z" fill="#231f20"/><ellipse cx="681.888" cy="642.265" fill="#fff" rx="18.228" ry="17.761"/><path d="M681.888 661.305c-10.756 0-19.507-8.541-19.507-19.039 0-10.499 8.751-19.04 19.507-19.04s19.507 8.541 19.507 19.04c0 10.498-8.751 19.039-19.507 19.039zm0-35.523c-9.347 0-16.95 7.395-16.95 16.483s7.604 16.482 16.95 16.482 16.95-7.394 16.95-16.482-7.604-16.483-16.95-16.483z" fill="#fff"/><ellipse cx="744.879" cy="642.265" fill="#fff" rx="18.228" ry="17.761"/><path d="M744.879 661.305c-10.756 0-19.507-8.541-19.507-19.039 0-10.499 8.751-19.04 19.507-19.04s19.507 8.541 19.507 19.04c0 10.498-8.751 19.039-19.507 19.039zm0-35.523c-9.347 0-16.95 7.395-16.95 16.483s7.604 16.482 16.95 16.482 16.95-7.394 16.95-16.482-7.603-16.483-16.95-16.483z" fill="#fff"/><ellipse cx="807.87" cy="642.265" fill="#fff" rx="18.228" ry="17.761"/><path d="M807.87 661.305c-10.756 0-19.507-8.541-19.507-19.039 0-10.499 8.751-19.04 19.507-19.04s19.507 8.541 19.507 19.04c0 10.498-8.751 19.039-19.507 19.039zm0-35.523c-9.347 0-16.95 7.395-16.95 16.483s7.604 16.482 16.95 16.482 16.95-7.394 16.95-16.482-7.603-16.483-16.95-16.483zm359.303 338.725H671.329a7.669 7.669 0 0 1-7.669-7.669v-44.714a7.669 7.669 0 0 1 7.669-7.669h495.844a7.669 7.669 0 0 1 7.669 7.669v44.714a7.668 7.668 0 0 1-7.669 7.669z" fill="#fff"/><path d="M1167.173 965.785H671.329c-4.934 0-8.948-4.014-8.948-8.947v-44.715c0-4.934 4.015-8.947 8.948-8.947h495.844c4.934 0 8.948 4.014 8.948 8.947v44.715c0 4.934-4.014 8.947-8.948 8.947zm-495.844-60.052a6.4 6.4 0 0 0-6.392 6.391v44.715a6.4 6.4 0 0 0 6.392 6.391h495.844a6.4 6.4 0 0 0 6.392-6.391v-44.715a6.4 6.4 0 0 0-6.392-6.391z" fill="#231f20"/><path d="M671.329 959.394a2.56 2.56 0 0 1-2.557-2.557v-44.714a2.56 2.56 0 0 1 2.557-2.557h341.206a2.559 2.559 0 0 1 2.556 2.557v44.714a2.56 2.56 0 0 1-2.556 2.557z" fill="#231f20"/><path d="M1012.536 960.673H671.329a3.84 3.84 0 0 1-3.835-3.835v-44.715a3.84 3.84 0 0 1 3.835-3.834h341.207a3.838 3.838 0 0 1 3.834 3.834v44.715a3.839 3.839 0 0 1-3.834 3.835zm-341.207-49.827c-.705 0-1.278.573-1.278 1.277v44.715a1.28 1.28 0 0 0 1.278 1.278h341.207c.704 0 1.277-.573 1.277-1.278v-44.715c0-.704-.573-1.277-1.277-1.277zm471.511-106.97h-2.557V443.793c0-7.753-6.308-14.061-14.061-14.061H989.036c-9.163 0-16.617-7.454-16.617-16.617v-94.261c0-7.753-6.308-14.061-14.061-14.061H793.404v-2.557h164.954c9.163 0 16.617 7.454 16.617 16.617v94.261c0 7.753 6.308 14.061 14.061 14.061h137.187c9.163 0 16.617 7.454 16.617 16.617z" fill="#231f20"/><circle cx="793.405" cy="303.516" fill="#231f20" r="7.01"/><path d="M1142.84 803.876h-2.557c0-34.146-29.182-42.871-30.424-43.226l.698-2.459c.284.08 25.047 7.425 31.004 33.771 5.957-26.347 30.721-33.691 31.005-33.771l.698 2.459c-1.241.355-30.424 9.081-30.424 43.226z" fill="#231f20"/><path d="M1140.283 594.463h2.557v93.654h-2.557z" fill="#fff"/><g fill="#231f20"><path d="M721.144 1116.834H372.481c-9.163 0-16.617-7.454-16.617-16.617V785.196h2.557v315.021c0 7.753 6.308 14.061 14.061 14.061h348.663v2.556z"/><path d="m677.917 1147.257-2.459-.697c.08-.284 7.426-25.047 33.772-31.004-26.347-5.957-33.692-30.72-33.772-31.004l2.459-.698c.354 1.242 9.081 30.424 43.227 30.424v2.557c-34.203-.001-43.14 30.118-43.227 30.422z"/><circle cx="357.142" cy="785.197" r="7.01"/><path d="m1154.754 249.572 5.047 13.114 13.114 5.046-13.114 5.047-5.047 13.114-5.051-13.109-13.109-5.052 13.114-5.046zM406.268 440.717l5.046 13.114 13.114 5.047-13.114 5.046-5.046 13.114-5.051-13.109-13.11-5.051 13.115-5.047zm44.763 776.799 5.046 13.114 13.114 5.046-13.114 5.047-5.046 13.114-5.052-13.109-13.109-5.052 13.114-5.046zm703.723-101.96 5.047 13.114 13.114 5.046-13.114 5.046-5.047 13.115-5.051-13.11-13.109-5.051 13.114-5.046zM578.779 526.042h3.832v170.255h-3.832z"/><path d="M665.822 609.254v3.832H495.567v-3.832z"/><path d="m519.138 552.33 2.71-2.71 120.387 120.388-2.71 2.71z"/><path d="m639.534 549.613 2.71 2.71L521.855 672.71l-2.71-2.71z"/><circle cx="580.694" cy="611.169" r="15.198"/></g></svg>