<svg height="1500" viewBox="0 0 1500 1500" width="1500" xmlns="http://www.w3.org/2000/svg"><g fill="#231f20"><path d="m921.109 632.466 2.867-2.867 126.126 126.126-2.867 2.867z"/><path d="m921.124 755.77 126.108-126.144 2.867 2.866-126.108 126.144z"/><path d="m922.835 759.167-.563-4.014c.482-.068 48.655-7.191 82.934-41.469 34.278-34.278 41.4-82.451 41.469-82.934l4.014.563c-.069.496-7.354 49.974-42.615 85.237-35.265 35.262-84.743 42.547-85.239 42.617z"/><path d="M985.617 785.308c-24.363 0-47.269-9.488-64.497-26.715-35.562-35.564-35.562-93.43 0-128.994 35.564-35.563 93.43-35.563 128.994 0 35.562 35.563 35.562 93.43 0 128.994-17.228 17.227-40.133 26.715-64.497 26.715zm0-178.371c-23.281 0-45.168 9.066-61.63 25.528-33.983 33.983-33.983 89.278 0 123.261 16.462 16.462 38.349 25.528 61.63 25.528s45.168-9.066 61.63-25.528l1.434 1.433-1.434-1.433c33.983-33.983 33.983-89.278 0-123.261-16.462-16.462-38.348-25.528-61.63-25.528z"/><path d="M960.694 767.134c-1.392 0-2.741-.031-4.049-.087-20.349-.877-34.407-7.78-34.996-8.073l1.808-3.628c.138.068 14.003 6.852 33.532 7.659 26.066 1.072 49.38-8.443 69.236-28.299 19.902-19.901 29.421-43.252 28.293-69.406-.841-19.496-7.584-33.227-7.651-33.363l3.627-1.809c.294.588 7.196 14.647 8.074 34.997.811 18.793-3.646 46.617-29.476 72.447-24.032 24.032-49.793 29.562-68.398 29.562z"/><path d="m924.561 757.441-4.014-.563c.069-.496 7.354-49.975 42.615-85.237 35.263-35.263 84.741-42.547 85.237-42.617l.563 4.014c-.483.068-48.656 7.19-82.934 41.469-34.277 34.278-41.399 82.451-41.467 82.934z"/><path d="M920.74 758.063c-.294-.588-7.196-14.648-8.074-34.997-.811-18.793 3.645-46.617 29.475-72.447 25.83-25.829 53.646-30.284 72.447-29.476 20.35.878 34.408 7.78 34.997 8.074l-1.808 3.628c-.138-.068-14.003-6.853-33.532-7.659-26.086-1.083-49.381 8.443-69.237 28.299s-29.377 43.151-28.299 69.238c.807 19.529 7.591 33.395 7.659 33.533z"/><path d="M1011.89 779.493c-3.564-8.931-15.271-33.119-46.912-64.759-31.637-31.638-55.825-43.346-64.757-46.912l1.504-3.765c9.163 3.659 33.95 15.641 66.12 47.81 32.171 32.172 44.152 56.958 47.811 66.122zm-34.235 4.061c-3.676-10.108-12.506-26.606-33.698-47.798-21.312-21.312-37.872-30.13-48.012-33.775l1.371-3.814c10.529 3.785 27.664 12.881 49.507 34.723 21.718 21.717 30.825 38.786 34.641 49.28zm91.857-59.421c-9.164-3.658-33.951-15.639-66.123-47.811-32.169-32.17-44.15-56.957-47.809-66.121l3.764-1.503c3.565 8.931 15.274 33.119 46.912 64.757 31.64 31.64 55.827 43.347 64.758 46.912zm4.179-34.191c-10.494-3.816-27.562-12.923-49.28-34.641-21.841-21.841-30.938-38.977-34.723-49.506l3.814-1.371c3.646 10.14 12.464 26.7 33.775 48.011 21.191 21.192 37.689 30.022 47.798 33.698zM428.236 804.951h3.237v143.836h-3.237z"/><path d="M501.773 875.25v3.237H357.937v-3.237z"/><path d="m377.848 827.157 2.29-2.289 101.706 101.707-2.29 2.289z"/><path d="m479.566 824.862 2.29 2.289-101.707 101.706-2.29-2.289z"/><circle cx="429.855" cy="876.869" r="12.839"/></g><path d="M199.739 627.131 946.5 639.178l-1.819 112.721c-.217 13.43-11.28 24.142-24.71 23.925l-698.126-11.263c-13.43-.217-24.142-11.28-23.925-24.71z" fill="#fff"/><path d="M920.376 777.854c-.146 0-.291-.001-.438-.004l-698.126-11.263c-7.036-.113-13.608-2.96-18.504-8.017s-7.528-11.716-7.415-18.752l1.851-114.747 750.815 12.113-1.852 114.747c-.113 7.037-2.961 13.608-8.017 18.503-4.95 4.795-11.44 7.42-18.314 7.42zM201.733 629.19l-1.786 110.694a22.156 22.156 0 0 0 6.274 15.868 22.15 22.15 0 0 0 15.658 6.783l698.125 11.263c6.002.096 11.589-2.133 15.868-6.275a22.148 22.148 0 0 0 6.783-15.657l1.785-110.694z" fill="#231f20"/><path d="m486.749 664.677 171.679 2.77c20.047.323 36.035 16.837 35.712 36.883-.323 20.047-16.837 36.035-36.883 35.712l-171.679-2.77c-20.047-.323-36.035-16.837-35.712-36.883.323-20.047 16.836-36.036 36.883-35.712z" fill="#231f20"/><path d="M657.859 742.073c-.212 0-.422-.002-.634-.005l-171.679-2.77c-21.133-.341-38.048-17.811-37.707-38.942.338-20.921 17.468-37.711 38.315-37.711.21 0 .417.002.627.005l171.679 2.77c10.237.165 19.797 4.307 26.919 11.662 7.121 7.355 10.952 17.044 10.787 27.281-.165 10.236-4.307 19.796-11.662 26.918-7.202 6.973-16.645 10.792-26.645 10.792zm-171.704-75.374c-18.645 0-33.961 15.013-34.264 33.723-.305 18.897 14.821 34.519 33.72 34.824l171.678 2.77c9.147.125 17.818-3.279 24.396-9.647 6.577-6.369 10.281-14.917 10.429-24.071.147-9.154-3.278-17.818-9.646-24.396-6.369-6.577-14.918-10.281-24.071-10.429l-171.679-2.77a35.39 35.39 0 0 0-.563-.004z" fill="#231f20"/><path d="m225.5 538.025 698.126 11.263c13.43.217 24.142 11.28 23.925 24.71l-1.052 65.18-746.762-12.047 1.052-65.18c.218-13.43 11.281-24.142 24.711-23.926z" fill="#fff"/><path d="m948.494 641.237-750.815-12.113 1.085-67.207c.232-14.382 12.006-25.922 26.338-25.922.144 0 .287.001.431.003l698.127 11.263c7.036.113 13.608 2.96 18.504 8.017s7.528 11.716 7.415 18.752zm-746.696-16.1 742.708 11.982 1.02-63.154a22.156 22.156 0 0 0-6.274-15.868 22.15 22.15 0 0 0-15.657-6.783l-698.126-11.263a22.298 22.298 0 0 0-.365-.003c-12.128 0-22.09 9.765-22.286 21.935z" fill="#231f20"/><circle cx="254.261" cy="583.25" fill="#231f20" r="14.141"/><path d="m254.269 599.417-.268-.002c-4.318-.069-8.352-1.816-11.355-4.919s-4.619-7.189-4.55-11.507 1.816-8.35 4.919-11.354 7.232-4.624 11.507-4.55c8.914.144 16.049 7.513 15.905 16.426a16.056 16.056 0 0 1-4.919 11.354 16.056 16.056 0 0 1-11.239 4.552zm-.011-28.281c-6.59 0-12.003 5.306-12.109 11.918a12.038 12.038 0 0 0 3.409 8.622 12.033 12.033 0 0 0 8.508 3.686 12.02 12.02 0 0 0 8.622-3.41 12.036 12.036 0 0 0 3.687-8.507l2.026.033-2.026-.033c.107-6.679-5.238-12.2-11.917-12.308l-.2-.001z" fill="#231f20"/><circle cx="303.121" cy="584.038" fill="#231f20" r="14.141"/><path d="m303.125 600.206-.265-.002c-8.914-.144-16.049-7.513-15.905-16.426a16.054 16.054 0 0 1 4.919-11.354 16.057 16.057 0 0 1 11.239-4.553l.268.002c8.914.144 16.049 7.513 15.905 16.426-.142 8.825-7.367 15.907-16.161 15.907zm-.01-28.282a12.03 12.03 0 0 0-8.421 3.411 12.038 12.038 0 0 0-3.687 8.508c-.107 6.679 5.238 12.2 11.917 12.308 3.277.045 6.297-1.159 8.622-3.41s3.634-5.272 3.687-8.508c.052-3.235-1.159-6.297-3.41-8.622s-5.272-3.634-8.507-3.686l-.201-.001z" fill="#231f20"/><circle cx="351.98" cy="584.826" fill="#231f20" r="14.141"/><path d="m351.987 600.994-.268-.002a16.054 16.054 0 0 1-11.354-4.919 16.061 16.061 0 0 1-4.551-11.507c.143-8.825 7.367-15.907 16.161-15.907l.265.002c4.318.069 8.352 1.816 11.355 4.919s4.619 7.189 4.55 11.507l-2.026-.033 2.026.033a16.054 16.054 0 0 1-4.919 11.354 16.054 16.054 0 0 1-11.239 4.553zm-.01-28.282c-6.59 0-12.003 5.306-12.109 11.918-.107 6.679 5.238 12.2 11.917 12.308 3.259.04 6.298-1.16 8.622-3.41a12.038 12.038 0 0 0 3.687-8.508 12.04 12.04 0 0 0-3.409-8.622 12.033 12.033 0 0 0-8.508-3.686h-.2z" fill="#231f20"/><path d="m625.909 799.216 667.001-14.456 3.667 169.189c.291 13.429-10.359 24.551-23.788 24.842l-618.37 13.402c-13.429.291-24.551-10.359-24.842-23.788z" fill="#fff"/><path d="M653.883 994.226c-14.266 0-26.023-11.445-26.334-25.777l-3.711-171.215 671.054-14.544 3.711 171.215c.152 7.036-2.444 13.71-7.312 18.793s-11.423 7.967-18.459 8.119l-618.37 13.402a22.41 22.41 0 0 1-.579.007zm-25.904-193.027 3.623 167.163c.263 12.126 10.213 21.811 22.282 21.811.164 0 .326-.001.49-.005l618.37-13.402a22.15 22.15 0 0 0 15.619-6.87 22.156 22.156 0 0 0 6.187-15.902l-3.623-167.163z" fill="#231f20"/><path d="m750.59 865.079 187.981-4.074c8.34-.181 15.248 6.434 15.429 14.774l.751 34.638c.181 8.34-6.434 15.248-14.774 15.429l-187.981 4.074c-8.34.181-15.248-6.434-15.429-14.774l-.751-34.638c-.181-8.341 6.434-15.249 14.774-15.429z" fill="#fff"/><path d="M751.663 931.95c-9.275.001-16.92-7.441-17.123-16.76l-.75-34.639c-.204-9.444 7.312-17.294 16.756-17.499l.044 2.026-.044-2.026 187.981-4.074c4.554-.084 8.914 1.589 12.22 4.754s5.18 7.428 5.279 12.002l.75 34.639c.204 9.444-7.312 17.294-16.756 17.499l-187.98 4.074c-.126.003-.252.004-.377.004zm-1.029-64.845c-7.209.156-12.947 6.149-12.791 13.358l.75 34.639c.155 7.113 5.991 12.795 13.071 12.795l.288-.003 187.98-4.074c7.209-.156 12.947-6.149 12.791-13.358l-.75-34.639a12.99 12.99 0 0 0-4.03-9.163c-2.524-2.417-5.879-3.727-9.328-3.629zm232.584-7.068 187.981-4.074c8.34-.181 15.248 6.434 15.429 14.774l.751 34.638c.181 8.34-6.434 15.248-14.774 15.429l-187.981 4.074c-8.34.181-15.248-6.434-15.429-14.774l-.751-34.638c-.181-8.341 6.434-15.248 14.774-15.429z" fill="#231f20"/><path d="M984.286 926.909a17.012 17.012 0 0 1-11.839-4.758 17.016 17.016 0 0 1-5.279-12.002l-.751-34.638c-.204-9.444 7.312-17.294 16.757-17.499l187.98-4.074c9.449-.194 17.294 7.312 17.499 16.756l.751 34.639c.099 4.575-1.589 8.915-4.754 12.22s-7.428 5.18-12.003 5.279l-187.98 4.074-.381.003zm-1.024-64.846c-7.21.156-12.948 6.149-12.792 13.358l.751 34.638a12.99 12.99 0 0 0 4.03 9.163 13.036 13.036 0 0 0 9.328 3.629l187.98-4.074c3.493-.076 6.747-1.507 9.163-4.03s3.705-5.836 3.629-9.329l-.751-34.639c-.154-7.113-5.99-12.795-13.071-12.795-.096 0-.19.001-.287.003z" fill="#231f20"/><path d="m648.491 718.751 618.37-13.402c13.429-.291 24.551 10.359 24.842 23.788l1.205 55.623-667.001 14.456-1.206-55.623c-.289-13.429 10.361-24.551 23.79-24.842z" fill="#fff"/><path d="m623.926 801.287-1.249-57.649c-.314-14.525 11.246-26.598 25.771-26.913l.044 2.026-.044-2.026 618.37-13.402c14.545-.276 26.598 11.246 26.913 25.771l1.249 57.649zm643.47-93.917c-.164 0-.326.002-.49.005l-618.37 13.402c-12.29.266-22.072 10.482-21.806 22.772l1.161 53.597 662.948-14.368-1.161-53.597c-.263-12.126-10.212-21.811-22.282-21.811z" fill="#231f20"/><path d="M673.093 772.864c-7.938 0-14.479-6.368-14.651-14.341-.085-3.915 1.359-7.628 4.067-10.456s6.355-4.432 10.271-4.517c8.07-.182 14.797 6.256 14.973 14.337.175 8.081-6.257 14.798-14.338 14.973a11.62 11.62 0 0 1-.322.004zm.008-25.263c-.078 0-.155 0-.233.002a10.54 10.54 0 0 0-7.431 3.268 10.53 10.53 0 0 0-2.942 7.564c.127 5.846 4.977 10.542 10.832 10.373 5.847-.127 10.5-4.986 10.373-10.833-.126-5.767-4.858-10.374-10.599-10.374zm43.633 24.317c-7.938 0-14.479-6.368-14.652-14.341-.174-8.081 6.258-14.797 14.338-14.973 8.112-.195 14.797 6.257 14.973 14.337.175 8.081-6.256 14.798-14.337 14.973-.108.003-.215.004-.322.004zm.007-25.263c-.078 0-.155 0-.233.002-5.846.127-10.499 4.986-10.373 10.833.125 5.768 4.858 10.375 10.601 10.375.077 0 .154 0 .232-.002 5.846-.127 10.499-4.986 10.372-10.833-.125-5.768-4.857-10.375-10.599-10.375zm43.634 24.318c-7.938 0-14.479-6.368-14.651-14.341-.085-3.915 1.359-7.628 4.067-10.456s6.355-4.432 10.27-4.517c8.086-.181 14.799 6.257 14.974 14.337.174 8.081-6.258 14.797-14.338 14.973-.108.003-.215.004-.322.004zm.007-25.264c-.078 0-.155 0-.233.002-2.832.061-5.471 1.222-7.43 3.268s-3.004 4.732-2.942 7.564c.125 5.769 4.857 10.375 10.6 10.375.077 0 .154 0 .232-.002 5.846-.127 10.499-4.986 10.373-10.833-.125-5.767-4.859-10.374-10.6-10.374z" fill="#231f20"/><path d="m966.114 305.412-6.099-61.282c-1.005-10.097-10.005-17.468-20.102-16.463L312.6 290.096c-10.097 1.005-17.468 10.005-16.463 20.102l6.099 61.282 6.463 64.94c1.005 10.097 10.005 17.468 20.102 16.463l627.313-62.429c10.097-1.005 17.468-10.005 16.463-20.102z" fill="#fff"/><path d="M326.966 455.001c-10.348 0-19.238-7.871-20.284-18.38L294.12 310.399a20.257 20.257 0 0 1 4.518-14.945 20.265 20.265 0 0 1 13.762-7.374l627.312-62.429c11.192-1.124 21.206 7.085 22.32 18.279l12.561 126.222a20.26 20.26 0 0 1-4.517 14.945 20.265 20.265 0 0 1-13.762 7.374L329.001 454.9c-.683.068-1.362.101-2.035.101zm614.779-225.398c-.54 0-1.083.027-1.631.081l-627.313 62.429c-4.345.433-8.261 2.531-11.027 5.909s-4.053 7.631-3.62 11.976l12.562 126.222c.893 8.969 8.926 15.537 17.885 14.647l627.312-62.429c4.346-.433 8.262-2.531 11.028-5.909s4.052-7.631 3.619-11.976l-12.561-126.222c-.838-8.421-7.963-14.728-16.254-14.728z" fill="#231f20"/><path d="m810.713 240.553 4.033-.401L830.94 402.94l-4.033.401z" fill="#231f20"/><circle cx="346.106" cy="326.938" fill="#231f20" r="12.632"/><path d="M346.078 341.598a14.546 14.546 0 0 1-9.26-3.319 14.565 14.565 0 0 1-5.299-9.889c-.8-8.043 5.092-15.238 13.134-16.038 8.046-.803 15.237 5.092 16.039 13.135.8 8.043-5.093 15.238-13.135 16.038a14.99 14.99 0 0 1-1.479.073zm.035-25.266c-.35 0-.702.017-1.058.052-5.818.579-10.081 5.785-9.503 11.604a10.531 10.531 0 0 0 3.834 7.154 10.547 10.547 0 0 0 7.769 2.349c5.819-.579 10.082-5.785 9.504-11.604-.544-5.463-5.167-9.555-10.546-9.555z" fill="#231f20"/><circle cx="389.543" cy="322.615" fill="#231f20" r="12.632"/><path d="M389.531 337.274c-7.435 0-13.823-5.655-14.575-13.208-.8-8.043 5.093-15.238 13.135-16.038 3.895-.388 7.71.764 10.739 3.246a14.565 14.565 0 0 1 5.299 9.889c.8 8.043-5.093 15.238-13.135 16.038-.491.049-.979.073-1.463.073zm.032-25.265c-.355 0-.712.018-1.069.053-5.819.579-10.082 5.785-9.504 11.604.579 5.819 5.782 10.078 11.603 9.503 5.819-.579 10.082-5.785 9.504-11.604a10.531 10.531 0 0 0-3.834-7.154 10.528 10.528 0 0 0-6.7-2.402z" fill="#231f20"/><circle cx="432.979" cy="318.292" fill="#231f20" r="12.632"/><path d="M432.969 332.952c-7.436 0-13.824-5.655-14.576-13.208-.8-8.043 5.093-15.238 13.135-16.038 3.895-.389 7.71.764 10.739 3.246a14.565 14.565 0 0 1 5.299 9.889 14.56 14.56 0 0 1-3.245 10.739 14.565 14.565 0 0 1-9.889 5.299c-.491.049-.98.073-1.463.073zm.03-25.266c-.355 0-.712.018-1.069.053-5.819.579-10.082 5.785-9.504 11.604.579 5.818 5.773 10.081 11.604 9.503a10.535 10.535 0 0 0 7.154-3.834 10.538 10.538 0 0 0 2.349-7.77 10.531 10.531 0 0 0-3.834-7.154 10.526 10.526 0 0 0-6.7-2.402z" fill="#231f20"/><path d="m857.88 1059.956 6.81-61.207c1.122-10.085-6.144-19.17-16.229-20.292L221.915 908.75c-10.085-1.122-19.17 6.144-20.292 16.229l-6.81 61.207-7.216 64.861c-1.122 10.085 6.144 19.17 16.229 20.292l626.546 69.708c10.085 1.122 19.17-6.144 20.292-16.229z" fill="#fff"/><path d="M832.419 1143.186c-.75 0-1.508-.042-2.271-.126l-626.545-69.708a20.27 20.27 0 0 1-13.676-7.533 20.27 20.27 0 0 1-4.344-14.997l14.025-126.068c1.244-11.179 11.336-19.269 22.531-18.019l626.545 69.708c5.416.602 10.272 3.277 13.676 7.533s4.946 9.582 4.344 14.997l-6.81 61.207-2.015-.224 2.015.224-7.216 64.861c-1.158 10.417-10.013 18.145-20.259 18.145zM219.871 910.663c-8.211 0-15.305 6.192-16.233 14.54l-14.025 126.068a16.243 16.243 0 0 0 3.479 12.017 16.243 16.243 0 0 0 10.958 6.037l626.546 69.708c8.975.998 17.057-5.48 18.054-14.438l14.025-126.068a16.243 16.243 0 0 0-3.479-12.017 16.241 16.241 0 0 0-10.958-6.036l-626.546-69.708c-.612-.07-1.22-.103-1.821-.103z" fill="#231f20"/><path d="m701.38 1126.706 18.094-162.594 4.03.448-18.094 162.595z" fill="#231f20"/><circle cx="247.005" cy="951.766" fill="#231f20" r="12.632"/><path d="M247.017 966.426c-.54 0-1.084-.03-1.633-.091-8.032-.894-13.841-8.156-12.947-16.189.895-8.035 8.158-13.838 16.19-12.948 8.032.894 13.841 8.156 12.947 16.189-.833 7.486-7.195 13.039-14.557 13.039zm-.019-25.265c-5.327 0-9.93 4.018-10.532 9.433-.647 5.812 3.555 11.066 9.367 11.713 5.8.645 11.064-3.556 11.712-9.368.647-5.812-3.555-11.066-9.367-11.713-.396-.044-.79-.065-1.18-.065z" fill="#231f20"/><circle cx="290.389" cy="956.593" fill="#231f20" r="12.632"/><path d="M290.401 971.252c-.54 0-1.084-.03-1.633-.091-8.033-.894-13.842-8.156-12.948-16.189.895-8.034 8.16-13.842 16.19-12.948 8.033.894 13.842 8.156 12.948 16.189-.833 7.486-7.195 13.039-14.557 13.039zm-.02-25.265c-5.327 0-9.93 4.018-10.532 9.433-.647 5.812 3.556 11.066 9.368 11.713 5.801.647 11.064-3.556 11.712-9.368s-3.556-11.066-9.368-11.713c-.396-.043-.79-.065-1.18-.065z" fill="#231f20"/><circle cx="333.772" cy="961.42" fill="#231f20" r="12.632"/><path d="M333.784 976.079c-.54 0-1.084-.03-1.633-.091-8.033-.894-13.842-8.156-12.948-16.189.895-8.034 8.16-13.839 16.19-12.948 8.032.894 13.841 8.156 12.948 16.189-.832 7.486-7.194 13.039-14.557 13.039zm-.019-25.265c-5.327 0-9.93 4.018-10.532 9.433-.647 5.812 3.556 11.066 9.368 11.713 5.802.642 11.065-3.556 11.712-9.368s-3.557-11.066-9.368-11.713a10.698 10.698 0 0 0-1.18-.065zm828.125 296.738 127.661-6.319c10.135-.502 17.944-9.124 17.442-19.259l-3.227-65.181-3.045-61.509c-.502-10.135-9.124-17.944-19.259-17.442l-127.661 6.32z" fill="#231f20"/><path d="m1159.966 1249.677-8.288-167.439 129.685-6.42c5.453-.267 10.664 1.597 14.703 5.254a20.272 20.272 0 0 1 6.681 14.112l6.271 126.69c.556 11.234-8.133 20.827-19.366 21.383zm-4.04-163.592 7.888 159.343 125.637-6.219c9.002-.446 15.964-8.132 15.519-17.134l-6.271-126.69a16.24 16.24 0 0 0-5.354-11.308 16.243 16.243 0 0 0-11.78-4.21z" fill="#231f20"/><path d="m1153.802 1084.161-501.98 24.849c-10.135.502-17.944 9.124-17.442 19.259l3.045 61.509 3.227 65.181c.502 10.135 9.124 17.944 19.259 17.442l501.98-24.849z" fill="#fff"/><path d="M658.978 1274.451a20.25 20.25 0 0 1-13.67-5.28 20.268 20.268 0 0 1-6.681-14.112l-6.271-126.69c-.557-11.234 8.131-20.827 19.365-21.383l504.005-24.949 8.288 167.439-2.023.101-501.979 24.849c-.347.017-.691.025-1.034.025zm492.9-188.165-499.956 24.749c-9.003.446-15.964 8.132-15.518 17.134l6.271 126.69a16.239 16.239 0 0 0 5.353 11.308 16.254 16.254 0 0 0 11.781 4.21l499.956-24.749z" fill="#231f20"/><path d="M683.445 1162.131c-7.752 0-14.243-6.106-14.632-13.934-.399-8.073 5.844-14.966 13.916-15.366 3.917-.194 7.663 1.147 10.565 3.776s4.607 6.23 4.801 10.141c.399 8.073-5.844 14.966-13.916 15.365-.245.012-.49.018-.734.018zm.022-25.264c-.179 0-.357.004-.536.013-5.841.289-10.357 5.276-10.068 11.117.29 5.84 5.268 10.366 11.116 10.067a10.535 10.535 0 0 0 7.337-3.473c1.901-2.1 2.871-4.814 2.731-7.644s-1.373-5.435-3.473-7.336a10.533 10.533 0 0 0-7.107-2.744zm43.567 23.106a14.544 14.544 0 0 1-9.821-3.794 14.563 14.563 0 0 1-4.801-10.14 14.557 14.557 0 0 1 3.775-10.564 14.563 14.563 0 0 1 10.14-4.801c3.917-.195 7.663 1.147 10.565 3.776s4.607 6.23 4.801 10.141c.399 8.073-5.844 14.966-13.916 15.365-.248.011-.496.017-.743.017zm.031-25.265a10.54 10.54 0 0 0-7.873 3.486 10.533 10.533 0 0 0-2.73 7.643 10.53 10.53 0 0 0 3.473 7.336 10.504 10.504 0 0 0 7.643 2.731 10.535 10.535 0 0 0 7.337-3.473c1.901-2.1 2.871-4.814 2.731-7.644s-1.373-5.435-3.473-7.336a10.545 10.545 0 0 0-7.108-2.743zm43.568 23.106a14.549 14.549 0 0 1-9.822-3.794c-2.902-2.628-4.607-6.229-4.801-10.14s1.147-7.663 3.775-10.564a14.563 14.563 0 0 1 10.14-4.801 14.594 14.594 0 0 1 10.565 3.776c2.902 2.628 4.607 6.229 4.801 10.14s-1.147 7.663-3.775 10.564a14.563 14.563 0 0 1-10.883 4.819zm.03-25.264a9.65 9.65 0 0 0-.537.014c-2.829.14-5.435 1.373-7.336 3.473s-2.871 4.814-2.731 7.644a10.533 10.533 0 0 0 3.473 7.336 10.518 10.518 0 0 0 7.644 2.731c2.829-.14 5.435-1.373 7.336-3.473s2.871-4.814 2.731-7.644a10.533 10.533 0 0 0-3.473-7.336 10.53 10.53 0 0 0-7.107-2.745zm305.756-799.5v52.665h2.881V333.05c-.472.059-.952.094-1.44.094-.489 0-.969-.034-1.441-.094zm2.881-22.663v-52.665h-2.881v52.665c.472-.059.952-.094 1.44-.094.489 0 .968.034 1.441.094zm9.891 12.772h52.665v-2.881h-52.665c.059.472.094.952.094 1.44s-.035.969-.094 1.441zm-22.663-2.881h-52.665v2.881h52.665c-.059-.472-.094-.952-.094-1.44s.034-.969.094-1.441zm4.337-7.591-37.24-37.24-2.037 2.037 37.24 37.24a11.518 11.518 0 0 1 2.037-2.037zm13.988 18.062 37.24 37.24 2.037-2.037-37.24-37.24a11.418 11.418 0 0 1-2.037 2.037zm2.037-16.025 37.24-37.24-2.037-2.037-37.24 37.24a11.484 11.484 0 0 1 2.037 2.037zm-18.062 13.989-37.24 37.24 2.037 2.037 37.24-37.24a11.518 11.518 0 0 1-2.037-2.037zm80.107 268.064 126.785 16.214c10.065 1.287 19.268-5.829 20.555-15.894l8.279-64.734 7.812-61.087c1.287-10.065-5.829-19.268-15.894-20.555l-126.785-16.214z" fill="#231f20"/><path d="M1278.065 615.168a20.47 20.47 0 0 1-2.602-.167l-128.796-16.471 21.268-166.291 128.795 16.472c11.157 1.427 19.074 11.665 17.647 22.822l-16.091 125.821c-1.316 10.284-10.116 17.814-20.221 17.814zm-126.863-20.145 124.774 15.958c8.95 1.145 17.146-5.201 18.288-14.141l16.091-125.821c1.144-8.94-5.199-17.144-14.14-18.288l-124.775-15.957z" fill="#231f20"/><path d="M1169.688 434.507 671.154 370.75c-10.065-1.287-19.268 5.829-20.555 15.894l-7.812 61.087-8.279 64.734c-1.287 10.065 5.829 19.268 15.894 20.555l498.534 63.757z" fill="#fff"/><path d="m1150.688 599.044-2.01-.257-498.533-63.757c-5.405-.691-10.218-3.446-13.551-7.756s-4.788-9.661-4.098-15.066l16.092-125.821a20.264 20.264 0 0 1 7.757-13.55 20.261 20.261 0 0 1 15.065-4.097l500.545 64.014zM668.79 372.625a16.225 16.225 0 0 0-9.966 3.417 16.24 16.24 0 0 0-6.215 10.857L636.517 512.72a16.236 16.236 0 0 0 3.282 12.072 16.239 16.239 0 0 0 10.858 6.215l496.523 63.5 20.238-158.249-496.523-63.5a16.962 16.962 0 0 0-2.105-.133z" fill="#231f20"/><path d="M695.565 428.833c-.627 0-1.257-.04-1.889-.121-8.018-1.025-13.706-8.382-12.682-16.399a14.569 14.569 0 0 1 5.573-9.737 14.561 14.561 0 0 1 10.826-2.944 14.56 14.56 0 0 1 9.737 5.573 14.562 14.562 0 0 1 2.944 10.826 14.569 14.569 0 0 1-5.573 9.737 14.543 14.543 0 0 1-8.936 3.065zm-.052-25.268c-2.334 0-4.589.766-6.465 2.217a10.531 10.531 0 0 0-4.032 7.044c-.742 5.8 3.374 11.123 9.174 11.865 5.792.739 11.122-3.375 11.864-9.174.359-2.811-.396-5.592-2.129-7.833s-4.235-3.673-7.045-4.032a10.863 10.863 0 0 0-1.367-.087zm43.35 30.806c-.627 0-1.258-.04-1.89-.121a14.56 14.56 0 0 1-9.736-5.573 14.56 14.56 0 0 1-2.944-10.826c1.025-8.017 8.388-13.709 16.399-12.681 8.018 1.025 13.706 8.382 12.682 16.399a14.566 14.566 0 0 1-5.574 9.737 14.55 14.55 0 0 1-8.937 3.065zm-.037-25.268c-5.254 0-9.828 3.915-10.512 9.261-.742 5.801 3.373 11.123 9.173 11.865a10.53 10.53 0 0 0 7.833-2.13 10.531 10.531 0 0 0 4.032-7.044c.742-5.8-3.374-11.123-9.174-11.865a10.652 10.652 0 0 0-1.352-.087zm43.317 30.804c-.618 0-1.241-.039-1.87-.12a14.565 14.565 0 0 1-9.737-5.573 14.564 14.564 0 0 1-2.943-10.827c1.026-8.017 8.385-13.711 16.399-12.68 8.018 1.025 13.706 8.382 12.682 16.399-.947 7.39-7.271 12.801-14.531 12.801zm-.018-25.266c-5.254 0-9.828 3.915-10.512 9.26a10.531 10.531 0 0 0 2.129 7.833 10.531 10.531 0 0 0 7.044 4.032c5.799.742 11.124-3.373 11.865-9.174.742-5.8-3.374-11.123-9.174-11.865a10.661 10.661 0 0 0-1.352-.086z" fill="#231f20"/><circle cx="535.746" cy="1132.682" fill="#fff" r="42.07"/><path d="M535.746 1176.778c-24.314 0-44.096-19.782-44.096-44.097 0-24.314 19.781-44.096 44.096-44.096s44.096 19.782 44.096 44.096c0 24.316-19.781 44.097-44.096 44.097zm0-84.139c-22.079 0-40.043 17.963-40.043 40.042s17.964 40.043 40.043 40.043 40.043-17.963 40.043-40.043-17.964-40.042-40.043-40.042z" fill="#231f20"/><path d="m557.356 1170.275-3.986-.733c.014-.079 1.412-7.936-.224-16.18-2.104-10.604-8.083-16.892-17.769-18.688l.738-3.985c27.278 5.057 21.304 39.241 21.241 39.586z" fill="#231f20"/><path d="M576.479 1135.85c-.061-.052-6.166-5.191-14.123-7.896-10.235-3.48-18.67-1.447-25.068 6.044l-3.082-2.633c18.019-21.093 44.636 1.172 44.901 1.399z" fill="#231f20"/><path d="M533.836 1133.358c-9.26-26.151 23.332-38.069 23.662-38.187l1.358 3.819c-.075.027-7.579 2.744-13.9 8.283-8.132 7.125-10.588 15.446-7.3 24.732z" fill="#231f20"/><path d="M535.377 1134.674c-27.277-5.057-21.304-39.241-21.24-39.585l3.986.733c-.014.079-1.412 7.936.224 16.179 2.104 10.604 8.083 16.892 17.769 18.688z" fill="#231f20"/><path d="M518.439 1143.071c-13.541 0-25.873-10.317-26.054-10.472l2.628-3.086c.061.051 6.166 5.191 14.123 7.896 10.237 3.479 18.67 1.447 25.069-6.045l3.082 2.633c-5.781 6.769-12.451 9.074-18.848 9.074z" fill="#231f20"/><path d="m513.994 1170.192-1.358-3.819c.075-.027 7.579-2.745 13.9-8.283 8.132-7.125 10.588-15.446 7.3-24.732l3.82-1.353c9.26 26.151-23.332 38.07-23.662 38.187z" fill="#231f20"/></svg>