<svg height="1500" viewBox="0 0 1500 1500" width="1500" xmlns="http://www.w3.org/2000/svg"><path d="M236.418 466.902h1061.748v578.768c0 14.982-12.145 27.127-27.126 27.127H263.545c-14.982 0-27.127-12.145-27.127-27.127z" fill="#fff"/><path d="M1271.04 1074.139H263.545c-15.698 0-28.469-12.771-28.469-28.469V465.56h1064.433v580.11c0 15.698-12.771 28.469-28.469 28.469zM237.761 468.243v577.427c0 14.218 11.567 25.785 25.784 25.785H1271.04c14.217 0 25.784-11.567 25.784-25.785V468.243z" fill="#231f20"/><path d="M263.545 348.849H1271.04c14.982 0 27.126 12.145 27.126 27.127v90.926H236.418v-90.926c0-14.982 12.145-27.127 27.127-27.127z" fill="#fff"/><path d="M1299.509 468.243H235.076v-92.268c0-15.697 12.771-28.468 28.469-28.468H1271.04c15.698 0 28.469 12.771 28.469 28.468zM237.761 465.56h1059.063v-89.584c0-14.217-11.567-25.784-25.784-25.784H263.545c-14.217 0-25.784 11.567-25.784 25.784z" fill="#231f20"/><circle cx="307.384" cy="407.876" fill="#231f20" r="18.65"/><path d="M307.384 427.867c-11.024 0-19.992-8.968-19.992-19.991 0-11.024 8.968-19.992 19.992-19.992s19.993 8.968 19.993 19.992-8.969 19.991-19.993 19.991zm0-37.299c-9.543 0-17.308 7.765-17.308 17.309 0 9.543 7.764 17.308 17.308 17.308s17.308-7.765 17.308-17.308c0-9.545-7.764-17.309-17.308-17.309z" fill="#231f20"/><circle cx="371.833" cy="407.876" fill="#231f20" r="18.65"/><path d="M371.833 427.867c-11.024 0-19.992-8.968-19.992-19.991 0-11.024 8.968-19.992 19.992-19.992s19.993 8.968 19.993 19.992-8.969 19.991-19.993 19.991zm0-37.299c-9.543 0-17.308 7.765-17.308 17.309 0 9.543 7.764 17.308 17.308 17.308s17.308-7.765 17.308-17.308c0-9.545-7.764-17.309-17.308-17.309z" fill="#231f20"/><circle cx="436.282" cy="407.876" fill="#231f20" r="18.65"/><path d="M436.282 427.867c-11.024 0-19.992-8.968-19.992-19.991 0-11.024 8.968-19.992 19.992-19.992s19.993 8.968 19.993 19.992c-.001 11.024-8.969 19.991-19.993 19.991zm0-37.299c-9.543 0-17.308 7.765-17.308 17.309 0 9.543 7.764 17.308 17.308 17.308s17.308-7.765 17.308-17.308c0-9.545-7.764-17.309-17.308-17.309z" fill="#231f20"/><path d="M1251.984 1040.468H798.24a6.607 6.607 0 0 1-6.606-6.606V799.844a6.607 6.607 0 0 1 6.606-6.606h453.743a6.607 6.607 0 0 1 6.606 6.606v234.018a6.605 6.605 0 0 1-6.605 6.606z" fill="#fff"/><path d="M1252.062 1041.81h-8.176a1.342 1.342 0 0 1 0-2.684h8.097c.741 0 1.381.601 1.381 1.342s-.561 1.342-1.302 1.342zm-18.972 0h-8.097a1.342 1.342 0 0 1 0-2.684h8.097a1.342 1.342 0 0 1 0 2.684zm-18.892 0h-8.097a1.342 1.342 0 0 1 0-2.684h8.097a1.342 1.342 0 0 1 0 2.684zm-18.893 0h-8.097a1.342 1.342 0 0 1 0-2.684h8.097a1.342 1.342 0 0 1 0 2.684zm-18.893 0h-8.097a1.342 1.342 0 0 1 0-2.684h8.097a1.342 1.342 0 0 1 0 2.684zm-18.893 0h-8.097a1.342 1.342 0 0 1 0-2.684h8.097a1.342 1.342 0 0 1 0 2.684zm-18.893 0h-8.097a1.342 1.342 0 0 1 0-2.684h8.097a1.342 1.342 0 0 1 0 2.684zm-18.893 0h-8.097a1.342 1.342 0 0 1 0-2.684h8.097a1.342 1.342 0 0 1 0 2.684zm-18.893 0h-8.097a1.342 1.342 0 0 1 0-2.684h8.097a1.342 1.342 0 0 1 0 2.684zm-18.893 0h-8.097a1.342 1.342 0 0 1 0-2.684h8.097a1.342 1.342 0 0 1 0 2.684zm-18.893 0h-8.097a1.342 1.342 0 0 1 0-2.684h8.097a1.342 1.342 0 0 1 0 2.684zm-18.893 0h-8.097a1.342 1.342 0 0 1 0-2.684h8.097a1.342 1.342 0 0 1 0 2.684zm-18.893 0h-8.097a1.342 1.342 0 0 1 0-2.684h8.097a1.342 1.342 0 0 1 0 2.684zm-18.893 0h-8.097a1.342 1.342 0 0 1 0-2.684h8.097a1.342 1.342 0 0 1 0 2.684zm-18.893 0h-8.097a1.342 1.342 0 0 1 0-2.684h8.097a1.342 1.342 0 0 1 0 2.684zm-18.893 0h-8.097a1.342 1.342 0 0 1 0-2.684h8.097a1.342 1.342 0 0 1 0 2.684zm-18.892 0H941.6a1.342 1.342 0 0 1 0-2.684h8.097a1.342 1.342 0 0 1 0 2.684zm-18.893 0h-8.097a1.342 1.342 0 0 1 0-2.684h8.097a1.342 1.342 0 0 1 0 2.684zm-18.893 0h-8.097a1.342 1.342 0 0 1 0-2.684h8.097a1.342 1.342 0 0 1 0 2.684zm-18.893 0h-8.097a1.342 1.342 0 0 1 0-2.684h8.097a1.342 1.342 0 0 1 0 2.684zm-18.893 0h-8.097a1.342 1.342 0 0 1 0-2.684h8.097a1.342 1.342 0 0 1 0 2.684zm-18.893 0h-8.097a1.342 1.342 0 0 1 0-2.684h8.097a1.342 1.342 0 0 1 0 2.684zm-18.893 0h-8.097a1.342 1.342 0 0 1 0-2.684h8.097a1.342 1.342 0 0 1 0 2.684zm-18.893 0h-8.097a1.342 1.342 0 0 1 0-2.684h8.097a1.342 1.342 0 0 1 0 2.684zm-18.893 0h-.313a7.93 7.93 0 0 1-7.344-4.903 1.342 1.342 0 0 1 2.479-1.029 5.252 5.252 0 0 0 4.865 3.249h.313a1.342 1.342 0 0 1 0 2.683zm460.037-7.1a1.342 1.342 0 0 1-1.342-1.342v-8.097a1.342 1.342 0 0 1 2.684 0v8.097c0 .741-.601 1.342-1.342 1.342zm-466.956-7.705a1.342 1.342 0 0 1-1.342-1.342v-8.097a1.342 1.342 0 0 1 2.684 0v8.097c0 .741-.601 1.342-1.342 1.342zm466.956-11.187a1.342 1.342 0 0 1-1.342-1.342v-8.097a1.342 1.342 0 0 1 2.684 0v8.097c0 .741-.601 1.342-1.342 1.342zm-466.956-7.706a1.342 1.342 0 0 1-1.342-1.342v-8.098a1.342 1.342 0 0 1 2.684 0v8.098c0 .742-.601 1.342-1.342 1.342zm466.956-11.187a1.342 1.342 0 0 1-1.342-1.342v-8.098a1.342 1.342 0 0 1 2.684 0v8.098c0 .741-.601 1.342-1.342 1.342zm-466.956-7.706a1.342 1.342 0 0 1-1.342-1.342v-8.097a1.342 1.342 0 0 1 2.684 0v8.097c0 .741-.601 1.342-1.342 1.342zm466.956-11.188a1.342 1.342 0 0 1-1.342-1.342v-8.097a1.342 1.342 0 0 1 2.684 0v8.097c0 .742-.601 1.342-1.342 1.342zm-466.956-7.705a1.342 1.342 0 0 1-1.342-1.342v-8.097a1.342 1.342 0 0 1 2.684 0v8.097c0 .742-.601 1.342-1.342 1.342zm466.956-11.187a1.342 1.342 0 0 1-1.342-1.342V949.7a1.342 1.342 0 0 1 2.684 0v8.097c0 .741-.601 1.342-1.342 1.342zm-466.956-7.705a1.342 1.342 0 0 1-1.342-1.342v-8.098a1.342 1.342 0 0 1 2.684 0v8.098c0 .741-.601 1.342-1.342 1.342zm466.956-11.188a1.342 1.342 0 0 1-1.342-1.342v-8.098a1.342 1.342 0 0 1 2.684 0v8.098c0 .742-.601 1.342-1.342 1.342zm-466.956-7.706a1.342 1.342 0 0 1-1.342-1.342v-8.097a1.342 1.342 0 0 1 2.684 0v8.097c0 .742-.601 1.342-1.342 1.342zm466.956-11.187a1.342 1.342 0 0 1-1.342-1.342v-8.097a1.342 1.342 0 0 1 2.684 0v8.097c0 .741-.601 1.342-1.342 1.342zm-466.956-7.705a1.342 1.342 0 0 1-1.342-1.342v-8.097a1.342 1.342 0 0 1 2.684 0v8.097c0 .741-.601 1.342-1.342 1.342zm466.956-11.188a1.342 1.342 0 0 1-1.342-1.342v-8.097a1.342 1.342 0 0 1 2.684 0v8.097c0 .741-.601 1.342-1.342 1.342zm-466.956-7.705a1.342 1.342 0 0 1-1.342-1.342v-8.098a1.342 1.342 0 0 1 2.684 0v8.098c0 .741-.601 1.342-1.342 1.342zm466.956-11.188a1.342 1.342 0 0 1-1.342-1.342v-8.097a1.342 1.342 0 0 1 2.684 0v8.097c0 .741-.601 1.342-1.342 1.342zm-466.956-7.706a1.342 1.342 0 0 1-1.342-1.342v-8.097a1.342 1.342 0 0 1 2.684 0v8.097c0 .742-.601 1.342-1.342 1.342zm466.956-11.187a1.342 1.342 0 0 1-1.342-1.342v-8.097a1.342 1.342 0 0 1 2.684 0v8.097c0 .741-.601 1.342-1.342 1.342zm-466.956-7.705a1.342 1.342 0 0 1-1.342-1.342v-8.097a1.342 1.342 0 0 1 2.684 0v8.097c0 .741-.601 1.342-1.342 1.342zm466.956-11.188a1.342 1.342 0 0 1-1.342-1.342v-8.098a1.342 1.342 0 0 1 2.684 0v8.098c0 .742-.601 1.342-1.342 1.342zm-466.956-7.705a1.342 1.342 0 0 1-1.342-1.342v-8.098a1.342 1.342 0 0 1 2.684 0v8.098c0 .742-.601 1.342-1.342 1.342zm466.956-11.188a1.342 1.342 0 0 1-1.342-1.342v-8.097a1.342 1.342 0 0 1 2.684 0v8.097c0 .741-.601 1.342-1.342 1.342zm-466.956-7.705a1.342 1.342 0 0 1-1.342-1.342v-8.097a1.342 1.342 0 0 1 2.684 0v8.097c0 .741-.601 1.342-1.342 1.342zm466.956-11.188a1.342 1.342 0 0 1-1.342-1.342v-6.81c0-.344-.034-.688-.099-1.021a1.342 1.342 0 1 1 2.635-.515c.098.502.148 1.019.149 1.535v6.812a1.343 1.343 0 0 1-1.343 1.341zm-466.895-7.701a1.341 1.341 0 0 1-1.331-1.523 7.958 7.958 0 0 1 6.22-6.703 1.342 1.342 0 0 1 .556 2.627 5.266 5.266 0 0 0-4.117 4.436 1.342 1.342 0 0 1-1.328 1.163zm458.587-5.715h-8.097a1.342 1.342 0 0 1 0-2.684h8.097a1.342 1.342 0 0 1 0 2.684zm-18.893 0h-8.097a1.342 1.342 0 0 1 0-2.684h8.097a1.342 1.342 0 0 1 0 2.684zm-18.893 0h-8.097a1.342 1.342 0 0 1 0-2.684h8.097a1.342 1.342 0 0 1 0 2.684zm-18.893 0h-8.097a1.342 1.342 0 0 1 0-2.684h8.097a1.342 1.342 0 0 1 0 2.684zm-18.893 0h-8.097a1.342 1.342 0 0 1 0-2.684h8.097a1.342 1.342 0 0 1 0 2.684zm-18.893 0h-8.097a1.342 1.342 0 0 1 0-2.684h8.097a1.342 1.342 0 0 1 0 2.684zm-18.893 0h-8.097a1.342 1.342 0 0 1 0-2.684h8.097a1.342 1.342 0 0 1 0 2.684zm-18.893 0h-8.097a1.342 1.342 0 0 1 0-2.684h8.097a1.342 1.342 0 0 1 0 2.684zm-18.893 0h-8.097a1.342 1.342 0 0 1 0-2.684h8.097a1.342 1.342 0 0 1 0 2.684zm-18.893 0h-8.097a1.342 1.342 0 0 1 0-2.684h8.097a1.342 1.342 0 0 1 0 2.684zm-18.892 0h-8.097a1.342 1.342 0 0 1 0-2.684h8.097a1.342 1.342 0 0 1 0 2.684zm-18.894 0h-8.097a1.342 1.342 0 0 1 0-2.684h8.097a1.342 1.342 0 0 1 0 2.684zm-18.893 0h-8.097a1.342 1.342 0 0 1 0-2.684h8.097a1.342 1.342 0 0 1 0 2.684zm-18.892 0h-8.097a1.342 1.342 0 0 1 0-2.684h8.097a1.342 1.342 0 0 1 0 2.684zm-18.893 0h-8.097a1.342 1.342 0 0 1 0-2.684h8.097a1.342 1.342 0 0 1 0 2.684zm-18.893 0h-8.097a1.342 1.342 0 0 1 0-2.684h8.097a1.342 1.342 0 0 1 0 2.684zm-18.893 0h-8.097a1.342 1.342 0 0 1 0-2.684h8.097a1.342 1.342 0 0 1 0 2.684zm-18.893 0h-8.097a1.342 1.342 0 0 1 0-2.684h8.097a1.342 1.342 0 0 1 0 2.684zm-18.893 0h-8.097a1.342 1.342 0 0 1 0-2.684h8.097a1.342 1.342 0 0 1 0 2.684zm-18.893 0h-8.097a1.342 1.342 0 0 1 0-2.684h8.097a1.342 1.342 0 0 1 0 2.684zm-18.893 0h-8.097a1.342 1.342 0 0 1 0-2.684h8.097a1.342 1.342 0 0 1 0 2.684zm-18.893 0h-8.097a1.342 1.342 0 0 1 0-2.684h8.097a1.342 1.342 0 0 1 0 2.684zm-18.893 0h-8.097a1.342 1.342 0 0 1 0-2.684h8.097a1.342 1.342 0 0 1 0 2.684zm-18.892 0h-8.097a1.342 1.342 0 0 1 0-2.684h8.097a1.342 1.342 0 0 1 0 2.684zm209.367 88.231c-18.801 0-34.042 15.241-34.042 34.042 0 18.801 15.241 34.042 34.042 34.042 18.801 0 34.042-15.241 34.042-34.042.001-18.801-15.241-34.042-34.042-34.042z" fill="#231f20"/><path d="M1025.112 952.236c-19.511 0-35.385-15.873-35.385-35.384 0-19.512 15.874-35.385 35.385-35.385s35.385 15.873 35.385 35.385c0 19.511-15.873 35.384-35.385 35.384zm0-68.085c-18.031 0-32.7 14.67-32.7 32.701 0 18.03 14.669 32.7 32.7 32.7s32.7-14.67 32.7-32.7c0-18.031-14.669-32.701-32.7-32.701z" fill="#231f20"/><path d="M1025.112 933.058a1.342 1.342 0 0 1-1.342-1.342v-29.728a1.342 1.342 0 0 1 2.684 0v29.728a1.34 1.34 0 0 1-1.342 1.342z" fill="#fff"/><path d="M1039.976 918.194h-29.728a1.342 1.342 0 0 1 0-2.684h29.728a1.342 1.342 0 0 1 0 2.684zm-300.875 122.274H285.358a6.607 6.607 0 0 1-6.606-6.606V799.844a6.607 6.607 0 0 1 6.606-6.606h453.743a6.607 6.607 0 0 1 6.606 6.606v234.018a6.606 6.606 0 0 1-6.606 6.606z" fill="#fff"/><path d="M739.101 1041.81H285.357c-4.383 0-7.948-3.565-7.948-7.948V799.844c0-4.383 3.565-7.948 7.948-7.948h453.744c4.383 0 7.948 3.565 7.948 7.948v234.018c0 4.382-3.565 7.948-7.948 7.948zM285.357 794.579a5.27 5.27 0 0 0-5.264 5.265v234.018a5.27 5.27 0 0 0 5.264 5.265h453.744a5.27 5.27 0 0 0 5.264-5.265V799.844a5.27 5.27 0 0 0-5.264-5.265z" fill="#231f20"/><path d="M278.751 824.532v-24.688a6.607 6.607 0 0 1 6.606-6.606H739.1a6.607 6.607 0 0 1 6.606 6.606v24.688z" fill="#231f20"/><path d="M745.707 825.873H278.751a1.342 1.342 0 0 1-1.342-1.342v-24.688c0-4.383 3.565-7.948 7.948-7.948h453.744c4.383 0 7.948 3.565 7.948 7.948v24.688c0 .742-.601 1.342-1.342 1.342zm-465.613-2.683h464.271v-23.346a5.27 5.27 0 0 0-5.264-5.265H285.357a5.27 5.27 0 0 0-5.264 5.265v23.346z" fill="#231f20"/><path d="M684.74 802.085h35.361v13.599H684.74z" fill="#fff"/><path d="M720.101 817.026H684.74a1.342 1.342 0 0 1-1.342-1.342v-13.6c0-.741.601-1.342 1.342-1.342h35.361c.741 0 1.342.601 1.342 1.342v13.6c0 .742-.601 1.342-1.342 1.342zm-34.019-2.683h32.677v-10.916h-32.677zm-11.575 2.683h-35.361a1.342 1.342 0 0 1-1.342-1.342v-13.6c0-.741.601-1.342 1.342-1.342h35.361c.741 0 1.342.601 1.342 1.342v13.6a1.34 1.34 0 0 1-1.342 1.342zm-34.018-2.683h32.676v-10.916h-32.676zm-336.131-12.258h13.599v13.599h-13.599z" fill="#fff"/><path d="M317.958 817.026h-13.599a1.342 1.342 0 0 1-1.342-1.342v-13.6c0-.741.601-1.342 1.342-1.342h13.599c.741 0 1.342.601 1.342 1.342v13.6c0 .742-.601 1.342-1.342 1.342zm-12.257-2.683h10.915v-10.916h-10.915z" fill="#fff"/><path d="M304.358 883.54H473.16v16.842H304.358z" fill="#231f20"/><path d="M473.16 901.723H304.358a1.342 1.342 0 0 1-1.342-1.342v-16.842c0-.741.601-1.342 1.342-1.342H473.16c.741 0 1.342.601 1.342 1.342v16.842c0 .741-.601 1.342-1.342 1.342zm-167.459-2.684h166.117v-14.158H305.701zm-1.343 10.735h142.76v16.842h-142.76z" fill="#231f20"/><path d="M447.119 927.957h-142.76a1.342 1.342 0 0 1-1.342-1.342v-16.842c0-.741.601-1.342 1.342-1.342h142.76c.741 0 1.342.601 1.342 1.342v16.842c0 .742-.601 1.342-1.342 1.342zm-141.418-2.683h140.076v-14.158H305.701z" fill="#231f20"/><path d="M304.358 946.516h158.673v7.512H304.358z" fill="#fff"/><path d="M463.032 955.37H304.358a1.342 1.342 0 0 1-1.342-1.342v-7.513c0-.741.601-1.342 1.342-1.342h158.673c.741 0 1.342.601 1.342 1.342v7.513a1.34 1.34 0 0 1-1.341 1.342zm-157.331-2.683H461.69v-4.829H305.701z" fill="#231f20"/><path d="M304.358 963.377h126.469v7.512H304.358z" fill="#fff"/><path d="M430.828 972.232h-126.47a1.342 1.342 0 0 1-1.342-1.342v-7.513c0-.741.601-1.342 1.342-1.342h126.469c.741 0 1.342.601 1.342 1.342v7.513a1.34 1.34 0 0 1-1.341 1.342zm-125.127-2.684h123.785v-4.829H305.701z" fill="#231f20"/><path d="M531.192 866.438h188.909v132.123H531.192z" fill="#fff"/><path d="M720.101 999.902h-188.91a1.342 1.342 0 0 1-1.342-1.342V866.439c0-.741.601-1.342 1.342-1.342H720.1c.741 0 1.342.601 1.342 1.342v132.122a1.34 1.34 0 0 1-1.341 1.341zm-187.567-2.683h186.225V867.78H532.534z" fill="#231f20"/><path d="M1251.984 747.31H798.24a6.607 6.607 0 0 1-6.606-6.606V506.686a6.607 6.607 0 0 1 6.606-6.606h453.743a6.607 6.607 0 0 1 6.606 6.606v234.018a6.604 6.604 0 0 1-6.605 6.606z" fill="#fff"/><path d="M1251.984 748.652H798.24c-4.383 0-7.948-3.565-7.948-7.948V506.687c0-4.383 3.565-7.948 7.948-7.948h453.744c4.383 0 7.948 3.565 7.948 7.948v234.018c0 4.382-3.565 7.947-7.948 7.947zM798.24 501.422a5.27 5.27 0 0 0-5.264 5.265v234.018a5.27 5.27 0 0 0 5.264 5.265h453.744a5.27 5.27 0 0 0 5.264-5.265V506.687a5.27 5.27 0 0 0-5.264-5.265z" fill="#231f20"/><path d="M791.634 531.375v-24.688a6.607 6.607 0 0 1 6.606-6.606h453.743a6.607 6.607 0 0 1 6.606 6.606v24.688z" fill="#231f20"/><path d="M1258.59 532.717H791.634a1.342 1.342 0 0 1-1.342-1.342v-24.688c0-4.383 3.565-7.948 7.948-7.948h453.744c4.383 0 7.948 3.565 7.948 7.948v24.688c0 .741-.601 1.342-1.342 1.342zm-465.613-2.684h464.271v-23.347a5.27 5.27 0 0 0-5.264-5.265H798.24a5.27 5.27 0 0 0-5.264 5.265v23.347z" fill="#231f20"/><g fill="#fff"><circle cx="824.041" cy="515.727" r="6.8"/><path d="M824.041 523.869c-4.489 0-8.142-3.652-8.142-8.142s3.652-8.142 8.142-8.142 8.142 3.652 8.142 8.142-3.653 8.142-8.142 8.142zm0-13.599c-3.009 0-5.457 2.448-5.457 5.458s2.448 5.458 5.457 5.458 5.458-2.448 5.458-5.458-2.449-5.458-5.458-5.458zm12.954 1.893h35.361v7.129h-35.361z"/><path d="M872.356 520.634h-35.361a1.342 1.342 0 0 1-1.342-1.342v-7.129c0-.741.601-1.342 1.342-1.342h35.361c.741 0 1.342.601 1.342 1.342v7.129a1.34 1.34 0 0 1-1.342 1.342zm-34.019-2.684h32.677v-4.445h-32.677zm268.1-4.427h35.361v4.409h-35.361z"/><path d="M1141.797 519.274h-35.361a1.342 1.342 0 0 1-1.342-1.342v-4.409c0-.741.601-1.342 1.342-1.342h35.361c.741 0 1.342.601 1.342 1.342v4.409a1.34 1.34 0 0 1-1.342 1.342zm-34.018-2.684h32.676v-1.726h-32.676zm-46.935-3.067h35.361v4.409h-35.361z"/><path d="M1096.205 519.274h-35.361a1.342 1.342 0 0 1-1.342-1.342v-4.409c0-.741.601-1.342 1.342-1.342h35.361c.741 0 1.342.601 1.342 1.342v4.409c0 .741-.601 1.342-1.342 1.342zm-34.019-2.684h32.676v-1.726h-32.676zm-46.935-3.067h35.361v4.409h-35.361z"/><path d="M1050.612 519.274h-35.361a1.342 1.342 0 0 1-1.342-1.342v-4.409c0-.741.601-1.342 1.342-1.342h35.361c.741 0 1.342.601 1.342 1.342v4.409c0 .741-.601 1.342-1.342 1.342zm-34.019-2.684h32.677v-1.726h-32.677zm181.029-7.662h35.361v13.599h-35.361z"/><path d="M1232.983 523.869h-35.361a1.342 1.342 0 0 1-1.342-1.342v-13.6c0-.741.601-1.342 1.342-1.342h35.361c.741 0 1.342.601 1.342 1.342v13.6a1.34 1.34 0 0 1-1.342 1.342zm-34.019-2.683h32.677V510.27h-32.677zm-11.574 2.683h-35.361a1.342 1.342 0 0 1-1.342-1.342v-13.6c0-.741.601-1.342 1.342-1.342h35.361c.741 0 1.342.601 1.342 1.342v13.6c0 .742-.601 1.342-1.342 1.342zm-34.018-2.683h32.676V510.27h-32.676z"/></g><path d="M877.814 565.384h294.597v16.842H877.814z" fill="#231f20"/><path d="M1172.411 583.568H877.813a1.342 1.342 0 0 1-1.342-1.342v-16.842c0-.741.601-1.342 1.342-1.342h294.597c.741 0 1.342.601 1.342 1.342v16.842a1.34 1.34 0 0 1-1.341 1.342zm-293.255-2.684h291.913v-14.158H879.156zm21.382 10.734h249.149v16.842H900.538z" fill="#231f20"/><path d="M1149.687 609.802H900.538a1.342 1.342 0 0 1-1.342-1.342v-16.842c0-.741.601-1.342 1.342-1.342h249.149c.741 0 1.342.601 1.342 1.342v16.842c0 .741-.601 1.342-1.342 1.342zm-247.807-2.684h246.464V592.96H901.88z" fill="#231f20"/><path d="M945.776 628.36h158.673v7.512H945.776z" fill="#fff"/><path d="M1104.449 637.214H945.775a1.342 1.342 0 0 1-1.342-1.342v-7.513c0-.741.601-1.342 1.342-1.342h158.673c.741 0 1.342.601 1.342 1.342v7.513a1.34 1.34 0 0 1-1.341 1.342zm-157.331-2.684h155.989v-4.829H947.118z" fill="#231f20"/><path d="M961.878 645.222h126.469v7.512H961.878z" fill="#fff"/><path d="M1088.347 654.076h-126.47a1.342 1.342 0 0 1-1.342-1.342v-7.513c0-.741.601-1.342 1.342-1.342h126.469c.741 0 1.342.601 1.342 1.342v7.513a1.34 1.34 0 0 1-1.341 1.342zm-125.127-2.683h123.785v-4.829H963.22z" fill="#231f20"/><path d="M817.241 689.313h111.371v57.998H817.241z" fill="#fff"/><path d="M928.612 748.652H817.241a1.342 1.342 0 0 1-1.342-1.342v-57.998c0-.741.601-1.342 1.342-1.342h111.371c.741 0 1.342.601 1.342 1.342v57.998a1.34 1.34 0 0 1-1.342 1.342zm-110.029-2.683H927.27v-55.314H818.583z" fill="#231f20"/><path d="M969.427 689.313h111.371v57.998H969.427z" fill="#fff"/><path d="M1080.798 748.652H969.426a1.342 1.342 0 0 1-1.342-1.342v-57.998c0-.741.601-1.342 1.342-1.342h111.372c.741 0 1.342.601 1.342 1.342v57.998c0 .742-.601 1.342-1.342 1.342zm-110.029-2.683h108.687v-55.314H970.769z" fill="#231f20"/><path d="M1121.612 689.313h111.371v57.998h-111.371z" fill="#fff"/><path d="M1232.983 748.652h-111.372a1.342 1.342 0 0 1-1.342-1.342v-57.998c0-.741.601-1.342 1.342-1.342h111.372c.741 0 1.342.601 1.342 1.342v57.998a1.34 1.34 0 0 1-1.342 1.342zm-110.029-2.683h108.687v-55.314h-108.687z" fill="#231f20"/><path d="M739.101 747.31H285.358a6.607 6.607 0 0 1-6.606-6.606V506.686a6.607 6.607 0 0 1 6.606-6.606h453.743a6.607 6.607 0 0 1 6.606 6.606v234.018a6.605 6.605 0 0 1-6.606 6.606z" fill="#fff"/><path d="M739.101 748.652H285.357c-4.383 0-7.948-3.565-7.948-7.948V506.687c0-4.383 3.565-7.948 7.948-7.948h453.744c4.383 0 7.948 3.565 7.948 7.948v234.018c0 4.382-3.565 7.947-7.948 7.947zm-453.744-247.23a5.27 5.27 0 0 0-5.264 5.265v234.018a5.27 5.27 0 0 0 5.264 5.265h453.744a5.27 5.27 0 0 0 5.264-5.265V506.687a5.27 5.27 0 0 0-5.264-5.265z" fill="#231f20"/><path d="M378.515 747.31h-93.158a6.607 6.607 0 0 1-6.606-6.606V506.686a6.607 6.607 0 0 1 6.606-6.606h93.158z" fill="#231f20"/><path d="M378.515 748.652h-93.158c-4.383 0-7.948-3.565-7.948-7.948V506.687c0-4.383 3.565-7.948 7.948-7.948h93.158c.741 0 1.342.601 1.342 1.342v247.23c0 .741-.601 1.341-1.342 1.341zm-93.158-247.23a5.27 5.27 0 0 0-5.264 5.265v234.018a5.27 5.27 0 0 0 5.264 5.265h91.815V501.422z" fill="#231f20"/><path d="M304.358 512.163h51.328v7.129h-51.328z" fill="#fff"/><path d="M355.687 520.634h-51.328a1.342 1.342 0 0 1-1.342-1.342v-7.129c0-.741.601-1.342 1.342-1.342h51.328c.741 0 1.342.601 1.342 1.342v7.129c0 .741-.601 1.342-1.342 1.342zm-49.986-2.684h48.644v-4.445h-48.644zm-1.343 9.538h42.087v7.129h-42.087z" fill="#fff"/><path d="M346.445 535.96h-42.087a1.342 1.342 0 0 1-1.342-1.342v-7.13c0-.741.601-1.342 1.342-1.342h42.087c.741 0 1.342.601 1.342 1.342v7.13a1.34 1.34 0 0 1-1.342 1.342zm-40.744-2.684h39.402v-4.446h-39.402zm-1.343 9.538h48.03v7.129h-48.03z" fill="#fff"/><path d="M352.388 551.285h-48.03a1.342 1.342 0 0 1-1.342-1.342v-7.129c0-.741.601-1.342 1.342-1.342h48.03c.741 0 1.342.601 1.342 1.342v7.129c0 .742-.601 1.342-1.342 1.342zm-46.687-2.683h45.345v-4.445h-45.345zm-1.343 9.538h38.062v7.129h-38.062z" fill="#fff"/><path d="M342.42 566.611h-38.062a1.342 1.342 0 0 1-1.342-1.342v-7.13c0-.741.601-1.342 1.342-1.342h38.062c.741 0 1.342.601 1.342 1.342v7.13c0 .742-.601 1.342-1.342 1.342zm-36.719-2.683h35.377v-4.446h-35.377zm-1.343 9.537h22.234v7.129h-22.234z" fill="#fff"/><path d="M326.592 581.937h-22.234a1.342 1.342 0 0 1-1.342-1.342v-7.13c0-.741.601-1.342 1.342-1.342h22.234c.741 0 1.342.601 1.342 1.342v7.13a1.34 1.34 0 0 1-1.342 1.342zm-20.891-2.684h19.549v-4.446h-19.549z" fill="#fff"/><path d="M712.971 512.163h7.129v7.129h-7.129z" fill="#231f20"/><path d="M720.101 520.634h-7.129a1.342 1.342 0 0 1-1.342-1.342v-7.129c0-.741.601-1.342 1.342-1.342h7.129c.741 0 1.342.601 1.342 1.342v7.129c0 .741-.601 1.342-1.342 1.342zm-5.788-2.684h4.445v-4.445h-4.445zm-15.841-5.787h7.129v7.129h-7.129z" fill="#231f20"/><path d="M705.602 520.634h-7.129a1.342 1.342 0 0 1-1.342-1.342v-7.129c0-.741.601-1.342 1.342-1.342h7.129c.741 0 1.342.601 1.342 1.342v7.129c0 .741-.601 1.342-1.342 1.342zm-5.788-2.684h4.445v-4.445h-4.445zm-15.841-5.787h7.129v7.129h-7.129z" fill="#231f20"/><path d="M691.103 520.634h-7.129a1.342 1.342 0 0 1-1.342-1.342v-7.129c0-.741.601-1.342 1.342-1.342h7.129c.741 0 1.342.601 1.342 1.342v7.129c0 .741-.601 1.342-1.342 1.342zm-5.788-2.684h4.445v-4.445h-4.445zm-15.841-5.787h7.129v7.129h-7.129z" fill="#231f20"/><path d="M676.604 520.634h-7.129a1.342 1.342 0 0 1-1.342-1.342v-7.129c0-.741.601-1.342 1.342-1.342h7.129c.741 0 1.342.601 1.342 1.342v7.129c0 .741-.601 1.342-1.342 1.342zm-5.788-2.684h4.445v-4.445h-4.445z" fill="#231f20"/><path d="M402.899 542.814h317.202v116.575H402.899z" fill="#fff"/><path d="M720.101 660.732H402.898a1.342 1.342 0 0 1-1.342-1.342V542.815c0-.741.601-1.342 1.342-1.342H720.1c.741 0 1.342.601 1.342 1.342V659.39a1.34 1.34 0 0 1-1.341 1.342zm-315.86-2.684h314.518V544.156H404.241z" fill="#231f20"/><path d="M402.899 676.662h317.202v70.648H402.899z" fill="#fff"/><path d="M720.101 748.652H402.898a1.342 1.342 0 0 1-1.342-1.342v-70.648c0-.741.601-1.342 1.342-1.342H720.1c.741 0 1.342.601 1.342 1.342v70.648a1.34 1.34 0 0 1-1.341 1.342zm-315.86-2.683h314.518v-67.965H404.241z" fill="#231f20"/><circle cx="1211.424" cy="329.803" fill="#fff" r="47.166"/><path d="M1211.424 378.311c-26.747 0-48.508-21.76-48.508-48.507s21.761-48.508 48.508-48.508c26.748 0 48.508 21.761 48.508 48.508s-21.761 48.507-48.508 48.507zm0-94.331c-25.267 0-45.823 20.557-45.823 45.824s20.556 45.823 45.823 45.823c25.268 0 45.824-20.557 45.824-45.823 0-25.268-20.557-45.824-45.824-45.824z" fill="#231f20"/><path d="M1258.564 331.625s-28.18-24.018-47.14-1.822c-9.743-27.518 25.148-39.914 25.148-39.914l-.002.003c13.231 8.354 22.02 23.106 22.02 39.911 0 .61-.012 1.217-.034 1.821" fill="#231f20"/><path d="m1258.557 332.967-.052-.001a1.332 1.332 0 0 1-.897-.391c-.826-.681-7.472-6.025-16.005-8.938-11.893-4.058-21.703-1.69-29.159 7.038a1.33 1.33 0 0 1-1.265.447 1.342 1.342 0 0 1-1.021-.871c-10.074-28.453 25.602-41.499 25.964-41.627a1.335 1.335 0 0 1 1.248.186c14.128 8.961 22.562 24.277 22.562 40.993 0 .576-.01 1.15-.03 1.722a1.34 1.34 0 0 1-1.274 1.441l-.071.001zm-27.69-13.871c11.335 0 21.93 6.636 26.373 9.83-.285-15.259-8.012-29.193-20.825-37.538-2.082.826-9.132 3.857-15.24 9.197-8.823 7.713-11.901 16.65-9.169 26.597 5.879-5.987 12.488-8.086 18.861-8.086z" fill="#231f20"/><path d="M1189.432 288.068s-6.711 36.414 21.992 41.735c-18.96 22.197-47.14-1.822-47.14-1.822h.009c.651-17.14 10.447-31.937 24.649-39.652" fill="#231f20"/><path d="M1191.982 340.511c-14.819 0-28.37-11.339-28.568-11.508a1.342 1.342 0 0 1-.456-1.225c.698-16.952 10.398-32.509 25.344-40.628.086-.047.176-.083.267-.109a1.343 1.343 0 0 1 2.184 1.27c-.017.09-1.614 9.028.243 18.44 2.432 12.328 9.387 19.641 20.673 21.733a1.34 1.34 0 0 1 .776 2.191c-6.264 7.334-13.505 9.836-20.463 9.836zm-26.318-13.139c1.762 1.394 7.909 5.979 15.582 8.597 11.093 3.787 20.37 1.981 27.617-5.357-22.581-5.833-21.957-31.559-21.105-40.055-12.933 7.822-21.298 21.703-22.094 36.815z" fill="#231f20"/><path d="M1233.417 371.539s6.711-36.414-21.992-41.735c9.743 27.518-25.148 39.914-25.148 39.914l.002-.003a46.943 46.943 0 0 0 25.146 7.255 46.95 46.95 0 0 0 22.482-5.693" fill="#231f20"/><path d="M1211.424 378.311a48.367 48.367 0 0 1-25.778-7.409 1.342 1.342 0 0 1 .219-2.462c.629-.231 8.833-3.318 15.81-9.416 9.461-8.271 12.315-17.95 8.484-28.771a1.342 1.342 0 0 1 1.51-1.767c26.427 4.898 24.136 35.104 23.268 41.931a1.342 1.342 0 0 1-.39 2.041c-.16.087-.32.172-.48.257a48.623 48.623 0 0 1-22.643 5.596zm-22.157-8.388a45.708 45.708 0 0 0 22.157 5.704 45.916 45.916 0 0 0 20.774-4.969c.324-2.21 1.227-9.836-.345-17.802-2.268-11.497-8.469-18.631-18.449-21.238 6.24 22.475-16.354 34.796-24.137 38.305zm-334.591 27.355 5.299 13.77 13.77 5.299-13.77 5.299-5.299 13.771-5.304-13.766-13.766-5.304 13.771-5.299zM143.489 959.102l5.299 13.771 13.77 5.299-13.77 5.299-5.299 13.77-5.304-13.765-13.766-5.304 13.771-5.299zm495.658 185.52 5.298 13.771 13.771 5.299-13.771 5.299-5.298 13.77-5.305-13.765-13.765-5.304 13.771-5.299zM311.158 237.346l5.299 13.77 13.77 5.299-13.77 5.299-5.299 13.771-5.304-13.766-13.766-5.304 13.771-5.299z" fill="#231f20"/><path d="m1124.852 909.443 13.262 52.987 37.979-39.257-15.008 52.52 52.519-15.009-39.257 37.979 52.987 13.263-52.987 13.262 39.257 37.979-52.519-15.008 15.008 52.519-37.979-39.257-13.262 52.987-13.262-52.987-37.98 39.257 15.009-52.519-52.52 15.008 39.257-37.979-52.987-13.262 52.987-13.263-39.257-37.979 52.52 15.009-15.009-52.52 37.98 39.257z" fill="#fff"/><path d="M1124.852 1115.75a1.342 1.342 0 0 1-1.302-1.016l-12.675-50.644-36.299 37.521a1.341 1.341 0 0 1-2.256-1.302l14.344-50.196-50.196 14.346c-.592.164-1.223-.087-1.531-.62s-.213-1.207.229-1.636l37.521-36.299-50.643-12.676a1.341 1.341 0 0 1 0-2.604l50.643-12.677-37.521-36.298a1.342 1.342 0 0 1 1.302-2.256l50.196 14.345-14.344-50.196a1.34 1.34 0 0 1 .62-1.531 1.34 1.34 0 0 1 1.636.229l36.299 37.521 12.675-50.644a1.343 1.343 0 0 1 2.604 0l12.675 50.644 36.299-37.521a1.343 1.343 0 0 1 2.256 1.302l-14.344 50.196 50.196-14.345a1.343 1.343 0 0 1 1.302 2.256l-37.52 36.298 50.643 12.677a1.341 1.341 0 0 1 0 2.604l-50.643 12.676 37.52 36.299a1.342 1.342 0 0 1-1.302 2.256l-50.196-14.346 14.344 50.196a1.342 1.342 0 0 1-2.256 1.302l-36.299-37.521-12.675 50.644a1.343 1.343 0 0 1-1.302 1.016zm-13.263-55.671a1.345 1.345 0 0 1 1.302 1.016l11.96 47.785 11.96-47.785c.119-.473.484-.844.955-.971.47-.124.973.013 1.312.363l34.25 35.403-13.534-47.363a1.343 1.343 0 0 1 1.659-1.66l47.363 13.536-35.402-34.251a1.34 1.34 0 0 1 .608-2.266l47.785-11.96-47.785-11.961a1.34 1.34 0 0 1-.608-2.266l35.402-34.25-47.363 13.535a1.342 1.342 0 0 1-1.659-1.66l13.534-47.363-34.25 35.404a1.343 1.343 0 0 1-2.267-.608l-11.96-47.785-11.96 47.785a1.345 1.345 0 0 1-.955.971 1.348 1.348 0 0 1-1.312-.363l-34.25-35.404 13.535 47.363a1.343 1.343 0 0 1-1.659 1.66l-47.363-13.535 35.403 34.25a1.34 1.34 0 0 1-.608 2.266l-47.785 11.961 47.785 11.96a1.34 1.34 0 0 1 .608 2.266l-35.403 34.251 47.363-13.536a1.342 1.342 0 0 1 1.659 1.66l-13.535 47.363 34.25-35.403c.257-.264.606-.408.965-.408z" fill="#231f20"/><path d="m1375.581 1077.839-126.232-33.824-126.231-33.824 33.823 126.232 33.824 126.231 61.911-84.145 62.29 62.29 38.759-38.759-62.29-62.29z" fill="#231f20"/><path d="M1176.093 1102.02c-.354 0-.705-.14-.965-.408l-34.231-35.383a1.342 1.342 0 0 1 1.93-1.867l30.502 31.529-13.534-47.363a1.343 1.343 0 0 1 1.659-1.66l47.363 13.536-30.625-29.629a1.343 1.343 0 1 1 1.866-1.929l34.479 33.357a1.342 1.342 0 0 1-1.302 2.256l-50.196-14.346 14.344 50.196a1.34 1.34 0 0 1-1.29 1.711z" fill="#fff"/></svg>