<svg width="1468" height="131" viewBox="0 0 1468 131" fill="none" xmlns="http://www.w3.org/2000/svg">
<path d="M74.0103 36.7447C73.4283 31.3148 70.9759 27.087 66.6529 24.0612C62.3715 21.0354 56.8015 19.5225 49.9429 19.5225C45.1211 19.5225 40.9852 20.2479 37.5351 21.6986C34.085 23.1493 31.4455 25.1182 29.6166 27.6051C27.7876 30.0921 26.8524 32.9313 26.8108 36.1229C26.8108 38.7757 27.4135 41.0761 28.619 43.0242C29.866 44.9723 31.5494 46.6303 33.6694 47.9981C35.7893 49.3245 38.1378 50.4436 40.715 51.3555C43.2922 52.2674 45.8901 53.0342 48.5088 53.6559L60.4802 56.6402C65.3019 57.7594 69.9367 59.2723 74.3844 61.1789C78.8736 63.0856 82.8848 65.4896 86.418 68.3911C89.9928 71.2925 92.8194 74.795 94.8977 78.8984C96.9761 83.0019 98.0153 87.81 98.0153 93.3227C98.0153 100.784 96.1032 107.353 92.279 113.032C88.4548 118.669 82.9264 123.083 75.6937 126.275C68.5026 129.425 59.7943 131 49.5688 131C39.6343 131 31.0091 129.466 23.6933 126.399C16.419 123.332 10.7243 118.855 6.60917 112.97C2.53559 107.084 0.332537 99.9132 0 91.4575H22.758C23.0905 95.8926 24.4623 99.5816 26.8731 102.524C29.284 105.467 32.4224 107.664 36.2881 109.115C40.1954 110.566 44.56 111.291 49.3817 111.291C54.4114 111.291 58.8175 110.545 62.6001 109.053C66.4243 107.519 69.4171 105.405 71.5786 102.711C73.7401 99.9753 74.8416 96.7837 74.8832 93.1362C74.8416 89.8203 73.8648 87.0846 71.9527 84.9293C70.0406 82.7325 67.3595 80.9087 63.9095 79.458C60.5009 77.9658 56.5105 76.6395 51.9381 75.4789L37.4104 71.7485C26.8939 69.0543 18.5805 64.9715 12.4701 59.5002C6.40134 53.9875 3.36694 46.6717 3.36694 37.5529C3.36694 30.0506 5.40373 23.4809 9.4773 17.8439C13.5924 12.2068 19.1832 7.83389 26.2496 4.7252C33.316 1.57507 41.3177 0 50.2547 0C59.3163 0 67.2556 1.57507 74.0726 4.7252C80.9312 7.83389 86.3141 12.1653 90.2214 17.7195C94.1287 23.2322 96.1447 29.574 96.2694 36.7447H74.0103Z" fill="black"/>
<path d="M131.432 73.1163V129.073H108.861V1.74086H130.933V49.8011H132.056C134.3 44.4128 137.771 40.1642 142.468 37.0555C147.207 33.9054 153.234 32.3303 160.55 32.3303C167.201 32.3303 172.999 33.7189 177.946 36.496C182.892 39.2731 186.716 43.3351 189.418 48.682C192.162 54.029 193.533 60.5572 193.533 68.2667V129.073H170.962V71.7485C170.962 65.3238 169.3 60.3292 165.974 56.7646C162.691 53.1585 158.077 51.3555 152.133 51.3555C148.142 51.3555 144.567 52.2259 141.408 53.9668C138.291 55.6662 135.838 58.1324 134.051 61.3655C132.305 64.5985 131.432 68.5154 131.432 73.1163Z" fill="black"/>
<path d="M235.321 131C229.252 131 223.786 129.922 218.923 127.767C214.101 125.57 210.277 122.337 207.45 118.068C204.665 113.799 203.273 108.535 203.273 102.276C203.273 96.8874 204.27 92.4316 206.265 88.9084C208.261 85.3852 210.983 82.5667 214.433 80.4528C217.883 78.3389 221.77 76.7431 226.093 75.6654C230.457 74.5463 234.967 73.738 239.623 73.2406C245.235 72.6603 249.786 72.1422 253.278 71.6863C256.769 71.1889 259.305 70.4428 260.885 69.448C262.506 68.4118 263.316 66.816 263.316 64.6607V64.2876C263.316 59.6039 261.924 55.9771 259.139 53.4072C256.354 50.8374 252.343 49.5524 247.105 49.5524C241.577 49.5524 237.191 50.7545 233.949 53.1585C230.748 55.5626 228.587 58.4018 227.465 61.6763L206.39 58.692C208.053 52.8891 210.796 48.0396 214.62 44.1433C218.445 40.2057 223.121 37.2628 228.649 35.3147C234.178 33.3251 240.288 32.3303 246.98 32.3303C251.594 32.3303 256.188 32.8692 260.76 33.9468C265.332 35.0245 269.51 36.8068 273.292 39.2938C277.075 41.7393 280.109 45.0759 282.396 49.3038C284.723 53.5316 285.887 58.8163 285.887 65.158V129.073H264.189V115.954H263.441C262.069 118.607 260.136 121.094 257.642 123.415C255.19 125.695 252.093 127.539 248.352 128.948C244.653 130.316 240.309 131 235.321 131ZM241.182 114.462C245.713 114.462 249.641 113.571 252.966 111.788C256.291 109.965 258.848 107.561 260.635 104.576C262.464 101.592 263.379 98.3381 263.379 94.8149V83.5615C262.672 84.1418 261.467 84.6806 259.762 85.178C258.1 85.6754 256.229 86.1106 254.151 86.4836C252.072 86.8567 250.015 87.1883 247.978 87.4784C245.941 87.7686 244.175 88.0172 242.678 88.2245C239.311 88.6804 236.298 89.4265 233.637 90.4628C230.977 91.499 228.878 92.9497 227.34 94.8149C225.802 96.6387 225.033 99.0013 225.033 101.903C225.033 106.048 226.55 109.177 229.585 111.291C232.619 113.405 236.485 114.462 241.182 114.462Z" fill="black"/>
<path d="M335.344 130.751C327.82 130.751 321.086 128.824 315.142 124.969C309.198 121.114 304.501 115.519 301.051 108.182C297.601 100.846 295.876 91.9342 295.876 81.4476C295.876 70.8366 297.622 61.8836 301.113 54.5885C304.646 47.252 309.406 41.7186 315.392 37.9881C321.377 34.2163 328.049 32.3303 335.406 32.3303C341.018 32.3303 345.632 33.2837 349.248 35.1903C352.864 37.0555 355.732 39.3145 357.852 41.9673C359.972 44.5786 361.614 47.0448 362.778 49.3659H363.713V1.74086H386.347V129.073H364.15V114.027H362.778C361.614 116.348 359.931 118.814 357.728 121.425C355.525 123.995 352.615 126.192 348.999 128.016C345.382 129.839 340.831 130.751 335.344 130.751ZM341.641 112.286C346.421 112.286 350.495 111.001 353.862 108.431C357.229 105.82 359.785 102.193 361.531 97.5506C363.277 92.9082 364.15 87.4991 364.15 81.3232C364.15 75.1473 363.277 69.7796 361.531 65.2202C359.827 60.6608 357.291 57.1169 353.924 54.5885C350.599 52.0601 346.505 50.7959 341.641 50.7959C336.612 50.7959 332.413 52.1016 329.046 54.7129C325.679 57.3242 323.144 60.9302 321.44 65.5311C319.735 70.1319 318.883 75.396 318.883 81.3232C318.883 87.2919 319.735 92.6181 321.44 97.3019C323.185 101.944 325.742 105.612 329.109 108.307C332.517 110.959 336.695 112.286 341.641 112.286Z" fill="black"/>
<path d="M443.394 130.938C433.834 130.938 425.624 128.845 418.766 124.658C411.949 120.472 406.691 114.69 402.991 107.312C399.333 99.8924 397.504 91.3539 397.504 81.6963C397.504 71.9972 399.375 63.4379 403.116 56.0185C406.857 48.5577 412.136 42.7548 418.953 38.6099C425.811 34.4235 433.917 32.3303 443.27 32.3303C451.043 32.3303 457.922 33.7603 463.908 36.6203C469.935 39.4389 474.736 43.4387 478.311 48.6198C481.886 53.7595 483.922 59.7697 484.421 66.6502H462.848C461.975 62.0494 459.897 58.2153 456.613 55.1481C453.37 52.0394 449.027 50.4851 443.581 50.4851C438.967 50.4851 434.915 51.7285 431.423 54.2155C427.931 56.661 425.209 60.1842 423.255 64.785C421.343 69.3859 420.387 74.8986 420.387 81.3232C420.387 87.8307 421.343 93.4264 423.255 98.1101C425.167 102.752 427.848 106.338 431.298 108.866C434.79 111.353 438.884 112.597 443.581 112.597C446.907 112.597 449.879 111.975 452.498 110.731C455.158 109.446 457.382 107.602 459.169 105.198C460.956 102.794 462.183 99.8717 462.848 96.4314H484.421C483.881 103.188 481.886 109.177 478.435 114.4C474.985 119.581 470.288 123.643 464.344 126.586C458.4 129.487 451.417 130.938 443.394 130.938Z" fill="black"/>
<path d="M516.747 73.1163V129.073H494.176V33.5738H515.749V49.8011H516.872C519.075 44.4542 522.587 40.2057 527.409 37.0555C532.272 33.9054 538.279 32.3303 545.428 32.3303C552.037 32.3303 557.794 33.7396 562.699 36.5581C567.646 39.3767 571.47 43.4594 574.172 48.8064C576.915 54.1533 578.266 60.6401 578.225 68.2667V129.073H555.654V71.7485C555.654 65.3653 553.991 60.3707 550.666 56.7646C547.382 53.1585 542.83 51.3555 537.011 51.3555C533.062 51.3555 529.55 52.2259 526.474 53.9668C523.439 55.6662 521.049 58.1324 519.303 61.3655C517.599 64.5985 516.747 68.5154 516.747 73.1163Z" fill="black"/>
<path d="M593.388 129.073V1.74086H615.959V49.3659H616.895C618.058 47.0448 619.7 44.5786 621.82 41.9673C623.94 39.3145 626.808 37.0555 630.425 35.1903C634.041 33.2837 638.655 32.3303 644.266 32.3303C651.665 32.3303 658.337 34.2163 664.281 37.9881C670.267 41.7186 675.005 47.252 678.497 54.5885C682.03 61.8836 683.797 70.8366 683.797 81.4476C683.797 91.9342 682.072 100.846 678.622 108.182C675.172 115.519 670.475 121.114 664.53 124.969C658.586 128.824 651.852 130.751 644.329 130.751C638.842 130.751 634.29 129.839 630.674 128.016C627.058 126.192 624.148 123.995 621.945 121.425C619.783 118.814 618.1 116.348 616.895 114.027H615.585V129.073H593.388ZM615.523 81.3232C615.523 87.4991 616.396 92.9082 618.142 97.5506C619.929 102.193 622.485 105.82 625.811 108.431C629.178 111.001 633.251 112.286 638.031 112.286C643.019 112.286 647.197 110.959 650.564 108.307C653.931 105.612 656.466 101.944 658.171 97.3019C659.916 92.6181 660.789 87.2919 660.789 81.3232C660.789 75.396 659.937 70.1319 658.233 65.5311C656.529 60.9302 653.993 57.3242 650.626 54.7129C647.259 52.1016 643.061 50.7959 638.031 50.7959C633.21 50.7959 629.115 52.0601 625.748 54.5885C622.381 57.1169 619.825 60.6608 618.079 65.2202C616.375 69.7796 615.523 75.1473 615.523 81.3232Z" fill="black"/>
<path d="M716.777 1.74086V129.073H694.206V1.74086H716.777Z" fill="#FFF"/>
<path d="M772.983 130.938C763.631 130.938 755.525 128.886 748.666 124.783C741.808 120.679 736.487 114.938 732.705 107.561C728.964 100.183 727.093 91.5612 727.093 81.6963C727.093 71.8314 728.964 63.1892 732.705 55.7698C736.487 48.3504 741.808 42.589 748.666 38.4855C755.525 34.3821 763.631 32.3303 772.983 32.3303C782.336 32.3303 790.441 34.3821 797.3 38.4855C804.159 42.589 809.458 48.3504 813.199 55.7698C816.982 63.1892 818.873 71.8314 818.873 81.6963C818.873 91.5612 816.982 100.183 813.199 107.561C809.458 114.938 804.159 120.679 797.3 124.783C790.441 128.886 782.336 130.938 772.983 130.938ZM773.108 112.907C778.179 112.907 782.419 111.519 785.827 108.742C789.236 105.923 791.772 102.151 793.434 97.4262C795.138 92.701 795.991 87.437 795.991 81.6341C795.991 75.7898 795.138 70.505 793.434 65.7798C791.772 61.0131 789.236 57.2205 785.827 54.402C782.419 51.5835 778.179 50.1742 773.108 50.1742C767.912 50.1742 763.589 51.5835 760.139 54.402C756.73 57.2205 754.174 61.0131 752.47 65.7798C750.807 70.505 749.976 75.7898 749.976 81.6341C749.976 87.437 750.807 92.701 752.47 97.4262C754.174 102.151 756.73 105.923 760.139 108.742C763.589 111.519 767.912 112.907 773.108 112.907Z" fill="black"/>
<path d="M871.027 130.938C861.466 130.938 853.257 128.845 846.398 124.658C839.581 120.472 834.323 114.69 830.623 107.312C826.965 99.8924 825.136 91.3539 825.136 81.6963C825.136 71.9972 827.007 63.4379 830.748 56.0185C834.489 48.5577 839.768 42.7548 846.585 38.6099C853.444 34.4235 861.549 32.3303 870.902 32.3303C878.675 32.3303 885.554 33.7603 891.54 36.6203C897.567 39.4389 902.368 43.4387 905.943 48.6198C909.518 53.7595 911.554 59.7697 912.053 66.6502H890.48C889.607 62.0494 887.529 58.2153 884.245 55.1481C881.003 52.0394 876.659 50.4851 871.214 50.4851C866.6 50.4851 862.547 51.7285 859.055 54.2155C855.564 56.661 852.841 60.1842 850.887 64.785C848.975 69.3859 848.019 74.8986 848.019 81.3232C848.019 87.8307 848.975 93.4264 850.887 98.1101C852.799 102.752 855.48 106.338 858.93 108.866C862.422 111.353 866.517 112.597 871.214 112.597C874.539 112.597 877.511 111.975 880.13 110.731C882.79 109.446 885.014 107.602 886.801 105.198C888.589 102.794 889.815 99.8717 890.48 96.4314H912.053C911.513 103.188 909.518 109.177 906.068 114.4C902.618 119.581 897.92 123.643 891.976 126.586C886.032 129.487 879.049 130.938 871.027 130.938Z" fill="black"/>
<path d="M942.384 99.1049L942.321 71.935H945.938L980.355 33.5738H1006.73L964.394 80.5771H959.717L942.384 99.1049ZM921.808 129.073V1.74086H944.379V129.073H921.808ZM981.914 129.073L950.739 85.6132L965.952 69.7589L1008.91 129.073H981.914Z" fill="black"/>
<path d="M1088.69 58.8163L1068.11 61.0546C1067.53 58.9821 1066.51 57.034 1065.06 55.2103C1063.64 53.3865 1061.73 51.915 1059.32 50.7959C1056.91 49.6768 1053.96 49.1172 1050.47 49.1172C1045.77 49.1172 1041.82 50.1327 1038.62 52.1637C1035.46 54.1948 1033.9 56.8268 1033.94 60.0598C1033.9 62.8369 1034.92 65.0959 1037 66.8367C1039.12 68.5776 1042.61 70.0076 1047.47 71.1267L1063.81 74.6085C1072.87 76.5566 1079.6 79.6445 1084.01 83.8723C1088.46 88.1001 1090.7 93.6336 1090.74 100.473C1090.7 106.483 1088.94 111.788 1085.44 116.389C1081.99 120.949 1077.19 124.513 1071.04 127.083C1064.89 129.653 1057.82 130.938 1049.84 130.938C1038.12 130.938 1028.68 128.492 1021.53 123.601C1014.39 118.669 1010.12 111.809 1008.75 103.022L1030.76 100.908C1031.76 105.219 1033.88 108.472 1037.12 110.669C1040.36 112.866 1044.58 113.964 1049.78 113.964C1055.14 113.964 1059.44 112.866 1062.69 110.669C1065.97 108.472 1067.61 105.757 1067.61 102.524C1067.61 99.7888 1066.55 97.5298 1064.43 95.7475C1062.35 93.9652 1059.11 92.5974 1054.71 91.644L1038.37 88.2245C1029.18 86.3178 1022.39 83.1055 1017.98 78.5876C1013.57 74.0282 1011.39 68.2667 1011.43 61.3033C1011.39 55.4175 1012.99 50.3193 1016.23 46.0085C1019.52 41.6564 1024.07 38.299 1029.89 35.9364C1035.75 33.5324 1042.51 32.3303 1050.15 32.3303C1061.38 32.3303 1070.21 34.7137 1076.65 39.4803C1083.14 44.247 1087.15 50.6923 1088.69 58.8163Z" fill="black"/>
<path d="M1114.48 130.44C1110.7 130.44 1107.46 129.114 1104.75 126.461C1102.05 123.809 1100.72 120.576 1100.76 116.762C1100.72 113.032 1102.05 109.84 1104.75 107.187C1107.46 104.535 1110.7 103.208 1114.48 103.208C1118.14 103.208 1121.32 104.535 1124.02 107.187C1126.76 109.84 1128.16 113.032 1128.2 116.762C1128.16 119.291 1127.49 121.591 1126.2 123.664C1124.96 125.736 1123.29 127.394 1121.21 128.637C1119.18 129.839 1116.93 130.44 1114.48 130.44Z" fill="black"/>
<path d="M1184.5 130.938C1174.94 130.938 1166.73 128.845 1159.87 124.658C1153.05 120.472 1147.79 114.69 1144.09 107.312C1140.44 99.8924 1138.61 91.3539 1138.61 81.6963C1138.61 71.9972 1140.48 63.4379 1144.22 56.0185C1147.96 48.5577 1153.24 42.7548 1160.06 38.6099C1166.91 34.4235 1175.02 32.3303 1184.37 32.3303C1192.15 32.3303 1199.03 33.7603 1205.01 36.6203C1211.04 39.4389 1215.84 43.4387 1219.41 48.6198C1222.99 53.7595 1225.03 59.7697 1225.52 66.6502H1203.95C1203.08 62.0494 1201 58.2153 1197.72 55.1481C1194.47 52.0394 1190.13 50.4851 1184.68 50.4851C1180.07 50.4851 1176.02 51.7285 1172.53 54.2155C1169.03 56.661 1166.31 60.1842 1164.36 64.785C1162.45 69.3859 1161.49 74.8986 1161.49 81.3232C1161.49 87.8307 1162.45 93.4264 1164.36 98.1101C1166.27 102.752 1168.95 106.338 1172.4 108.866C1175.89 111.353 1179.99 112.597 1184.68 112.597C1188.01 112.597 1190.98 111.975 1193.6 110.731C1196.26 109.446 1198.48 107.602 1200.27 105.198C1202.06 102.794 1203.29 99.8717 1203.95 96.4314H1225.52C1224.98 103.188 1222.99 109.177 1219.54 114.4C1216.09 119.581 1211.39 123.643 1205.45 126.586C1199.5 129.487 1192.52 130.938 1184.5 130.938Z" fill="black"/>
<path d="M1277.05 130.938C1267.7 130.938 1259.6 128.886 1252.74 124.783C1245.88 120.679 1240.56 114.938 1236.78 107.561C1233.03 100.183 1231.16 91.5612 1231.16 81.6963C1231.16 71.8314 1233.03 63.1892 1236.78 55.7698C1240.56 48.3504 1245.88 42.589 1252.74 38.4855C1259.6 34.3821 1267.7 32.3303 1277.05 32.3303C1286.41 32.3303 1294.51 34.3821 1301.37 38.4855C1308.23 42.589 1313.53 48.3504 1317.27 55.7698C1321.05 63.1892 1322.94 71.8314 1322.94 81.6963C1322.94 91.5612 1321.05 100.183 1317.27 107.561C1313.53 114.938 1308.23 120.679 1301.37 124.783C1294.51 128.886 1286.41 130.938 1277.05 130.938ZM1277.18 112.907C1282.25 112.907 1286.49 111.519 1289.9 108.742C1293.31 105.923 1295.84 102.151 1297.51 97.4262C1299.21 92.701 1300.06 87.437 1300.06 81.6341C1300.06 75.7898 1299.21 70.505 1297.51 65.7798C1295.84 61.0131 1293.31 57.2205 1289.9 54.402C1286.49 51.5835 1282.25 50.1742 1277.18 50.1742C1271.98 50.1742 1267.66 51.5835 1264.21 54.402C1260.8 57.2205 1258.25 61.0131 1256.54 65.7798C1254.88 70.505 1254.05 75.7898 1254.05 81.6341C1254.05 87.437 1254.88 92.701 1256.54 97.4262C1258.25 102.151 1260.8 105.923 1264.21 108.742C1267.66 111.519 1271.98 112.907 1277.18 112.907Z" fill="black"/>
<path d="M1333.32 129.073V33.5738H1354.9V49.8011H1356.02C1358.01 44.3299 1361.32 40.0606 1365.93 36.9934C1370.55 33.8847 1376.05 32.3303 1382.45 32.3303C1388.94 32.3303 1394.41 33.9054 1398.85 37.0555C1403.34 40.1642 1406.5 44.4128 1408.33 49.8011H1409.33C1411.45 44.4957 1415.02 40.2678 1420.05 37.1177C1425.12 33.9261 1431.13 32.3303 1438.07 32.3303C1446.88 32.3303 1454.08 35.1074 1459.65 40.6616C1465.22 46.2158 1468 54.3191 1468 64.9715V129.073H1445.37V68.4533C1445.37 62.526 1443.79 58.1946 1440.63 55.4589C1437.47 52.6819 1433.6 51.2933 1429.03 51.2933C1423.59 51.2933 1419.32 52.9927 1416.25 56.3916C1413.21 59.7489 1411.7 64.1218 1411.7 69.5102V129.073H1389.56V67.5207C1389.56 62.5882 1388.07 58.6505 1385.07 55.7076C1382.12 52.7648 1378.26 51.2933 1373.48 51.2933C1370.23 51.2933 1367.28 52.1223 1364.62 53.7803C1361.96 55.3968 1359.84 57.6972 1358.26 60.6815C1356.68 63.6244 1355.89 67.0647 1355.89 71.0024V129.073H1333.32Z" fill="black"/>
</svg>
