<svg width="80" height="80" viewBox="0 0 80 80" fill="none" xmlns="http://www.w3.org/2000/svg">
<rect width="80" height="79.9998" rx="39.9999" fill="#191514"/>
<path fill-rule="evenodd" clip-rule="evenodd" d="M40.0001 79.9998C62.0916 79.9998 80 62.0916 80 40.0001C80 17.9086 62.0916 0 40.0001 0C17.9086 0 0 17.9086 0 40.0001C0 62.0916 17.9086 79.9998 40.0001 79.9998ZM69.3305 31.741C69.3163 35.0934 66.2961 36.9198 63.8215 35.4984C58.9381 32.6939 53.6869 30.9441 48.182 29.9407C37.8424 28.0566 27.5394 27.9943 17.3212 30.7869C15.132 31.3852 13.1483 30.3394 12.5456 28.2778C11.9512 26.244 13.0869 24.2619 15.2636 23.6078C18.9871 22.489 22.8055 21.8574 26.6685 21.4954C30.9184 21.0969 35.1764 21.0117 39.4369 21.3132C48.7854 21.9747 57.8281 23.8201 66.1915 28.2714C66.6613 28.5215 67.1289 28.7798 67.577 29.0665C68.7375 29.8096 69.319 30.8814 69.3305 31.741ZM33.3036 34.8882C42.0829 34.9284 50.5127 36.5816 58.4558 40.4208C59.7049 41.0246 60.9247 41.701 62.1094 42.4233C63.7036 43.395 64.1477 45.2305 63.2263 46.722C62.2926 48.2336 60.4756 48.6764 58.8908 47.7305C52.8131 44.1028 46.1844 42.2268 39.1944 41.466C32.3866 40.7248 25.6815 41.1755 19.088 43.0877C17.3447 43.5933 15.6595 42.6612 15.1681 40.9812C14.6828 39.3216 15.6252 37.63 17.3761 37.1003C19.7832 36.3719 22.2376 35.8358 24.7263 35.4805C27.5681 35.075 30.4245 34.8248 33.3036 34.8882ZM57.3817 54.5491C59.0337 55.5785 59.3182 57.4274 58.0228 58.6434C57.1641 59.4496 56.0104 59.5593 54.9205 58.8772C51.0679 56.4665 46.9072 54.8393 42.4615 53.926C37.4351 52.8932 32.3717 52.7782 27.2815 53.3129C24.8408 53.5693 22.4213 53.9501 20.017 54.4474C18.5185 54.7573 17.257 53.9006 16.958 52.4589C16.6839 51.1369 17.6617 49.878 19.054 49.5522C26.2213 47.8752 29.0407 47.7453 34.117 47.8036C42.4338 47.9937 50.2586 50.1108 57.3817 54.5491Z" fill="#1ED760"/>
</svg>
