<svg width="188" height="220" viewBox="0 0 188 220" fill="none" xmlns="http://www.w3.org/2000/svg">
<path fill-rule="evenodd" clip-rule="evenodd" d="M181.022 52.69L186.196 40.04C186.196 40.04 179.647 33 171.666 25.025C163.685 17.105 146.843 21.725 146.843 21.725L127.58 0H60.1023L40.8388 21.78C40.8388 21.78 23.9419 17.105 16.0163 25.08C8.03566 33 1.43101 39.985 1.43101 39.985L6.60465 52.635L0 71.335C0 71.335 19.3736 144.32 21.6302 153.285C26.0333 170.83 29.1155 177.595 41.7744 186.505C54.4333 195.36 77.4395 210.815 81.1822 213.18C84.9248 215.49 89.6031 219.505 93.8411 219.505C98.0791 219.505 102.757 215.49 106.5 213.18C110.243 210.815 133.249 195.36 145.908 186.505C158.567 177.595 161.594 170.83 166.052 153.23C168.309 144.32 187.627 71.335 187.627 71.335L181.022 52.635V52.69Z" fill="url(#paint0_linear_1_48)"/>
<path fill-rule="evenodd" clip-rule="evenodd" d="M181.022 52.69L186.196 40.04C186.196 40.04 179.647 33 171.666 25.025C163.685 17.105 146.843 21.725 146.843 21.725L127.58 0H60.1023L40.8388 21.78C40.8388 21.78 23.9419 17.105 16.0163 25.08C8.03566 33 1.43101 39.985 1.43101 39.985L6.60465 52.635L0 71.335C0 71.335 19.3736 144.32 21.6302 153.285C26.0333 170.83 29.1155 177.595 41.7744 186.505C54.4333 195.36 77.4395 210.815 81.1822 213.18C84.9248 215.49 89.6031 219.505 93.8411 219.505C98.0791 219.505 102.757 215.49 106.5 213.18C110.243 210.815 133.249 195.36 145.908 186.505C158.567 177.595 161.594 170.83 166.052 153.23C168.309 144.32 187.627 71.335 187.627 71.335L181.022 52.635V52.69Z" fill="url(#paint1_linear_1_48)"/>
<path d="M117.728 39.5999C120.59 39.5999 141.395 35.5849 141.395 35.5849C141.395 35.5849 166.162 65.3949 166.162 71.7749C166.162 77.0549 164.015 79.1449 161.539 81.5649L159.888 83.2149L141.395 102.85L140.789 103.4C138.918 105.325 136.221 108.02 138.147 112.585L138.533 113.52C140.624 118.47 143.211 124.52 139.909 130.68C136.386 137.225 130.332 141.57 126.479 140.855C122.626 140.14 113.545 135.355 110.188 133.21C106.885 131.065 96.2628 122.375 96.2628 119.02C96.2628 116.27 103.858 111.595 107.601 109.34L109.252 108.35L111.013 107.195C114.426 105.105 120.535 101.31 120.645 99.6599C120.865 97.5699 120.81 96.9649 118.058 91.8499L116.132 88.3849C113.49 83.9849 110.628 78.9799 111.233 75.4049C112.004 71.3899 118.333 69.0799 123.672 67.0999C126.203 66.2126 128.717 65.2775 131.212 64.2949C136.551 62.2599 142.495 60.0599 143.486 59.6199C144.862 58.9599 144.477 58.4099 140.349 57.9699L138.367 57.8049C133.304 57.2549 123.892 56.2649 119.324 57.5299L116.407 58.3549C111.233 59.7299 104.959 61.4349 104.353 62.4249L104.078 62.8649C103.528 63.6899 103.088 64.1849 103.748 67.7049L104.849 73.3149C106.225 80.6849 108.426 92.1799 108.702 94.7649L108.812 95.8649C109.197 98.7249 109.417 100.65 106.06 101.365L105.179 101.585C101.381 102.465 95.8225 103.785 93.8411 103.785C89.7152 103.3 85.6311 102.51 81.6225 101.42C78.2651 100.65 78.4853 98.6699 78.8705 95.8099L78.9806 94.7649C79.2558 92.1799 81.4573 80.6299 82.8333 73.2599L83.9341 67.7049C84.5946 64.1849 84.2093 63.6899 83.6039 62.8649L83.3287 62.4249C82.7232 61.4349 76.4488 59.6749 71.2752 58.3549L68.3581 57.5299C63.7899 56.2649 54.3783 57.2549 49.3147 57.8049L47.2783 58.0249C43.2054 58.4099 42.8752 58.9599 44.1961 59.6199C45.1868 60.0599 51.131 62.2599 56.4698 64.2949L62.0837 66.3849L64.0101 67.0999C69.3488 69.0799 75.6783 71.3899 76.4488 75.3499C77.0542 78.9799 74.1922 83.9299 71.5504 88.3849L69.624 91.8499C66.8721 96.9649 66.8721 97.5699 67.0372 99.6599C67.1473 101.31 73.2566 105.105 76.6139 107.195L78.4302 108.295L80.0814 109.395C83.824 111.595 91.4194 116.215 91.4194 119.02C91.4194 122.32 80.8519 131.12 77.4946 133.21C74.1922 135.41 65.0558 140.14 61.2031 140.91C57.3504 141.57 51.2961 137.225 47.7736 130.68C44.4713 124.52 47.0581 118.415 49.1496 113.52L49.5349 112.585C51.4612 108.02 48.7643 105.325 46.893 103.455L46.3426 102.85L27.7395 83.1599L26.1434 81.5649C23.6116 79.1449 21.5201 77.0549 21.5201 71.7749C21.5201 65.3949 46.2876 35.5849 46.2876 35.5849C46.2876 35.5849 67.0922 39.5449 69.9542 39.5449C72.1558 39.5449 76.5039 38.0599 81.017 36.5199L84.4845 35.3649C87.4943 34.2765 90.6457 33.6281 93.8411 33.4399C93.8411 33.4399 97.5837 33.4399 103.198 35.3649L106.665 36.4649C111.178 38.1149 115.471 39.5449 117.783 39.5449L117.728 39.5999Z" fill="white"/>
<path d="M114.15 145.09C118.553 147.4 121.691 148.94 122.902 149.71C124.443 150.7 123.452 152.46 122.076 153.45C120.7 154.44 101.987 168.96 100.171 170.5L99.4 171.215C97.6388 172.755 95.4372 174.79 93.8411 174.79C92.245 174.79 89.9884 172.755 88.2822 171.215L87.4566 170.5C85.6403 168.85 66.9271 154.385 65.5512 153.45C64.1202 152.46 63.1845 150.645 64.7256 149.655C65.9364 148.94 69.0186 147.345 73.4768 145.035L77.6597 142.89C84.2644 139.48 92.5202 136.565 93.7861 136.565C95.0519 136.565 103.308 139.48 109.912 142.89L114.095 145.09H114.15Z" fill="white"/>
<defs>
<linearGradient id="paint0_linear_1_48" x1="0.0550388" y1="221.1" x2="187.627" y2="221.1" gradientUnits="userSpaceOnUse">
<stop stop-color="#FF5601"/>
<stop offset="0.5" stop-color="#FF4000"/>
<stop offset="1" stop-color="#FF1F01"/>
</linearGradient>
<linearGradient id="paint1_linear_1_48" x1="0.0550388" y1="221.1" x2="187.627" y2="221.1" gradientUnits="userSpaceOnUse">
<stop stop-color="#FF5601"/>
<stop offset="0.5" stop-color="#FF4000"/>
<stop offset="1" stop-color="#FF1F01"/>
</linearGradient>
</defs>
</svg>
