<svg width="80" height="80" viewBox="0 0 80 80" fill="none" xmlns="http://www.w3.org/2000/svg">
<path fill-rule="evenodd" clip-rule="evenodd" d="M60.8506 0.166504C72.3652 0.166504 79.8341 7.63538 79.8341 19.1499V60.8511C79.8341 72.3657 72.3652 79.8345 60.8506 79.8345H19.1494C7.63489 79.8345 0.166016 72.3657 0.166016 60.8511V19.1499C0.166016 7.63538 7.63489 0.166504 19.1494 0.166504H60.8506Z" fill="#0061FF"/>
<path fill-rule="evenodd" clip-rule="evenodd" d="M5.4571 5.4571C2.18658 8.72761 0.33195 13.4287 0.33195 19.1494V60.8506C0.33195 66.5713 2.18658 71.2724 5.4571 74.5429C8.72761 77.8134 13.4287 79.6681 19.1494 79.6681H60.8506C66.5713 79.6681 71.2724 77.8134 74.5429 74.5429C77.8134 71.2724 79.6681 66.5713 79.6681 60.8506V19.1494C79.6681 13.4287 77.8134 8.72761 74.5429 5.4571C71.2724 2.18658 66.5713 0.33195 60.8506 0.33195H19.1494C13.4287 0.33195 8.72761 2.18658 5.4571 5.4571ZM5.22237 5.22237C8.56494 1.87981 13.3556 0 19.1494 0H60.8506C66.6444 0 71.4351 1.87981 74.7776 5.22237C78.1202 8.56494 80 13.3556 80 19.1494V60.8506C80 66.6444 78.1202 71.4351 74.7776 74.7776C71.4351 78.1202 66.6444 80 60.8506 80H19.1494C13.3556 80 8.56494 78.1202 5.22237 74.7776C1.87981 71.4351 0 66.6444 0 60.8506V19.1494C0 13.3556 1.87981 8.56494 5.22237 5.22237Z" fill="#A4A4A4"/>
<path d="M40.0865 24.6886L24.376 34.7107L40.0865 44.7328L24.376 54.7549L8.66602 44.6786L24.376 34.6565L8.66602 24.6886L24.376 14.6665L40.0865 24.6886ZM24.2951 57.9777L40.0051 47.9556L55.7151 57.9777L40.0051 67.9998L24.2951 57.9777ZM40.0865 44.6782L55.7965 34.6561L40.0865 24.6881L55.7155 14.666L71.426 24.6881L55.7155 34.7102L71.426 44.7323L55.7155 54.7544L40.0865 44.6782Z" fill="white"/>
</svg>
