<svg width="651" height="190" viewBox="0 0 651 190" fill="none" xmlns="http://www.w3.org/2000/svg">
<g clip-path="url(#clip0_52_30)">
<path d="M248.032 43.676H231.566V143.906H278.96V129.158H248.032V43.676Z" fill="#FF2D20"/>
<path d="M337.091 86.2019C334.99 82.8609 332.008 80.2369 328.142 78.3269C324.277 76.4179 320.386 75.4629 316.473 75.4629C311.411 75.4629 306.783 76.3939 302.583 78.2549C298.382 80.1159 294.779 82.6719 291.772 85.9159C288.765 89.1619 286.425 92.9089 284.756 97.1549C283.084 101.404 282.25 105.868 282.25 110.544C282.25 115.318 283.084 119.804 284.756 124.003C286.425 128.205 288.765 131.928 291.772 135.172C294.779 138.418 298.381 140.971 302.583 142.832C306.782 144.693 311.411 145.624 316.473 145.624C320.386 145.624 324.277 144.669 328.142 142.761C332.008 140.853 334.991 138.228 337.091 134.886V143.907H352.698V77.1819H337.091V86.2019ZM335.66 118.705C334.705 121.283 333.369 123.526 331.651 125.435C329.932 127.345 327.856 128.872 325.422 130.017C322.987 131.163 320.289 131.735 317.331 131.735C314.371 131.735 311.698 131.163 309.312 130.017C306.925 128.871 304.874 127.345 303.156 125.435C301.437 123.526 300.124 121.283 299.218 118.705C298.309 116.128 297.858 113.407 297.858 110.544C297.858 107.68 298.309 104.959 299.218 102.382C300.123 99.8049 301.437 97.5629 303.156 95.6529C304.874 93.7449 306.926 92.2159 309.312 91.0709C311.698 89.9249 314.371 89.3529 317.331 89.3529C320.289 89.3529 322.987 89.9249 325.422 91.0709C327.856 92.2169 329.932 93.7449 331.651 95.6529C333.369 97.5629 334.705 99.8049 335.66 102.382C336.613 104.959 337.092 107.68 337.092 110.544C337.091 113.407 336.613 116.128 335.66 118.705Z" fill="#FF2D20"/>
<path d="M463.954 86.2019C461.853 82.8609 458.871 80.2369 455.005 78.3269C451.14 76.4179 447.249 75.4629 443.336 75.4629C438.274 75.4629 433.646 76.3939 429.446 78.2549C425.245 80.1159 421.642 82.6719 418.635 85.9159C415.628 89.1619 413.288 92.9089 411.619 97.1549C409.947 101.404 409.113 105.868 409.113 110.544C409.113 115.318 409.947 119.804 411.619 124.003C413.288 128.205 415.628 131.928 418.635 135.172C421.642 138.418 425.244 140.971 429.446 142.832C433.645 144.693 438.274 145.624 443.336 145.624C447.249 145.624 451.14 144.669 455.005 142.761C458.871 140.853 461.854 138.228 463.954 134.886V143.907H479.561V77.1819H463.954V86.2019ZM462.522 118.705C461.567 121.283 460.231 123.526 458.513 125.435C456.794 127.345 454.718 128.872 452.284 130.017C449.849 131.163 447.151 131.735 444.193 131.735C441.233 131.735 438.56 131.163 436.174 130.017C433.787 128.871 431.736 127.345 430.018 125.435C428.299 123.526 426.986 121.283 426.08 118.705C425.171 116.128 424.72 113.407 424.72 110.544C424.72 107.68 425.171 104.959 426.08 102.382C426.985 99.8049 428.299 97.5629 430.018 95.6529C431.736 93.7449 433.788 92.2159 436.174 91.0709C438.56 89.9249 441.233 89.3529 444.193 89.3529C447.151 89.3529 449.849 89.9249 452.284 91.0709C454.718 92.2169 456.794 93.7449 458.513 95.6529C460.231 97.5629 461.567 99.8049 462.522 102.382C463.475 104.959 463.954 107.68 463.954 110.544C463.954 113.407 463.475 116.128 462.522 118.705Z" fill="#FF2D20"/>
<path d="M650.772 43.676H635.166V143.906H650.772V43.676Z" fill="#FF2D20"/>
<path d="M365.013 143.906H380.62V92.5381H407.396V77.1821H365.013V143.906Z" fill="#FF2D20"/>
<path d="M542.133 77.1821L522.517 128.278L502.901 77.1821H487.093L512.71 143.906H532.324L557.941 77.1821H542.133Z" fill="#FF2D20"/>
<path d="M591.98 75.4661C572.868 75.4661 557.741 91.1721 557.741 110.545C557.741 131.961 572.382 145.624 593.98 145.624C606.068 145.624 613.786 141.002 623.214 130.936L612.67 122.778C612.664 122.786 604.712 133.227 592.838 133.227C579.036 133.227 573.226 122.1 573.226 116.343H625.003C627.723 94.3001 613.231 75.4661 591.98 75.4661ZM573.267 104.746C573.387 103.462 575.184 87.8621 591.856 87.8621C608.527 87.8621 610.553 103.46 610.669 104.746H573.267Z" fill="#FF2D20"/>
<path d="M184.068 42.892C184.044 42.804 183.995 42.727 183.964 42.642C183.906 42.485 183.856 42.326 183.773 42.182C183.717 42.085 183.636 42.006 183.57 41.917C183.483 41.8 183.409 41.675 183.305 41.572C183.22 41.486 183.111 41.424 183.015 41.349C182.906 41.264 182.809 41.167 182.688 41.097C182.688 41.097 182.687 41.097 182.686 41.096C182.685 41.096 182.685 41.095 182.684 41.094L147.036 20.57C146.119 20.042 144.989 20.042 144.072 20.57L108.425 41.092C108.424 41.092 108.424 41.093 108.423 41.094C108.422 41.094 108.421 41.094 108.421 41.095C108.3 41.165 108.202 41.262 108.094 41.347C107.998 41.422 107.889 41.485 107.804 41.57C107.701 41.673 107.626 41.798 107.539 41.915C107.473 42.004 107.392 42.084 107.336 42.18C107.253 42.324 107.203 42.484 107.145 42.64C107.114 42.725 107.065 42.802 107.041 42.89C106.974 43.139 106.938 43.4 106.938 43.666V82.645L77.232 99.748V23.493C77.232 23.228 77.196 22.967 77.129 22.717C77.105 22.629 77.056 22.552 77.025 22.467C76.967 22.31 76.917 22.151 76.834 22.007C76.778 21.91 76.697 21.831 76.631 21.742C76.544 21.625 76.47 21.5 76.366 21.397C76.281 21.311 76.172 21.249 76.076 21.174C75.967 21.089 75.87 20.992 75.749 20.922C75.749 20.922 75.748 20.922 75.747 20.921C75.746 20.921 75.746 20.92 75.745 20.919L40.098 0.396C39.181 -0.132 38.051 -0.132 37.134 0.396L1.487 20.919C1.486 20.919 1.486 20.92 1.485 20.921C1.484 20.921 1.483 20.921 1.483 20.922C1.362 20.992 1.26399 21.089 1.15599 21.174C1.05999 21.249 0.950997 21.312 0.865997 21.397C0.762997 21.5 0.687998 21.625 0.600998 21.742C0.534998 21.831 0.453995 21.911 0.397995 22.007C0.314995 22.151 0.265001 22.311 0.207001 22.467C0.176001 22.552 0.126997 22.629 0.102997 22.717C0.0359968 22.966 0 23.227 0 23.493V145.583C0 146.646 0.567998 147.627 1.489 148.158L72.782 189.203C72.938 189.292 73.106 189.346 73.272 189.405C73.35 189.433 73.422 189.479 73.502 189.5C73.751 189.566 74.008 189.6 74.264 189.6C74.52 189.6 74.776 189.567 75.026 189.5C75.095 189.482 75.158 189.441 75.226 189.417C75.402 189.356 75.58 189.298 75.745 189.203L147.038 148.158C147.959 147.628 148.527 146.646 148.527 145.583V106.604L182.685 86.938C183.606 86.408 184.174 85.426 184.174 84.363V43.666C184.171 43.402 184.136 43.141 184.068 42.892ZM74.255 142.167L44.607 125.388L75.743 107.462C75.743 107.462 75.743 107.462 75.744 107.461L109.908 87.792L139.582 104.876L117.81 117.304L74.255 142.167ZM142.584 65.908V99.749L130.109 92.567L112.878 82.647V48.806L125.353 55.988L142.584 65.908ZM145.554 26.573L175.247 43.668L145.554 60.763L115.861 43.668L145.554 26.573ZM54.06 113.089L41.585 120.271V45.733L58.816 35.813L71.291 28.631V103.168L54.06 113.089ZM38.614 6.398L68.307 23.493L38.614 40.588L8.92099 23.493L38.614 6.398ZM5.93799 28.632L18.413 35.814L35.644 45.734V125.41C35.644 125.412 35.645 125.413 35.645 125.415C35.645 125.417 35.644 125.419 35.644 125.421C35.644 125.535 35.676 125.642 35.689 125.754C35.706 125.9 35.71 126.048 35.748 126.188C35.749 126.19 35.749 126.193 35.75 126.195C35.782 126.312 35.844 126.417 35.89 126.529C35.941 126.653 35.978 126.784 36.046 126.9C36.047 126.903 36.048 126.906 36.05 126.909C36.111 127.014 36.199 127.1 36.272 127.197C36.353 127.302 36.421 127.417 36.516 127.511C36.519 127.514 36.521 127.518 36.524 127.521C36.608 127.604 36.714 127.663 36.808 127.736C36.914 127.819 37.01 127.914 37.128 127.983C37.132 127.985 37.137 127.986 37.141 127.988C37.145 127.99 37.148 127.994 37.152 127.996L71.291 147.317V181.492L5.939 143.867V28.632H5.93799ZM142.584 143.867L77.232 181.492V147.31L125.631 119.682L142.584 110.005V143.867ZM178.23 82.647L148.524 99.749V65.908L165.755 55.988L178.23 48.806V82.647Z" fill="#FF2D20"/>
</g>
<defs>
<clipPath id="clip0_52_30">
<rect width="650.772" height="189.6" fill="white"/>
</clipPath>
</defs>
</svg>
