<svg width="80" height="80" viewBox="0 0 80 80" fill="none" xmlns="http://www.w3.org/2000/svg">
<g clip-path="url(#clip0_135_2334)">
<path fill-rule="evenodd" clip-rule="evenodd" d="M12.576 75.2474L3.40436 63.8217C1.19768 61.0727 0 57.6923 0 54.213V12.84C0 7.62838 4.16956 3.30392 9.54857 2.93667L52.0857 0.0324875C55.176 -0.1785 58.2475 0.642908 60.786 2.35921L75.7313 12.4638C78.4065 14.2725 80 17.2293 80 20.3847V67.4218C80 72.522 75.9002 76.7448 70.6337 77.069L23.4222 79.9751C19.2196 80.2338 15.1573 78.4631 12.576 75.2474Z" fill="white"/>
<path d="M27.3282 33.5426V33.0009C27.3282 31.6279 28.4279 30.4891 29.8452 30.3945L40.1688 29.7053L54.4455 50.7287V32.2771L50.7707 31.7872V31.5299C50.7707 30.1408 51.8955 28.9945 53.3309 28.921L62.7242 28.4398V29.7916C62.7242 30.4261 62.2524 30.9689 61.6056 31.0783L59.3451 31.4606V61.3425L56.5082 62.3181C54.1382 63.1332 51.4997 62.2607 50.1429 60.2134L36.2828 39.2985V59.2606L40.5489 60.077L40.4895 60.4727C40.3033 61.7122 39.2332 62.6497 37.9386 62.7073L27.3282 63.1795C27.188 61.8467 28.187 60.6542 29.5651 60.5094L30.9608 60.3628V33.7467L27.3282 33.5426Z" fill="black"/>
<path fill-rule="evenodd" clip-rule="evenodd" d="M52.4664 5.2441L9.92926 8.14829C7.38131 8.32224 5.40625 10.3707 5.40625 12.8393V54.2124C5.40625 56.5319 6.2047 58.7855 7.67583 60.6182L16.8475 72.0439C18.3303 73.8912 20.664 74.9084 23.0783 74.7598L70.2897 71.8536C72.7094 71.7047 74.5932 69.7645 74.5932 67.4211V20.384C74.5932 18.9343 73.861 17.5757 72.6319 16.7447L57.6866 6.64013C56.1635 5.61035 54.3205 5.11751 52.4664 5.2441ZM12.0386 13.4847C11.447 13.0467 11.7285 12.1341 12.4717 12.0808L52.7525 9.19164C54.0359 9.09959 55.3112 9.453 56.3491 10.1884L64.4312 15.9144C64.738 16.1317 64.5941 16.601 64.2142 16.6217L21.557 18.9417C20.266 19.0119 18.9918 18.6326 17.9654 17.8727L12.0386 13.4847ZM19.5562 26.2146C19.5562 24.8288 20.6758 23.6841 22.1074 23.6061L67.2081 21.1499C68.6034 21.0739 69.778 22.1469 69.778 23.4975V64.2267C69.778 65.61 68.6623 66.7535 67.2336 66.8348L22.4183 69.3848C20.8656 69.4731 19.5562 68.2799 19.5562 66.7767V26.2146Z" fill="black"/>
</g>
<defs>
<clipPath id="clip0_135_2334">
<rect width="80" height="80" fill="white"/>
</clipPath>
</defs>
</svg>
