<svg width="324" height="324" viewBox="0 0 324 324" fill="none" xmlns="http://www.w3.org/2000/svg">
<path d="M189.124 161.756C189.124 147.233 176.981 135.457 162 135.457C147.021 135.457 134.876 147.233 134.876 161.756C134.876 176.281 147.021 188.056 162 188.056C176.981 188.056 189.124 176.281 189.124 161.756Z" fill="black"/>
<path fill-rule="evenodd" clip-rule="evenodd" d="M250.092 112.931C255.819 90.3634 263.019 48.5137 237.638 34.3254C212.375 20.1989 179.5 47.2679 162.141 63.5159C144.832 47.4298 111.034 20.4765 85.674 34.7099C60.421 48.8838 68.2085 90.0396 74.0634 112.749C50.5066 119.236 10.125 133.209 10.125 161.756C10.125 190.222 50.4646 205.424 73.8819 211.905C68.0054 234.74 60.6078 275.308 85.8931 289.45C111.348 303.681 145.041 277.369 162.561 260.944C180.032 277.287 212.591 303.771 237.859 289.589C263.205 275.363 256.604 234.074 250.749 211.233C273.449 204.738 313.875 189.867 313.875 161.756C313.875 133.483 273.277 119.397 250.092 112.931ZM247.214 199.128C243.37 187.329 238.181 174.781 231.833 161.819C237.892 149.163 242.88 136.777 246.617 125.053C263.613 129.831 300.9 140.751 300.9 161.756C300.9 182.959 265.119 193.982 247.214 199.128ZM231.356 278.701C212.504 289.281 184.499 263.955 171.596 251.919C180.156 242.842 188.71 232.29 197.058 220.572C211.743 219.31 225.615 217.244 238.197 214.424C242.318 230.581 250.292 268.073 231.356 278.701ZM92.3767 278.55C73.522 268.009 82.1399 231.808 86.4631 214.987C98.9044 217.656 112.677 219.576 127.397 220.733C135.8 232.199 144.601 242.738 153.471 251.968C142.512 262.246 111.319 289.14 92.3767 278.55ZM23.1001 161.756C23.1001 140.474 60.1635 129.633 77.5478 124.868C81.3494 136.855 86.3354 149.388 92.3525 162.063C86.2574 174.926 81.2002 187.658 77.3636 199.786C60.7874 195.186 23.1001 183.051 23.1001 161.756ZM92.175 45.5983C111.107 34.9734 140.481 60.8495 153.048 72.4963C144.225 81.6838 135.504 92.1436 127.173 103.543C112.888 104.827 99.2123 106.889 86.6405 109.651C81.9239 91.3347 73.2637 56.2119 92.175 45.5983ZM206.34 117.218C216.032 118.404 225.318 119.981 234.036 121.911C231.419 130.046 228.157 138.552 224.314 147.271C218.745 137.025 212.766 126.984 206.34 117.218ZM162.145 81.487C168.13 87.7733 174.124 94.7933 180.02 102.409C168.06 101.861 156.08 101.859 144.119 102.401C150.021 94.8559 156.067 87.8463 162.145 81.487ZM99.7971 147.262C96.0183 138.573 92.7853 130.029 90.1451 121.778C98.8117 119.898 108.054 118.361 117.683 117.195C111.239 126.939 105.271 136.976 99.7971 147.262ZM117.959 207.215C108.012 206.139 98.6303 204.68 89.9663 202.851C92.6482 194.456 95.9524 185.728 99.8118 176.851C105.361 187.245 111.421 197.379 117.959 207.215ZM162.504 242.914C156.354 236.48 150.22 229.363 144.229 221.708C156.257 222.166 168.309 222.167 180.336 221.646C174.421 229.441 168.449 236.568 162.504 242.914ZM224.438 176.4C228.498 185.373 231.92 194.053 234.639 202.307C225.831 204.256 216.323 205.825 206.304 206.99C212.777 197.04 218.851 186.843 224.438 176.4ZM189.816 208.515C171.417 209.79 152.904 209.776 134.498 208.62C124.04 193.808 114.73 178.23 106.694 162.059C114.692 145.92 123.934 130.374 134.343 115.585C152.761 114.235 171.293 114.231 189.711 115.593C200.031 130.381 209.258 145.887 217.441 161.88C209.356 178.01 200.065 193.588 189.816 208.515ZM231.157 45.2243C250.094 55.8145 241.665 93.426 237.527 109.781C224.926 106.962 211.241 104.864 196.914 103.56C188.567 92.0367 179.919 81.5587 171.238 72.4898C183.966 60.5922 212.403 34.7378 231.157 45.2243Z" fill="black"/>
</svg>
