<svg width="1144" height="256" viewBox="0 0 1144 256" fill="none" xmlns="http://www.w3.org/2000/svg">
<path d="M1108.1 192V98.9H1130.1V192H1108.1ZM1119.1 85.7C1116.66 85.727 1114.26 85.054 1112.18 83.7604C1110.11 82.4668 1108.45 80.6067 1107.4 78.4C1106.7 77 1106.4 75.4 1106.4 73.8C1106.39 72.2083 1106.72 70.633 1107.38 69.1827C1108.03 67.7324 1109 66.4419 1110.2 65.4C1112.6 63.1 1115.8 61.8 1119.2 61.9C1122.7 61.9 1125.6 63.1 1128.2 65.4C1129.39 66.4512 1130.33 67.7459 1130.97 69.1957C1131.61 70.6454 1131.92 72.216 1131.9 73.8C1131.9 77.1 1130.6 79.9 1128.1 82.2C1125.68 84.5062 1122.44 85.7639 1119.1 85.7ZM1063.6 152.8V99H1085.6V192H1064.3V175.5H1063.3C1061.18 180.677 1057.56 185.101 1052.9 188.2C1048.2 191.6 1042.3 193.2 1035.3 193.2C1029.72 193.508 1024.18 192.152 1019.37 189.303C1014.56 186.454 1010.71 182.242 1008.3 177.2C1005.6 172 1004.3 165.6 1004.3 158.2V98.9H1026.3V154.8C1026.3 160.7 1027.8 165.4 1031.1 168.8C1034.3 172.3 1038.5 174.1 1043.8 174.1C1047 174.1 1050.2 173.3 1053.2 171.7C1056.2 170.1 1058.8 167.7 1060.6 164.7C1062.6 161.5 1063.6 157.6 1063.6 152.9V152.8ZM990.3 62L950.3 210.7H931L971 62H990.2H990.3Z" fill="white"/>
<path fill-rule="evenodd" clip-rule="evenodd" d="M213.7 122.3C214.456 123.044 215.056 123.932 215.466 124.91C215.876 125.889 216.087 126.939 216.087 128C216.087 129.061 215.876 130.111 215.466 131.09C215.056 132.068 214.456 132.956 213.7 133.7L133.7 213.7C132.188 215.212 130.138 216.061 128 216.061C125.862 216.061 123.812 215.212 122.3 213.7C120.788 212.188 119.939 210.138 119.939 208C119.939 205.862 120.788 203.812 122.3 202.3L202.3 122.3C203.044 121.544 203.932 120.944 204.91 120.534C205.889 120.124 206.939 119.913 208 119.913C209.061 119.913 210.111 120.124 211.09 120.534C212.068 120.944 212.956 121.544 213.7 122.3ZM197.7 34.3C198.456 35.0444 199.056 35.9317 199.466 36.9103C199.876 37.8888 200.087 38.9391 200.087 40C200.087 41.0609 199.876 42.1112 199.466 43.0898C199.056 44.0683 198.456 44.9556 197.7 45.7L45.7 197.7C44.9514 198.449 44.0628 199.042 43.0848 199.447C42.1068 199.853 41.0586 200.061 40 200.061C38.9414 200.061 37.8932 199.853 36.9152 199.447C35.9372 199.042 35.0485 198.449 34.3 197.7C33.5514 196.951 32.9577 196.063 32.5526 195.085C32.1475 194.107 31.939 193.059 31.939 192C31.939 190.941 32.1475 189.893 32.5526 188.915C32.9577 187.937 33.5514 187.049 34.3 186.3L186.3 34.3C187.044 33.5441 187.932 32.9439 188.91 32.5341C189.889 32.1244 190.939 31.9134 192 31.9134C193.061 31.9134 194.111 32.1244 195.09 32.5341C196.068 32.9439 196.956 33.5441 197.7 34.3Z" fill="white"/>
<path d="M857.5 137.5V192H835.6V98.9H856.6V114.7H857.6C859.7 109.7 863.3 105.3 867.9 102.3C872.6 99.3 878.5 97.7 885.4 97.7C891.265 97.549 897.064 98.9643 902.2 101.8C907 104.6 910.9 108.8 913.4 113.8C916 119 917.4 125.3 917.3 132.8V192H895.3V136.1C895.3 129.9 893.8 125.1 890.5 121.5C888.802 119.702 886.732 118.297 884.435 117.382C882.138 116.466 879.669 116.063 877.2 116.2C873.4 116.2 870 117.1 867 118.8C864 120.5 861.6 123 860 126C858.4 129.2 857.5 133 857.5 137.5ZM777.7 193.8C769.607 194.293 761.551 192.37 754.553 188.275C747.556 184.18 741.933 178.097 738.4 170.8C734.723 162.989 732.909 154.431 733.1 145.8C732.942 137.15 734.826 128.585 738.6 120.8C742 113.8 747.3 107.8 754 103.8C760.6 99.8 768.5 97.7 777.6 97.7C784.497 97.5827 791.333 99.0181 797.6 101.9C803.288 104.497 808.157 108.599 811.682 113.764C815.207 118.928 817.253 124.957 817.6 131.2H796.6C795.891 126.878 793.783 122.908 790.6 119.9C787.4 116.9 783.2 115.4 777.9 115.4C773.7 115.4 769.5 116.6 766.1 119C762.7 121.4 760.1 124.8 758.1 129.3C756.109 134.463 755.157 139.968 755.3 145.5C755.3 151.8 756.3 157.3 758.1 161.8C760 166.3 762.6 169.8 766 172.3C769.483 174.734 773.652 175.995 777.9 175.9C781.1 175.9 784 175.3 786.6 174.1C789.1 172.9 791.4 171.1 793 168.7C794.9 166.2 796 163.3 796.6 160.2H817.6C817.296 166.402 815.324 172.407 811.892 177.581C808.46 182.755 803.695 186.908 798.1 189.6C791.712 192.545 784.732 193.982 777.7 193.8ZM664.1 193.6C656.975 193.735 649.977 191.704 644.031 187.776C638.085 183.847 633.471 178.207 630.8 171.6C627.25 163.404 625.543 154.528 625.8 145.6C625.8 135.2 627.5 126.5 630.8 119.4C634.3 112.2 638.9 106.8 644.8 103.2C649.662 100.135 655.191 98.2891 660.919 97.819C666.647 97.3489 672.404 98.2687 677.7 100.5C680.9 102.1 683.7 104.3 686 107.1C687.9 109.3 689.5 111.7 690.8 114.3H691.8V67.9H713.8V192H692.2V177.3H690.8C689.5 179.9 687.8 182.3 685.9 184.5C683.194 187.57 679.825 189.984 676.048 191.561C672.271 193.137 668.186 193.835 664.1 193.6ZM670.3 175.6C674.57 175.74 678.762 174.436 682.2 171.9C685.4 169.3 687.9 165.8 689.6 161.3C691.37 156.225 692.217 150.874 692.1 145.5C692.1 139.5 691.3 134.2 689.6 129.8C688.194 125.689 685.623 122.076 682.2 119.4C678.731 116.849 674.503 115.546 670.2 115.7C665.4 115.7 661.3 117 658 119.5C654.8 122.1 652.3 125.5 650.6 130.1C648.864 135.046 648.018 140.259 648.1 145.5C648.1 151.3 649 156.5 650.6 161C652.3 165.6 654.8 169.1 658.1 171.8C661.4 174.3 665.5 175.6 670.3 175.6ZM558.4 193.9C552.5 193.9 547.2 192.9 542.4 190.7C537.881 188.687 534.03 185.426 531.3 181.3C528.6 177.1 527.3 172 527.3 165.9C527.3 160.6 528.3 156.3 530.2 152.9C532 149.5 534.8 146.6 538.1 144.6C541.603 142.463 545.415 140.878 549.4 139.9C553.7 138.9 558.1 138 562.6 137.6L575.9 136.1C579.3 135.6 581.7 134.8 583.3 133.9C584.8 132.9 585.6 131.3 585.6 129.2V128.9C585.6 124.3 584.2 120.7 581.6 118.2C578.8 115.7 574.9 114.5 569.8 114.5C565.301 114.274 560.848 115.501 557.1 118C554.201 120.058 552.003 122.955 550.8 126.3L530.3 123.4C531.698 118.092 534.409 113.222 538.184 109.237C541.958 105.253 546.675 102.282 551.9 100.6C561.987 97.3326 572.776 96.8831 583.1 99.3C587.5 100.3 591.6 102 595.3 104.5C599 106.9 602.1 110.3 604.2 114.2C606.4 118.4 607.5 123.5 607.5 129.7V192H586.5V179.2H585.7C582.585 185.104 577.378 189.633 571.1 191.9C567.5 193.2 563.2 193.9 558.4 193.9ZM564.1 177.8C568.5 177.8 572.3 176.8 575.5 175.2C578.6 173.5 581.2 171.1 583 168.2C584.8 165.2 585.7 162 585.7 158.6V147.6C585 148.2 583.8 148.7 582.1 149.2C578.323 150.079 574.522 150.846 570.7 151.5L565.5 152.2C562.3 152.6 559.3 153.4 556.8 154.4C554.4 155.2 552.3 156.7 550.6 158.6C549.1 160.4 548.4 162.6 548.4 165.6C548.4 169.6 549.9 172.6 552.8 174.6C555.8 176.7 559.5 177.8 564.1 177.8ZM448.9 137.5V192H426.9V67.9H448.4V114.7H449.4C451.5 109.7 455.1 105.3 459.6 102.3C464.875 99.0411 471.005 97.4388 477.2 97.7C483.6 97.7 489.2 99 494.1 101.7C498.9 104.5 502.6 108.4 505.2 113.7C507.9 118.8 509.2 125.2 509.2 132.7V192H487.3V136.1C487.3 129.9 485.7 125 482.4 121.5C480.683 119.7 478.595 118.294 476.282 117.379C473.968 116.464 471.484 116.062 469 116.2C465.1 116.2 461.6 117.1 458.6 118.8C455.6 120.4 453.1 123 451.4 126C449.7 129.2 448.9 133 448.9 137.5ZM406.9 123.5L386.9 125.7C386.26 123.518 385.161 121.497 383.678 119.773C382.195 118.048 380.362 116.66 378.3 115.7C375.586 114.542 372.649 113.996 369.7 114.1C365.1 114.1 361.3 115.1 358.2 117.1C355.2 119.1 353.6 121.6 353.6 124.7C353.545 125.959 353.788 127.212 354.309 128.359C354.831 129.506 355.616 130.514 356.6 131.3C358.6 133 362.1 134.4 366.8 135.5L382.7 138.9C389.934 140.049 396.714 143.162 402.3 147.9C406.6 152.1 408.8 157.5 408.9 164.1C408.9 169.7 407.1 175.1 403.7 179.6C400.063 184.296 395.227 187.924 389.7 190.1C383.148 192.69 376.144 193.948 369.1 193.8C359.426 194.274 349.836 191.798 341.6 186.7C338.223 184.437 335.363 181.485 333.209 178.038C331.054 174.591 329.654 170.727 329.1 166.7L350.5 164.5C351.5 168.7 353.5 171.9 356.7 174.1C359.9 176.2 364 177.3 369 177.3C374.2 177.3 378.4 176.2 381.6 174.1C384.8 171.9 386.4 169.3 386.4 166.1C386.42 164.837 386.151 163.585 385.614 162.441C385.076 161.298 384.285 160.292 383.3 159.5C381.3 157.8 378.1 156.5 373.8 155.5L357.9 152.2C349 150.3 342.4 147.2 338.1 142.8C335.965 140.553 334.307 137.897 333.224 134.993C332.142 132.089 331.657 128.996 331.8 125.9C331.8 120.2 333.3 115.2 336.4 111C339.6 106.8 344 103.5 349.7 101.2C355.975 98.7567 362.668 97.5676 369.4 97.7C380.3 97.7 388.9 100 395.2 104.7C401.5 109.3 405.4 115.6 406.9 123.5Z" fill="white"/>
</svg>
