<svg width="320" height="60" viewBox="0 0 320 60" fill="none" xmlns="http://www.w3.org/2000/svg">
<path d="M27.2787 6.63261L25.4661 5.59338V14.2097L27.2787 15.2619V6.63261Z" fill="black"/>
<path d="M30.9298 8.75643L29.115 7.70642V16.3338L30.9298 17.3752V8.75643Z" fill="black"/>
<path d="M34.5468 10.8697L32.7341 9.83044V18.4468L34.5468 19.4882V10.8697Z" fill="black"/>
<path d="M3.53003 19.1878L5.34271 20.2292V14.0673L3.53003 15.1065V19.1878Z" fill="black"/>
<path d="M1.71548 18.1375V16.1801L0 17.1631L1.71548 18.1375Z" fill="black"/>
<path d="M45.4674 17.1865L43.6633 16.1451V18.2365L41.8484 19.2758V15.1059L40.0465 14.0667V20.2936L38.2317 21.335V12.9823L36.3844 11.9086V20.5378L38.0113 21.4884V38.9451L37.9227 38.9991L36.3844 38.1154V39.8957L34.548 40.9349V37.0092L32.7353 35.9355V41.9868L30.9312 43.0584V34.8615L29.1164 33.7899V44.1001L27.2799 45.1393V32.7163L25.4672 31.6425V46.1784L23.6524 47.2629V30.5705L22.7666 29.9828L22.8011 12.6487L23.6524 13.1694V4.5531L22.7018 4L21.9369 4.42995V13.0808L20.1026 14.1201V5.50374L18.2878 6.54296V15.1611L16.4729 16.2111V7.61648L14.671 8.6557V17.2504L12.8238 18.2918V9.70769L11.0197 10.7793V19.3413L9.20485 20.4151V11.8181L7.18042 13.0129V21.266L7.45697 21.4215L7.52394 38.9971L9.20485 39.9823V38.0249L11.0197 36.9511V41.0561L12.8238 42.1061V35.8773L14.671 34.7711V43.1455L16.4729 44.2192V33.6993L18.2878 32.6255V45.2583L20.1026 46.3105V31.5409L21.9369 30.4693V47.3821L22.7666 47.8704V47.8358V56.519L45.4998 43.3894L45.5322 17.1841L45.4674 17.1865Z" fill="black"/>
<path d="M71.0092 25.1797C70.9098 24.2493 70.4908 23.5249 69.7521 23.0064C69.0206 22.4879 68.0689 22.2287 66.897 22.2287C66.0732 22.2287 65.3665 22.353 64.777 22.6016C64.1875 22.8501 63.7365 23.1875 63.424 23.6136C63.1115 24.0398 62.9517 24.5263 62.9446 25.0732C62.9446 25.5277 63.0476 25.9219 63.2536 26.2557C63.4666 26.5895 63.7543 26.8736 64.1165 27.108C64.4787 27.3352 64.88 27.527 65.3203 27.6832C65.7607 27.8395 66.2045 27.9709 66.652 28.0774L68.6974 28.5888C69.5213 28.7805 70.3132 29.0398 71.0732 29.3665C71.8402 29.6932 72.5256 30.1051 73.1293 30.6023C73.7401 31.0994 74.223 31.6996 74.5781 32.4027C74.9332 33.1058 75.1108 33.9297 75.1108 34.8743C75.1108 36.1527 74.7841 37.2784 74.1307 38.2514C73.4773 39.2173 72.5327 39.9737 71.2969 40.5206C70.0682 41.0604 68.5803 41.3303 66.8331 41.3303C65.1357 41.3303 63.6619 41.0675 62.4119 40.5419C61.169 40.0163 60.196 39.2493 59.4929 38.2408C58.7969 37.2322 58.4205 36.0036 58.3636 34.5547H62.2521C62.3089 35.3146 62.5433 35.9467 62.9553 36.451C63.3672 36.9553 63.9034 37.3317 64.5639 37.5803C65.2315 37.8288 65.9773 37.9531 66.8011 37.9531C67.6605 37.9531 68.4134 37.8253 69.0597 37.5696C69.7131 37.3068 70.2244 36.9446 70.5938 36.483C70.9631 36.0142 71.1513 35.4673 71.1584 34.8423C71.1513 34.2741 70.9844 33.8054 70.6577 33.4361C70.331 33.0597 69.8729 32.7472 69.2834 32.4986C68.701 32.2429 68.0192 32.0156 67.2379 31.8168L64.7557 31.1776C62.9588 30.7159 61.5384 30.0163 60.4943 29.0788C59.4574 28.1342 58.9389 26.8807 58.9389 25.3182C58.9389 24.0327 59.2869 22.907 59.983 21.9411C60.6861 20.9751 61.6413 20.2259 62.8487 19.6932C64.0561 19.1534 65.4233 18.8835 66.9503 18.8835C68.4986 18.8835 69.8551 19.1534 71.0199 19.6932C72.1918 20.2259 73.1115 20.968 73.7791 21.9197C74.4467 22.8643 74.7912 23.951 74.8125 25.1797H71.0092ZM80.8205 31.4119V41H76.964V19.1818H80.7353V27.4169H80.927C81.3105 26.4936 81.9036 25.7656 82.7061 25.233C83.5158 24.6932 84.5456 24.4233 85.7956 24.4233C86.932 24.4233 87.9228 24.6612 88.7679 25.1371C89.6131 25.6129 90.2665 26.3089 90.7282 27.2251C91.1969 28.1413 91.4313 29.2599 91.4313 30.581V41H87.5748V31.1776C87.5748 30.0767 87.2907 29.2209 86.7225 28.6101C86.1614 27.9922 85.373 27.6832 84.3574 27.6832C83.6756 27.6832 83.0648 27.8324 82.525 28.1307C81.9924 28.4219 81.5733 28.8445 81.2679 29.3984C80.9696 29.9524 80.8205 30.6236 80.8205 31.4119ZM98.5712 41.3303C97.5343 41.3303 96.6003 41.1456 95.7694 40.7763C94.9455 40.3999 94.2921 39.8459 93.8091 39.1143C93.3333 38.3828 93.0953 37.4808 93.0953 36.4084C93.0953 35.4851 93.2658 34.7216 93.6067 34.1179C93.9476 33.5142 94.4128 33.0312 95.0023 32.669C95.5918 32.3068 96.2559 32.0334 96.9945 31.8487C97.7402 31.657 98.5108 31.5185 99.3063 31.4332C100.265 31.3338 101.043 31.245 101.639 31.1669C102.236 31.0817 102.669 30.9538 102.939 30.7834C103.216 30.6058 103.355 30.3324 103.355 29.9631V29.8991C103.355 29.0966 103.117 28.4751 102.641 28.0348C102.165 27.5945 101.48 27.3743 100.585 27.3743C99.6401 27.3743 98.8908 27.5803 98.3368 27.9922C97.79 28.4041 97.4206 28.8906 97.2289 29.4517L93.628 28.9403C93.9121 27.946 94.3809 27.1151 95.0343 26.4474C95.6877 25.7727 96.4867 25.2685 97.4313 24.9347C98.3759 24.5938 99.4199 24.4233 100.563 24.4233C101.352 24.4233 102.137 24.5156 102.918 24.7003C103.699 24.8849 104.413 25.1903 105.059 25.6165C105.705 26.0355 106.224 26.6072 106.615 27.3317C107.012 28.0561 107.211 28.9616 107.211 30.0483V41H103.504V38.7521H103.376C103.142 39.2067 102.811 39.6328 102.385 40.0305C101.966 40.4212 101.437 40.7372 100.798 40.9787C100.166 41.2131 99.4235 41.3303 98.5712 41.3303ZM99.5726 38.4964C100.347 38.4964 101.018 38.3437 101.586 38.0384C102.154 37.7259 102.591 37.3139 102.896 36.8026C103.209 36.2912 103.365 35.7337 103.365 35.13V33.2017C103.244 33.3011 103.039 33.3935 102.747 33.4787C102.463 33.5639 102.144 33.6385 101.789 33.7024C101.433 33.7663 101.082 33.8232 100.734 33.8729C100.386 33.9226 100.084 33.9652 99.8283 34.0007C99.253 34.0788 98.7381 34.2067 98.2836 34.3842C97.829 34.5618 97.4703 34.8104 97.2076 35.13C96.9448 35.4425 96.8134 35.8473 96.8134 36.3445C96.8134 37.0547 97.0726 37.5909 97.5911 37.9531C98.1096 38.3153 98.7701 38.4964 99.5726 38.4964ZM115.661 41.2876C114.376 41.2876 113.225 40.9574 112.21 40.2969C111.194 39.6364 110.392 38.6776 109.802 37.4205C109.213 36.1634 108.918 34.6364 108.918 32.8395C108.918 31.0213 109.216 29.4872 109.813 28.2372C110.416 26.9801 111.23 26.032 112.252 25.3928C113.275 24.7464 114.415 24.4233 115.672 24.4233C116.631 24.4233 117.419 24.5866 118.037 24.9134C118.655 25.233 119.145 25.62 119.507 26.0746C119.869 26.522 120.15 26.9446 120.349 27.3423H120.509V19.1818H124.376V41H120.583V38.4219H120.349C120.15 38.8196 119.862 39.2422 119.486 39.6896C119.11 40.13 118.612 40.5064 117.994 40.8189C117.377 41.1314 116.599 41.2876 115.661 41.2876ZM116.737 38.1236C117.554 38.1236 118.25 37.9034 118.825 37.4631C119.401 37.0156 119.838 36.3942 120.136 35.5987C120.434 34.8033 120.583 33.8764 120.583 32.8182C120.583 31.7599 120.434 30.8402 120.136 30.0589C119.845 29.2777 119.411 28.6705 118.836 28.2372C118.268 27.804 117.568 27.5874 116.737 27.5874C115.878 27.5874 115.161 27.8111 114.585 28.2585C114.01 28.706 113.577 29.3239 113.286 30.1122C112.994 30.9006 112.849 31.8026 112.849 32.8182C112.849 33.8409 112.994 34.7536 113.286 35.5561C113.584 36.3516 114.021 36.9801 114.596 37.4418C115.178 37.8963 115.892 38.1236 116.737 38.1236ZM134.123 41.3196C132.49 41.3196 131.087 40.9609 129.915 40.2436C128.75 39.5263 127.852 38.5355 127.22 37.2713C126.595 36 126.282 34.5369 126.282 32.8821C126.282 31.2202 126.602 29.7536 127.241 28.4822C127.88 27.2038 128.782 26.2095 129.947 25.4993C131.119 24.782 132.504 24.4233 134.102 24.4233C135.43 24.4233 136.605 24.6683 137.628 25.1584C138.658 25.6413 139.478 26.3267 140.089 27.2145C140.7 28.0952 141.048 29.125 141.133 30.304H137.447C137.298 29.5156 136.943 28.8587 136.382 28.3331C135.828 27.8004 135.086 27.5341 134.155 27.5341C133.367 27.5341 132.674 27.7472 132.078 28.1733C131.481 28.5923 131.016 29.196 130.682 29.9844C130.355 30.7727 130.192 31.7173 130.192 32.8182C130.192 33.9332 130.355 34.892 130.682 35.6946C131.009 36.4901 131.467 37.1044 132.056 37.5376C132.653 37.9638 133.353 38.1768 134.155 38.1768C134.723 38.1768 135.231 38.0703 135.679 37.8572C136.133 37.6371 136.513 37.321 136.819 36.9091C137.124 36.4972 137.333 35.9964 137.447 35.407H141.133C141.041 36.5646 140.7 37.5909 140.11 38.4858C139.521 39.3736 138.718 40.0696 137.703 40.5739C136.687 41.071 135.494 41.3196 134.123 41.3196ZM146.656 31.4119V41H142.8V24.6364H146.486V27.4169H146.678C147.054 26.5007 147.654 25.7727 148.478 25.233C149.309 24.6932 150.335 24.4233 151.557 24.4233C152.686 24.4233 153.67 24.6648 154.508 25.1477C155.353 25.6307 156.007 26.3303 156.468 27.2464C156.937 28.1626 157.168 29.2741 157.161 30.581V41H153.304V31.1776C153.304 30.0838 153.02 29.228 152.452 28.6101C151.891 27.9922 151.113 27.6832 150.119 27.6832C149.444 27.6832 148.844 27.8324 148.318 28.1307C147.8 28.4219 147.392 28.8445 147.093 29.3984C146.802 29.9524 146.656 30.6236 146.656 31.4119ZM159.752 41V19.1818H163.608V27.3423H163.768C163.967 26.9446 164.247 26.522 164.61 26.0746C164.972 25.62 165.462 25.233 166.08 24.9134C166.698 24.5866 167.486 24.4233 168.445 24.4233C169.709 24.4233 170.849 24.7464 171.865 25.3928C172.887 26.032 173.697 26.9801 174.294 28.2372C174.897 29.4872 175.199 31.0213 175.199 32.8395C175.199 34.6364 174.904 36.1634 174.315 37.4205C173.725 38.6776 172.923 39.6364 171.907 40.2969C170.892 40.9574 169.741 41.2876 168.455 41.2876C167.518 41.2876 166.74 41.1314 166.122 40.8189C165.504 40.5064 165.007 40.13 164.631 39.6896C164.262 39.2422 163.974 38.8196 163.768 38.4219H163.544V41H159.752ZM163.534 32.8182C163.534 33.8764 163.683 34.8033 163.981 35.5987C164.286 36.3942 164.723 37.0156 165.291 37.4631C165.867 37.9034 166.563 38.1236 167.379 38.1236C168.232 38.1236 168.945 37.8963 169.521 37.4418C170.096 36.9801 170.529 36.3516 170.82 35.5561C171.119 34.7536 171.268 33.8409 171.268 32.8182C171.268 31.8026 171.122 30.9006 170.831 30.1122C170.54 29.3239 170.107 28.706 169.531 28.2585C168.956 27.8111 168.239 27.5874 167.379 27.5874C166.556 27.5874 165.856 27.804 165.281 28.2372C164.705 28.6705 164.269 29.2777 163.97 30.0589C163.679 30.8402 163.534 31.7599 163.534 32.8182ZM180.834 19.1818V41H176.978V19.1818H180.834ZM190.438 41.3196C188.84 41.3196 187.455 40.968 186.283 40.2649C185.111 39.5618 184.202 38.5781 183.556 37.3139C182.916 36.0497 182.597 34.5724 182.597 32.8821C182.597 31.1918 182.916 29.7109 183.556 28.4396C184.202 27.1683 185.111 26.1811 186.283 25.478C187.455 24.7749 188.84 24.4233 190.438 24.4233C192.036 24.4233 193.421 24.7749 194.593 25.478C195.764 26.1811 196.67 27.1683 197.309 28.4396C197.955 29.7109 198.279 31.1918 198.279 32.8821C198.279 34.5724 197.955 36.0497 197.309 37.3139C196.67 38.5781 195.764 39.5618 194.593 40.2649C193.421 40.968 192.036 41.3196 190.438 41.3196ZM190.459 38.2301C191.325 38.2301 192.05 37.9922 192.632 37.5163C193.215 37.0334 193.648 36.3871 193.932 35.5774C194.223 34.7678 194.369 33.8658 194.369 32.8714C194.369 31.87 194.223 30.9645 193.932 30.1548C193.648 29.3381 193.215 28.6882 192.632 28.2053C192.05 27.7223 191.325 27.4808 190.459 27.4808C189.571 27.4808 188.833 27.7223 188.243 28.2053C187.661 28.6882 187.224 29.3381 186.933 30.1548C186.649 30.9645 186.507 31.87 186.507 32.8714C186.507 33.8658 186.649 34.7678 186.933 35.5774C187.224 36.3871 187.661 37.0334 188.243 37.5163C188.833 37.9922 189.571 38.2301 190.459 38.2301ZM207.19 41.3196C205.556 41.3196 204.153 40.9609 202.982 40.2436C201.817 39.5263 200.918 38.5355 200.286 37.2713C199.661 36 199.349 34.5369 199.349 32.8821C199.349 31.2202 199.668 29.7536 200.308 28.4822C200.947 27.2038 201.849 26.2095 203.013 25.4993C204.185 24.782 205.57 24.4233 207.168 24.4233C208.496 24.4233 209.672 24.6683 210.695 25.1584C211.724 25.6413 212.545 26.3267 213.156 27.2145C213.766 28.0952 214.114 29.125 214.2 30.304H210.513C210.364 29.5156 210.009 28.8587 209.448 28.3331C208.894 27.8004 208.152 27.5341 207.222 27.5341C206.433 27.5341 205.741 27.7472 205.144 28.1733C204.548 28.5923 204.082 29.196 203.749 29.9844C203.422 30.7727 203.259 31.7173 203.259 32.8182C203.259 33.9332 203.422 34.892 203.749 35.6946C204.075 36.4901 204.533 37.1044 205.123 37.5376C205.719 37.9638 206.419 38.1768 207.222 38.1768C207.79 38.1768 208.298 38.0703 208.745 37.8572C209.2 37.6371 209.58 37.321 209.885 36.9091C210.19 36.4972 210.4 35.9964 210.513 35.407H214.2C214.107 36.5646 213.766 37.5909 213.177 38.4858C212.587 39.3736 211.785 40.0696 210.769 40.5739C209.754 41.071 208.56 41.3196 207.19 41.3196ZM219.382 35.8651L219.371 31.2095H219.989L225.87 24.6364H230.376L223.143 32.6903H222.344L219.382 35.8651ZM215.866 41V19.1818H219.723V41H215.866ZM226.136 41L220.809 33.5533L223.409 30.8366L230.749 41H226.136ZM244.38 28.9616L240.864 29.3452C240.765 28.9901 240.591 28.6562 240.342 28.3438C240.1 28.0312 239.774 27.7791 239.362 27.5874C238.95 27.3956 238.446 27.2997 237.849 27.2997C237.047 27.2997 236.372 27.4737 235.825 27.8217C235.285 28.1697 235.019 28.6207 235.026 29.1747C235.019 29.6506 235.193 30.0376 235.548 30.3359C235.91 30.6342 236.507 30.8793 237.338 31.071L240.129 31.6676C241.677 32.0014 242.828 32.5305 243.581 33.255C244.341 33.9794 244.724 34.9276 244.731 36.0994C244.724 37.1293 244.422 38.0384 243.826 38.8267C243.236 39.608 242.416 40.2187 241.365 40.6591C240.314 41.0994 239.106 41.3196 237.743 41.3196C235.74 41.3196 234.127 40.9006 232.906 40.0625C231.684 39.2173 230.956 38.0419 230.722 36.5362L234.483 36.174C234.653 36.9126 235.015 37.4702 235.569 37.8466C236.123 38.223 236.844 38.4112 237.732 38.4112C238.648 38.4112 239.383 38.223 239.937 37.8466C240.498 37.4702 240.779 37.005 240.779 36.451C240.779 35.9822 240.598 35.5952 240.235 35.2898C239.88 34.9844 239.326 34.75 238.574 34.5866L235.782 34.0007C234.213 33.674 233.051 33.1236 232.299 32.3494C231.546 31.5682 231.173 30.581 231.18 29.3878C231.173 28.3793 231.446 27.5057 232 26.767C232.561 26.0213 233.339 25.446 234.333 25.0412C235.335 24.6293 236.489 24.4233 237.796 24.4233C239.713 24.4233 241.223 24.8317 242.324 25.6484C243.431 26.4652 244.117 27.5696 244.38 28.9616ZM248.787 41.2344C248.141 41.2344 247.587 41.0071 247.125 40.5526C246.663 40.098 246.436 39.544 246.443 38.8906C246.436 38.2514 246.663 37.7045 247.125 37.25C247.587 36.7955 248.141 36.5682 248.787 36.5682C249.412 36.5682 249.955 36.7955 250.417 37.25C250.886 37.7045 251.124 38.2514 251.131 38.8906C251.124 39.3239 251.01 39.718 250.79 40.0732C250.577 40.4283 250.293 40.7124 249.938 40.9254C249.589 41.1314 249.206 41.2344 248.787 41.2344ZM260.75 41.3196C259.117 41.3196 257.714 40.9609 256.542 40.2436C255.377 39.5263 254.479 38.5355 253.847 37.2713C253.222 36 252.909 34.5369 252.909 32.8821C252.909 31.2202 253.229 29.7536 253.868 28.4822C254.507 27.2038 255.409 26.2095 256.574 25.4993C257.746 24.782 259.131 24.4233 260.729 24.4233C262.057 24.4233 263.232 24.6683 264.255 25.1584C265.285 25.6413 266.105 26.3267 266.716 27.2145C267.327 28.0952 267.675 29.125 267.76 30.304H264.074C263.925 29.5156 263.57 28.8587 263.009 28.3331C262.455 27.8004 261.713 27.5341 260.782 27.5341C259.994 27.5341 259.301 27.7472 258.705 28.1733C258.108 28.5923 257.643 29.196 257.309 29.9844C256.982 30.7727 256.819 31.7173 256.819 32.8182C256.819 33.9332 256.982 34.892 257.309 35.6946C257.636 36.4901 258.094 37.1044 258.683 37.5376C259.28 37.9638 259.98 38.1768 260.782 38.1768C261.35 38.1768 261.858 38.0703 262.306 37.8572C262.76 37.6371 263.14 37.321 263.445 36.9091C263.751 36.4972 263.96 35.9964 264.074 35.407H267.76C267.668 36.5646 267.327 37.5909 266.737 38.4858C266.148 39.3736 265.345 40.0696 264.33 40.5739C263.314 41.071 262.121 41.3196 260.75 41.3196ZM276.565 41.3196C274.967 41.3196 273.582 40.968 272.41 40.2649C271.238 39.5618 270.329 38.5781 269.683 37.3139C269.043 36.0497 268.724 34.5724 268.724 32.8821C268.724 31.1918 269.043 29.7109 269.683 28.4396C270.329 27.1683 271.238 26.1811 272.41 25.478C273.582 24.7749 274.967 24.4233 276.565 24.4233C278.163 24.4233 279.548 24.7749 280.719 25.478C281.891 26.1811 282.797 27.1683 283.436 28.4396C284.082 29.7109 284.406 31.1918 284.406 32.8821C284.406 34.5724 284.082 36.0497 283.436 37.3139C282.797 38.5781 281.891 39.5618 280.719 40.2649C279.548 40.968 278.163 41.3196 276.565 41.3196ZM276.586 38.2301C277.452 38.2301 278.177 37.9922 278.759 37.5163C279.342 37.0334 279.775 36.3871 280.059 35.5774C280.35 34.7678 280.496 33.8658 280.496 32.8714C280.496 31.87 280.35 30.9645 280.059 30.1548C279.775 29.3381 279.342 28.6882 278.759 28.2053C278.177 27.7223 277.452 27.4808 276.586 27.4808C275.698 27.4808 274.96 27.7223 274.37 28.2053C273.788 28.6882 273.351 29.3381 273.06 30.1548C272.776 30.9645 272.634 31.87 272.634 32.8714C272.634 33.8658 272.776 34.7678 273.06 35.5774C273.351 36.3871 273.788 37.0334 274.37 37.5163C274.96 37.9922 275.698 38.2301 276.586 38.2301ZM286.179 41V24.6364H289.865V27.4169H290.057C290.398 26.4794 290.962 25.7479 291.751 25.2223C292.539 24.6896 293.48 24.4233 294.574 24.4233C295.682 24.4233 296.616 24.6932 297.376 25.233C298.143 25.7656 298.682 26.4936 298.995 27.4169H299.165C299.528 26.5078 300.138 25.7834 300.998 25.2436C301.864 24.6967 302.89 24.4233 304.077 24.4233C305.582 24.4233 306.811 24.8991 307.763 25.8509C308.714 26.8026 309.19 28.1911 309.19 30.0163V41H305.323V30.6129C305.323 29.5973 305.053 28.8551 304.513 28.3864C303.974 27.9105 303.313 27.6726 302.532 27.6726C301.601 27.6726 300.873 27.9638 300.348 28.5462C299.829 29.1214 299.57 29.8707 299.57 30.794V41H295.788V30.4531C295.788 29.608 295.532 28.9332 295.021 28.429C294.517 27.9247 293.856 27.6726 293.04 27.6726C292.486 27.6726 291.981 27.8146 291.527 28.0987C291.072 28.3757 290.71 28.7699 290.44 29.2812C290.17 29.7855 290.035 30.375 290.035 31.0497V41H286.179Z" fill="black"/>
</svg>
