<svg width="581" height="113" viewBox="0 0 581 113" fill="none" xmlns="http://www.w3.org/2000/svg">
<g clip-path="url(#clip0_22_367)">
<path d="M151.4 66.76C152 72.36 157.1 81.96 171.88 81.96C184.76 81.96 190.96 73.76 190.96 65.76C190.96 58.56 186.06 52.66 176.37 50.66L169.37 49.16C166.68 48.66 164.88 47.16 164.88 44.76C164.88 41.96 167.68 39.86 171.18 39.86C176.78 39.86 178.87 43.56 179.27 46.46L190.36 43.96C189.76 38.66 185.06 29.76 171.08 29.76C160.48 29.76 152.7 37.06 152.7 45.86C152.7 52.76 157 58.46 166.48 60.56L172.98 62.06C176.78 62.86 178.28 64.66 178.28 66.86C178.28 69.46 176.18 71.76 171.78 71.76C165.98 71.76 163.08 68.16 162.78 64.26L151.4 66.76Z" fill="white"/>
<path d="M233.42 80.46H246.11C245.91 78.76 245.61 75.36 245.61 71.56V31.26H232.32V59.86C232.32 65.56 228.92 69.56 223.03 69.56C216.83 69.56 214.03 65.16 214.03 59.66V31.26H200.75V62.36C200.75 73.06 207.55 81.76 219.43 81.76C224.63 81.76 230.33 79.76 233.03 75.16C233.03 77.16 233.23 79.46 233.43 80.46H233.42Z" fill="white"/>
<path d="M273.08 99.47V75.67C275.48 78.97 280.47 81.67 287.26 81.67C301.15 81.67 310.44 70.67 310.44 55.76C310.44 41.16 302.14 30.16 287.76 30.16C280.37 30.16 274.88 33.46 272.68 37.26V31.26H259.79V99.46H273.08V99.47ZM297.35 55.86C297.35 64.66 291.95 69.76 285.16 69.76C278.37 69.76 272.88 64.56 272.88 55.86C272.88 47.16 278.38 42.06 285.16 42.06C291.96 42.06 297.36 47.16 297.36 55.86H297.35Z" fill="white"/>
<path d="M317.96 67.06C317.96 74.76 324.36 81.86 334.85 81.86C342.14 81.86 346.83 78.46 349.33 74.56C349.33 76.46 349.53 79.16 349.83 80.46H362.02C361.72 78.76 361.42 75.26 361.42 72.66V48.46C361.42 38.56 355.62 29.76 340.04 29.76C326.85 29.76 319.76 38.26 318.96 45.96L330.76 48.46C331.16 44.16 334.35 40.46 340.14 40.46C345.74 40.46 348.44 43.36 348.44 46.86C348.44 48.56 347.54 49.96 344.74 50.36L332.65 52.16C324.45 53.36 317.96 58.26 317.96 67.06ZM337.64 71.96C333.34 71.96 331.25 69.16 331.25 66.26C331.25 62.46 333.95 60.56 337.35 60.06L348.43 58.36V60.56C348.43 69.26 343.23 71.96 337.64 71.96Z" fill="white"/>
<path d="M387.7 80.46V74.46C390.3 78.66 395.5 81.66 402.29 81.66C416.28 81.66 425.47 70.56 425.47 55.66C425.47 41.06 417.17 29.96 402.79 29.96C395.49 29.96 390.1 33.16 387.9 36.66V8.04004H374.82V80.45H387.7V80.46ZM412.18 55.76C412.18 64.76 406.78 69.76 399.99 69.76C393.29 69.76 387.7 64.66 387.7 55.76C387.7 46.76 393.3 41.86 399.99 41.86C406.79 41.86 412.18 46.76 412.18 55.76Z" fill="white"/>
<path d="M432.99 67.06C432.99 74.76 439.39 81.86 449.87 81.86C457.17 81.86 461.87 78.46 464.36 74.56C464.36 76.46 464.56 79.16 464.86 80.46H477.05C476.75 78.76 476.45 75.26 476.45 72.66V48.46C476.45 38.56 470.65 29.76 455.07 29.76C441.88 29.76 434.79 38.26 433.99 45.96L445.78 48.46C446.18 44.16 449.38 40.46 455.17 40.46C460.77 40.46 463.46 43.36 463.46 46.86C463.46 48.56 462.56 49.96 459.76 50.36L447.68 52.16C439.48 53.36 432.99 58.26 432.99 67.06ZM452.67 71.96C448.37 71.96 446.27 69.16 446.27 66.26C446.27 62.46 448.97 60.56 452.37 60.06L463.46 58.36V60.56C463.46 69.26 458.26 71.96 452.67 71.96Z" fill="white"/>
<path d="M485.64 66.76C486.24 72.36 491.34 81.96 506.12 81.96C519.02 81.96 525.21 73.76 525.21 65.76C525.21 58.56 520.31 52.66 510.62 50.66L503.62 49.16C500.92 48.66 499.13 47.16 499.13 44.76C499.13 41.96 501.93 39.86 505.43 39.86C511.03 39.86 513.12 43.56 513.52 46.46L524.61 43.96C524.01 38.66 519.31 29.76 505.33 29.76C494.73 29.76 486.94 37.06 486.94 45.86C486.94 52.76 491.24 58.46 500.73 60.56L507.23 62.06C511.03 62.86 512.52 64.66 512.52 66.86C512.52 69.46 510.42 71.76 506.02 71.76C500.23 71.76 497.33 68.16 497.03 64.26L485.65 66.76H485.64Z" fill="white"/>
<path d="M545.38 50.26C545.68 45.76 549.48 40.56 556.38 40.56C563.97 40.56 567.16 45.36 567.37 50.26H545.38ZM568.66 63.06C567.06 67.46 563.66 70.56 557.47 70.56C550.88 70.56 545.38 65.86 545.09 59.36H580.25C580.25 59.16 580.45 57.16 580.45 55.26C580.45 39.46 571.36 29.76 556.17 29.76C543.59 29.76 532 39.96 532 55.66C532 72.26 543.89 81.96 557.37 81.96C569.47 81.96 577.25 74.86 579.75 66.36L568.66 63.06Z" fill="white"/>
<path d="M63.7 110.28C63.07 111.065 62.2137 111.636 61.2474 111.918C60.2811 112.199 59.2518 112.175 58.2992 111.851C57.3466 111.526 56.5171 110.917 55.9232 110.104C55.3293 109.292 55 108.316 54.98 107.31L53.98 40.0601H99.19C101.032 40.0592 102.836 40.5778 104.397 41.5564C105.957 42.5349 107.209 43.9338 108.01 45.5922C108.811 47.2506 109.128 49.1013 108.925 50.9317C108.721 52.7621 108.006 54.4981 106.86 55.9401L63.7 110.28Z" fill="url(#paint0_linear_22_367)"/>
<path d="M63.7 110.28C63.07 111.065 62.2137 111.636 61.2474 111.918C60.2811 112.199 59.2518 112.175 58.2992 111.851C57.3466 111.526 56.5171 110.917 55.9232 110.104C55.3293 109.292 55 108.316 54.98 107.31L53.98 40.0601H99.19C101.032 40.0592 102.836 40.5778 104.397 41.5564C105.957 42.5349 107.209 43.9338 108.01 45.5922C108.811 47.2506 109.128 49.1013 108.925 50.9317C108.721 52.7621 108.006 54.4981 106.86 55.9401L63.7 110.28Z" fill="url(#paint1_linear_22_367)" fill-opacity="0.2"/>
<path d="M45.3201 2.06995C45.95 1.28524 46.8064 0.713527 47.7726 0.4325C48.7389 0.151474 49.7683 0.174764 50.7208 0.499206C51.6734 0.823648 52.503 1.43351 53.0968 2.24591C53.6907 3.0583 54.02 4.03384 54.0401 5.03995L54.4801 72.2899H9.83005C7.99095 72.2875 6.18974 71.767 4.63275 70.7882C3.07576 69.8094 1.82596 68.4118 1.02653 66.7555C0.227096 65.0993 -0.08964 63.2513 0.112604 61.4234C0.314848 59.5954 1.02789 57.8614 2.17005 56.4199L45.3201 2.06995Z" fill="white"/>
</g>
<defs>
<linearGradient id="paint0_linear_22_367" x1="53.97" y1="54.9701" x2="94.16" y2="71.8301" gradientUnits="userSpaceOnUse">
<stop stop-color="#E4E4E4"/>
<stop offset="1" stop-color="white"/>
</linearGradient>
<linearGradient id="paint1_linear_22_367" x1="36.16" y1="30.5801" x2="54.48" y2="65.0801" gradientUnits="userSpaceOnUse">
<stop stop-color="white"/>
<stop offset="1" stop-opacity="0"/>
</linearGradient>
<clipPath id="clip0_22_367">
<rect width="581" height="113" fill="white"/>
</clipPath>
</defs>
</svg>
