<svg width="177" height="108" viewBox="0 0 177 108" fill="none" xmlns="http://www.w3.org/2000/svg">
<mask id="mask0_22_306" style="mask-type:luminance" maskUnits="userSpaceOnUse" x="0" y="0" width="177" height="107">
<path d="M0 0H177V106.036H0V0Z" fill="white"/>
</mask>
<g mask="url(#mask0_22_306)">
<path fill-rule="evenodd" clip-rule="evenodd" d="M88.5 0C64.9 0 50.15 11.7818 44.25 35.3455C53.1 23.5636 63.425 19.1455 75.225 22.0909C81.9576 23.7698 86.7693 28.6495 92.0957 34.0462C100.772 42.84 110.815 53.0182 132.75 53.0182C156.35 53.0182 171.1 41.2364 177 17.6727C168.15 29.4545 157.825 33.8727 146.025 30.9273C139.292 29.2484 134.481 24.3687 129.154 18.972C120.478 10.1782 110.435 0 88.5 0ZM44.25 53.0182C20.65 53.0182 5.9 64.8 0 88.3636C8.85 76.5818 19.175 72.1636 30.975 75.1091C37.7076 76.7913 42.5193 81.6676 47.8457 87.0644C56.522 95.8582 66.5651 106.036 88.5 106.036C112.1 106.036 126.85 94.2545 132.75 70.6909C123.9 82.4727 113.575 86.8909 101.775 83.9454C95.0424 82.2665 90.2307 77.3869 84.9043 71.9902C76.228 63.1964 66.1849 53.0182 44.25 53.0182Z" fill="black"/>
</g>
</svg>
