<svg width="80" height="80" viewBox="0 0 80 80" fill="none" xmlns="http://www.w3.org/2000/svg">
<rect width="80" height="79.6814" rx="14.359" fill="white"/>
<mask id="mask0_37_910" style="mask-type:alpha" maskUnits="userSpaceOnUse" x="9" y="9" width="62" height="62">
<path fill-rule="evenodd" clip-rule="evenodd" d="M52.9577 70.3973C53.9336 70.7775 55.0463 70.7532 56.0313 70.2792L68.7876 64.141C70.128 63.496 70.9804 62.1394 70.9804 60.6511V19.0304C70.9804 17.5421 70.1281 16.1855 68.7876 15.5405L56.0313 9.40211C54.7386 8.7801 53.2258 8.93245 52.0913 9.75726C51.9293 9.87508 51.7749 10.0066 51.63 10.1516L27.2096 32.4311L16.5725 24.3566C15.5823 23.605 14.1973 23.6666 13.2776 24.5031L9.866 27.6066C8.74109 28.6298 8.7398 30.3996 9.86322 31.4246L19.088 39.8407L9.86322 48.2567C8.7398 49.2816 8.74109 51.0515 9.866 52.0747L13.2776 55.1782C14.1973 56.0147 15.5823 56.0763 16.5725 55.3246L27.2096 47.2502L51.63 69.5296C52.0163 69.9162 52.4699 70.2073 52.9577 70.3973ZM55.5001 25.7751L36.9706 39.8407L55.5001 53.9062V25.7751Z" fill="white"/>
</mask>
<g mask="url(#mask0_37_910)">
<path d="M68.7885 15.5505L56.0222 9.40368C54.5444 8.69219 52.7785 8.99231 51.6188 10.152L9.82662 48.2572C8.70252 49.282 8.70381 51.0519 9.82941 52.0751L13.2431 55.1786C14.1633 56.0151 15.5492 56.0767 16.54 55.3251L66.8675 17.1451C68.5559 15.8643 70.981 17.0685 70.981 19.1878V19.0396C70.981 17.552 70.1288 16.1959 68.7885 15.5505Z" fill="#0065A9"/>
<g filter="url(#filter0_d_37_910)">
<path d="M68.7885 64.131L56.0222 70.2779C54.5445 70.9895 52.7785 70.6892 51.6188 69.5295L9.82662 31.4244C8.70252 30.3995 8.70381 28.6297 9.82941 27.6064L13.2431 24.5029C14.1633 23.6664 15.5492 23.6048 16.54 24.3564L66.8675 62.5364C68.5559 63.8173 70.981 62.613 70.981 60.4937V60.642C70.981 62.1295 70.1288 63.4857 68.7885 64.131Z" fill="#007ACC"/>
</g>
<g filter="url(#filter1_d_37_910)">
<path d="M56.0231 70.2796C54.5449 70.9908 52.7789 70.6899 51.6191 69.5301C53.0482 70.9592 55.4916 69.947 55.4916 67.9261V11.7561C55.4916 9.73517 53.0482 8.72306 51.6191 10.1521C52.7789 8.99228 54.5449 8.69173 56.0231 9.40259L68.7872 15.541C70.1284 16.186 70.9813 17.5426 70.9813 19.0309V60.6516C70.9813 62.1399 70.1284 63.4965 68.7871 64.1415L56.0231 70.2796Z" fill="#1F9CF0"/>
</g>
<g style="mix-blend-mode:overlay" opacity="0.25">
<path fill-rule="evenodd" clip-rule="evenodd" d="M52.9206 70.3974C53.8965 70.7775 55.0093 70.7531 55.9942 70.2792L68.7505 64.141C70.0909 63.496 70.9433 62.1394 70.9433 60.6511V19.0304C70.9433 17.5421 70.0909 16.1855 68.7505 15.5405L55.9942 9.40211C54.7016 8.7801 53.1887 8.93245 52.0542 9.75725C51.8922 9.87508 51.7378 10.0066 51.5929 10.1516L27.1725 32.4311L16.5354 24.3566C15.5453 23.605 14.1602 23.6666 13.2405 24.5031L9.8289 27.6066C8.70398 28.6299 8.70269 30.3996 9.82611 31.4246L19.0509 39.8406L9.82611 48.2567C8.70269 49.2817 8.70398 51.0514 9.8289 52.0747L13.2405 55.1781C14.1602 56.0147 15.5453 56.0763 16.5354 55.3247L27.1725 47.2501L51.5929 69.5297C51.9792 69.9162 52.4328 70.2073 52.9206 70.3974ZM55.463 25.7751L36.9335 39.8406L55.463 53.9062V25.7751Z" fill="url(#paint0_linear_37_910)"/>
</g>
</g>
<defs>
<filter id="filter0_d_37_910" x="3.82111" y="18.6683" width="72.3226" height="57.1551" filterUnits="userSpaceOnUse" color-interpolation-filters="sRGB">
<feFlood flood-opacity="0" result="BackgroundImageFix"/>
<feColorMatrix in="SourceAlpha" type="matrix" values="0 0 0 0 0 0 0 0 0 0 0 0 0 0 0 0 0 0 127 0" result="hardAlpha"/>
<feOffset/>
<feGaussianBlur stdDeviation="2.58163"/>
<feColorMatrix type="matrix" values="0 0 0 0 0 0 0 0 0 0 0 0 0 0 0 0 0 0 0.25 0"/>
<feBlend mode="overlay" in2="BackgroundImageFix" result="effect1_dropShadow_37_910"/>
<feBlend mode="normal" in="SourceGraphic" in2="effect1_dropShadow_37_910" result="shape"/>
</filter>
<filter id="filter1_d_37_910" x="46.4559" y="3.85773" width="29.6879" height="71.9667" filterUnits="userSpaceOnUse" color-interpolation-filters="sRGB">
<feFlood flood-opacity="0" result="BackgroundImageFix"/>
<feColorMatrix in="SourceAlpha" type="matrix" values="0 0 0 0 0 0 0 0 0 0 0 0 0 0 0 0 0 0 127 0" result="hardAlpha"/>
<feOffset/>
<feGaussianBlur stdDeviation="2.58163"/>
<feColorMatrix type="matrix" values="0 0 0 0 0 0 0 0 0 0 0 0 0 0 0 0 0 0 0.25 0"/>
<feBlend mode="overlay" in2="BackgroundImageFix" result="effect1_dropShadow_37_910"/>
<feBlend mode="normal" in="SourceGraphic" in2="effect1_dropShadow_37_910" result="shape"/>
</filter>
<linearGradient id="paint0_linear_37_910" x1="39.9638" y1="9.02051" x2="39.9638" y2="70.6608" gradientUnits="userSpaceOnUse">
<stop stop-color="white"/>
<stop offset="1" stop-color="white" stop-opacity="0"/>
</linearGradient>
</defs>
</svg>
