<svg xmlns="http://www.w3.org/2000/svg" viewBox="0 0 72.2 85" xml:space="preserve">
  <path d="M0 77.3C0 82 3 85 7.7 85h22.4c13.4 0 24.3-4.5 31.7-12.4H0zM30.1 0H7.7C3 0 0 3 0 7.7v4.8h61.8C54.3 4.5 43.4 0 30.1 0m19.5 54.6c0 3.8 2.4 6.2 6.2 6.2h13.4c1.5-3.8 2.5-7.9 3-12.4H55.8c-3.8 0-6.2 2.5-6.2 6.2M31 30.4c0 3.8 2.4 6.2 6.2 6.2h35c-.5-4.5-1.5-8.6-3-12.4h-32c-3.8 0-6.2 2.5-6.2 6.2m6.2 24.2c0-3.8-2.4-6.2-6.2-6.2H0v12.4h31c3.8 0 6.2-2.4 6.2-6.2M18.6 30.4c0-3.8-2.4-6.2-6.2-6.2H0v12.4h12.4c3.8 0 6.2-2.4 6.2-6.2" style="fill-rule:evenodd;clip-rule:evenodd;fill:#000"/>
</svg>
