<svg xmlns="http://www.w3.org/2000/svg" viewBox="0 0 62 62" xml:space="preserve">
  <path d="M49.6 46.6c-2.3 0-4.9-.5-7.7-1.6-5.7-2.2-8.7-6.9-11.4-11-2.9-4.6-5.5-8.5-11.2-9.8-8.1-1.9-10.6.8-13 3.5-.3.3-.6.7-.9 1L1.6 25l.8-.8c2.8-3.1 7-7.8 18.2-5.1 7.8 1.8 11.4 7.3 14.5 12.1 2.5 3.9 4.7 7.3 8.8 8.9 3.8 1.5 6.8 1.7 8.9.6 2.4-1.2 3.1-3.8 3.1-3.8l5.2 1.3c0 .2-1.2 4.9-5.8 7.2q-2.55 1.2-5.7 1.2"/>
  <path d="M31 62C13.9 62 0 48.1 0 31S13.9 0 31 0s31 13.9 31 31-13.9 31-31 31m0-56.6C16.9 5.4 5.4 16.9 5.4 31S16.9 56.6 31 56.6 56.6 45.1 56.6 31 45.1 5.4 31 5.4"/>
  <path d="M31.2 62c-9.4 0-16.7-13.6-16.7-30.9S21.8.2 31.2.2s16.7 13.6 16.7 30.9S40.6 62 31.2 62m0-56.5c-5.4 0-11.4 10.5-11.4 25.6s6 25.6 11.4 25.6 11.4-10.5 11.4-25.6-6-25.6-11.4-25.6"/>
  <path d="M28.3 2.7h5.3v56.6h-5.3z"/>
</svg>
